<?xml version="1.0" standalone="no"?>
<!DOCTYPE svg PUBLIC "-//W3C//DTD SVG 1.1//EN" "http://www.w3.org/Graphics/SVG/1.1/DTD/svg11.dtd" >
<svg xmlns="http://www.w3.org/2000/svg" xmlns:xlink="http://www.w3.org/1999/xlink" version="1.1">
<metadata>
Created by FontForge 20161003 at Wed Oct 24 10:36:46 2018
 By www-data
(c) 2005, 2007 Adobe Systems Incorporated. All rights reserved.
</metadata>
<defs>
<font id="GaramondPremrProMed" horiz-adv-x="556" >
  <font-face 
    font-family="GaramondPremrProMed"
    font-weight="500"
    font-stretch="normal"
    units-per-em="1000"
    panose-1="2 2 5 2 6 5 6 2 4 3"
    ascent="725"
    descent="-275"
    x-height="395"
    cap-height="644"
    bbox="-179.115 -334 1404 916.4"
    underline-thickness="50"
    underline-position="-150"
    unicode-range="U+0020-FB06"
  />
<missing-glyph horiz-adv-x="500" 
d="M0 0v700h500v-700h-500zM250 395l170 255h-340zM280 350l170 -255v510zM80 50h340l-170 255zM50 605v-510l170 255z" />
    <glyph glyph-name="f_f" unicode="ff" horiz-adv-x="564" 
d="M353 345h-173q-8 0 -8 -25v-243q0 -17 6.5 -26.5t15 -13.5t28.5 -10q25 -7 25 -18q0 -13 -27 -13q-7 0 -45.5 2t-49.5 2q-20 0 -47.5 -2t-30.5 -2q-23 0 -23 12q0 9 21 14q21 6 30.5 14.5t11.5 17.5t4 34q-2 59 1 240q0 10 -12 12l-30 6q-11 0 -11 16q0 4 7 8.5t18.5 10
t16.5 9.5q12 9 12 17q0 76 28 134q32 69 95 108q58 38 120 38q67 0 108 -39q3 -3 9 0q27 28 65.5 46t77.5 18q34 0 60 -15t27 -39q0 -9 -8 -23t-16 -18q-14 -8 -22 -8q-5 0 -26 18q-41 39 -77 39q-32 0 -59 -40q-17 -24 -27 -92.5t-8 -135.5q0 -7 7 -7h109q10 -4 10 -36
q0 -13 -16 -13q-3 0 -50.5 1t-53.5 1q-2 0 -4.5 -4t-2.5 -7q0 -232 1 -250q1 -27 11.5 -38t49.5 -19q23 -5 23 -18q0 -12 -27 -12q-4 0 -43 2t-54 2q-23 0 -50.5 -2.5t-37.5 -2.5q-9 0 -15.5 4t-6.5 10q0 11 19 15q32 9 40 21t9 48v243q0 9 -5 9zM180 391h171q7 0 7 8
q0 104 42 183q1 1 0.5 5.5t-1.5 5.5q-16 19 -48.5 35.5t-65.5 16.5q-42 0 -75 -44q-38 -48 -38 -198q0 -5 3 -8.5t5 -3.5z" />
    <glyph glyph-name="f_f_i" unicode="ffi" horiz-adv-x="787" 
d="M349 345h-167q-10 0 -10 -22q0 -212 3 -235q3 -27 13 -40t34 -20q27 -7 27 -18q0 -14 -29 -14q-7 0 -45.5 2t-49.5 2q-20 0 -47.5 -2.5t-30.5 -2.5q-24 0 -24 12q0 10 22 17q30 8 37 19.5t9 44.5q0 14 1 113t0 127q0 12 -11 12l-37 2q-11 1 -9 20q1 2 9.5 7t20 11
t16.5 10q12 9 12 17q0 72 29 132q28 64 96 108q60 39 120 39q72 0 111 -37q3 -5 8 0q26 27 67.5 45t80.5 18q73 0 105 -44q9 -12 9 -25q0 -16 -20 -33t-32 -17q-7 0 -38 29q-39 39 -83 40q-33 0 -59 -29q-47 -58 -47 -230q0 -10 8 -10q24 -1 95 -1q82 -1 126 13q20 6 27 6
t7 -85q0 -224 3 -265q1 -15 9.5 -21.5t32.5 -13.5q22 -8 22 -17q0 -12 -24 -12q-11 0 -39 1.5t-41 1.5q-18 0 -47 -2t-39 -2q-20 0 -20 13q0 8 22 16q36 14 37 36q4 84 4 268q0 11 -10 14q-86 8 -167 1q-7 0 -7 -11q0 -214 2 -250q0 -18 1 -23.5t6.5 -14t17 -12.5t34.5 -9
q22 -5 22 -16q0 -12 -26 -12q-4 0 -43 2t-56 2q-19 0 -47.5 -2.5t-39.5 -2.5q-23 0 -23 12q0 9 20 16q32 9 40.5 21.5t8.5 48.5q0 14 1 112.5t1 130.5q0 3 -3 6t-6 3zM183 391h167q8 0 8 8q0 99 45 183q2 4 -1 12q-43 49 -115 49q-43 0 -74 -44q-41 -54 -41 -196
q0 -12 11 -12z" />
    <glyph glyph-name="f_f_l" unicode="ffl" horiz-adv-x="787" 
d="M353 345h-172q-9 0 -9 -22q0 -9 1.5 -122.5t1.5 -118.5q0 -25 10.5 -36t36.5 -19q26 -7 26 -17q0 -14 -28 -14q-7 0 -45.5 2t-49.5 2q-20 0 -47.5 -2t-30.5 -2q-22 0 -22 10q0 12 19 16q30 9 37.5 21t9.5 45q-2 59 1 240q0 10 -12 12q-5 1 -33 6q-9 0 -9 16q0 3 7.5 7.5
t19 9.5t16.5 9q12 9 12 17q0 70 30 136q31 67 96 109q57 37 119 37q69 0 104 -35q5 -4 9 0q61 59 129 59q33 0 69 -18q7 -2 11 0q23 16 36 16q9 0 9 -16l-1 -63q-1 -64 -2 -145.5t-1 -126.5q-2 -228 1 -287q1 -19 9.5 -29t33.5 -16q21 -5 21 -13q0 -15 -22 -15q-10 0 -42 1
t-44 1q-21 1 -44.5 -1t-26.5 -2q-28 0 -28 13q0 10 21 16q23 7 30 18t9 33q3 56 3 255q0 12 -5 12q-30 1 -83.5 1t-88.5 1q-6 0 -6 -13q0 -232 1 -250q1 -29 10 -39.5t50 -19.5q22 -5 22 -17q0 -11 -26 -11q-4 0 -43.5 2t-56.5 2q-18 0 -46 -2t-39 -2q-9 0 -16.5 4t-7.5 9
q0 9 21 16q33 9 41 20.5t9 47.5v243q0 9 -5 9zM184 391h169q5 0 5 8q0 105 43 185q2 3 -1 11q-39 49 -115 49q-42 0 -73 -44q-40 -51 -40 -197q0 -12 12 -12zM538 663q-42 0 -66 -41q-33 -54 -33 -223q0 -7 9 -7h4h12.5t18 -0.5t22.5 -0.5h24.5h25t23 0.5t20 1t14.5 0.5
q10 2 10 12q-1 10 -2 80.5t-1 85.5q-1 48 -12 60q-27 32 -69 32z" />
    <glyph glyph-name="longs_t" unicode="&#x17f;t" horiz-adv-x="588" 
d="M80 340l-32 3q-9 0 -9 13q0 2 7 7.5t19 13.5t18 13q10 8 10 22q0 143 94 222q61 48 116 48q61 0 92 -33t31 -84v-160q0 -2 4 -6.5t7 -4.5h35t46.5 0.5t22.5 0.5q14 0 16 -12v-2q0 -2 0.5 -6l1 -8t0.5 -9v-8q0 -11 -25 -11q-2 0 -48 0.5t-49 0.5q-11 0 -11 -13v-202
q0 -34 17 -53q21 -25 51 -25q14 0 30 6t21 11q9 8 14 8q8 0 8 -17q0 -4 -8.5 -15t-14.5 -16q-38 -36 -93 -36q-29 0 -55 15t-37 33q-14 24 -14 66q0 19 1.5 116.5t1.5 114.5q0 2 -2 3.5t-7.5 2t-10.5 1t-14.5 1.5t-16.5 2q-12 0 -12 12q0 5 6 10q8 5 25 13.5t20 10.5
q10 9 11 23q5 45 5 144q0 38 -21 59q-22 22 -64 22q-95 0 -96 -211q0 -29 1 -166t1 -186q0 -25 8 -34t37 -15q23 -5 23 -14q0 -14 -24 -14q-7 0 -42 1.5t-51 1.5q-23 0 -46.5 -1.5t-27.5 -1.5q-22 0 -22 13q0 6 18 12q30 8 36.5 20t7.5 48q2 80 2 241q0 9 -12 9z" />
    <glyph glyph-name="T_h" unicode="Th" horiz-adv-x="1053" 
d="M338 641q208 0 219 1q55 0 79 6q22 5 33 14q27 23 38 23q10 0 10 -11q-1 -11 -4 -33t-5.5 -48t-3.5 -56q-6 -133 -3 -183q0 -3 2 -5.5t5 -0.5q62 57 124 57q71 0 105 -47q29 -39 29 -108l4 -184q0 -18 9 -26t30 -13q29 -7 29 -17q0 -13 -28 -13q-17 0 -40.5 1.5
t-39.5 1.5q-12 0 -36.5 -1t-40.5 -1q-20 0 -20 12q0 8 20 15q19 5 24.5 13t8.5 36q1 9 1 149q0 75 -19 97q-29 31 -76 31t-76 -22q-13 -20 -15 -46q-2 -34 -2 -108.5t1 -100.5q1 -24 9 -33t28 -15q22 -6 22 -15q0 -13 -25 -13q-2 0 -35 1t-49 1q-15 0 -43 -1.5t-36 -1.5
q-24 0 -24 13q0 10 29 18q21 7 29.5 18.5t10.5 36.5q9 120 9 342q0 124 -1 144q-1 13 -7.5 21.5t-11.5 8.5q-17 2 -108 2.5t-113 -2.5q-9 -2 -9 -13q0 -19 -0.5 -104t-0.5 -133q0 -203 5 -253q4 -34 16.5 -47.5t57.5 -22.5q10 -2 18 -8t8 -10q0 -13 -28 -13l-49 3
q-48 2 -72 2q-27 0 -70 -3.5t-46 -3.5q-31 0 -31 11q0 5 6 10.5t13 7.5q49 11 61 29.5t15 77.5q7 210 7 339v119q0 5 -3 9t-6 4q-20 3 -118 3q-49 0 -71 -23q-14 -14 -32 -49q-11 -24 -20 -24q-12 0 -12 22q0 5 10 52.5t10 81.5q0 5 5 11t10 6q1 0 2 -0.5l2 -1t2 -2l2 -3
t3 -3.5l4 -4q20 -20 37 -21q35 -4 228 -4z" />
    <glyph glyph-name="f_b" unicode="fb" horiz-adv-x="785" 
d="M174 104q1 -44 11.5 -56.5t48.5 -21.5q24 -5 24 -14q0 -6 -7 -10.5t-15 -4.5q-15 0 -50.5 1.5t-44.5 1.5q-31 0 -59 -2.5t-35 -2.5q-22 0 -22 11q0 12 23 18q38 9 40 38q4 28 4 261q0 16 -10 17l-36 5q-7 2 -7 11q0 2 0.5 4t2.5 4t4 3.5t6 4t7.5 4t10.5 5t12 6.5
q11 8 11 17q0 65 12 109q25 96 97 153q57 45 120 45q32 0 68 -18q5 -2 9 1q23 15 38 15q9 0 9 -16v-39q-1 -38 -1.5 -94t-0.5 -101q0 -68 1 -81q0 -2 1 -4t2 -2.5t2 -0.5q53 34 111 34q76 0 125 -44q67 -57 67 -153q0 -108 -89 -175q-56 -45 -137 -45q-65 0 -128 20
q-9 4 -21 -3q-5 -3 -12 -3q-8 0 -8 13q7 109 7 332q0 180 -5 234q-3 44 -11 51q-29 32 -72 32q-47 0 -72 -41q-33 -53 -33 -224q0 -8 9 -8q27 0 53.5 0.5t41.5 0.5h15q5 0 9.5 -14t4.5 -29q0 -2 -5.5 -6.5t-9.5 -4.5q-3 0 -52.5 1.5t-55.5 1.5q-9 0 -9 -10q-2 -65 1 -227z
M662 188q0 31 -12.5 67t-35.5 61q-41 43 -106 43q-31 0 -54 -13q-6 -4 -8 -15q-2 -20 -2 -57q0 -83 8 -163q3 -32 22 -52q18 -18 44 -28t42 -10q22 0 57 33q20 20 32.5 59t12.5 75z" />
    <glyph glyph-name="f_f_b" unicode="ffb" horiz-adv-x="1053" 
d="M352 345h-172q-8 0 -8 -22v-246q0 -17 6.5 -26.5t15 -13.5t28.5 -10q23 -6 23 -17q0 -14 -25 -14q-7 0 -45.5 2t-49.5 2q-20 0 -47.5 -2t-30.5 -2q-22 0 -22 11t20 16q16 5 25 9t13.5 13.5t5.5 16.5t2 26q-2 59 1 240q0 10 -12 12l-34 6q-10 0 -10 16q0 4 8 8.5t20 10
t17 9.5q12 9 12 17q0 74 29 134q28 64 94 106q60 40 121 40q66 0 108 -36q5 -3 8 0q60 62 139 62q34 0 68 -18q3 -2 14 3q19 12 29 12t10 -16l-1 -38q0 -39 -0.5 -95.5t-0.5 -101.5q0 -69 1 -82q0 -2 1 -4t2 -2.5t2 -0.5q55 34 112 34q75 0 125 -44q67 -58 67 -152
q0 -109 -89 -176q-57 -45 -138 -45q-25 0 -67 7t-61 14q-8 4 -20 -4q-8 -3 -12 -3q-8 0 -8 13q7 109 7 333q0 179 -4 236q-5 42 -12 51q-28 31 -72 31q-48 0 -72 -41q-31 -55 -31 -225q0 -8 7 -8q27 0 53 0.5t41 0.5h15q5 0 10 -14t5 -29q0 -2 -6 -6.5t-10 -4.5
q-2 0 -53.5 1.5t-57.5 1.5q-7 0 -7 -10q0 -230 1 -248q1 -29 11 -38.5t53 -18.5q12 -3 18 -8.5t6 -9.5q0 -12 -28 -12q-4 0 -44.5 2t-55.5 2q-23 0 -49.5 -2t-36.5 -2q-9 0 -16.5 4t-7.5 9q0 10 21 16q31 9 38.5 20.5t8.5 47.5v243q0 9 -6 9zM930 187q0 31 -12.5 67
t-36.5 61q-41 43 -106 43q-33 0 -53 -13q-8 -3 -8 -14q-2 -10 -2 -57q0 -94 7 -164q3 -33 23 -51q18 -19 43.5 -29t42.5 -10q21 0 56 33q20 20 33 59t13 75zM181 391h170q7 0 7 8q0 104 42 184q1 1 0.5 5t-1.5 6q-43 50 -114 50q-40 0 -74 -44q-39 -51 -39 -197q0 -12 9 -12
z" />
    <glyph glyph-name="f_f_h" unicode="ffh" horiz-adv-x="1058" 
d="M837 405q70 0 102 -42t32 -113q4 -120 4 -184q0 -13 9.5 -22.5t16.5 -12t23 -7.5q19 -7 19 -14q0 -13 -28 -13q-17 0 -40 1.5t-40 1.5q-13 0 -37 -1t-39 -1q-21 0 -21 12q0 8 21 15q19 5 24 13t8 36q1 9 1 141q0 76 -19.5 106t-75.5 30q-47 0 -76 -22q-13 -20 -15 -46
q-2 -34 -2 -108t1 -101q1 -23 11.5 -33t28.5 -16q20 -7 20 -14q0 -13 -26 -13q-3 0 -36 1t-45 1q-14 0 -44 -1.5t-37 -1.5q-24 0 -24 13q0 6 30 18q33 15 38 55q9 120 9 411q0 124 -8 135q-32 37 -84 37q-37 0 -63 -43q-16 -27 -26.5 -95.5t-7.5 -128.5q0 -8 8 -8h107
q11 -5 11 -36q0 -13 -17 -13q-3 0 -49 1t-52 1q-10 0 -10 -13q0 -100 2 -248v-8q0 -18 2 -25t12.5 -13.5t36.5 -11.5q24 -5 24 -17t-28 -12q-15 0 -45 2t-47 2t-46.5 -2t-39.5 -2q-24 0 -24 13q0 10 21 14q32 10 40 21.5t8 47.5q0 37 2 121.5t2 122.5q0 9 -10 9h-168
q-9 0 -9 -24v-221q0 -42 8 -53t43 -21q22 -6 22 -16q0 -14 -25 -14q-16 0 -47 2t-49 2q-19 0 -46.5 -2t-29.5 -2q-9 0 -16.5 4t-7.5 9q0 9 22 14q30 8 36.5 19.5t8.5 47.5v64t0.5 94.5t0.5 79.5q0 7 -5 9.5t-17.5 3.5t-15.5 2q-9 1 -11 6q-5 7 -5 13q0 5 16 14q3 1 10.5 5
t11 6t8.5 5.5t7 7t2 7.5q2 152 109 232q69 48 137 48t107 -37q4 -6 8 0q27 27 66.5 44.5t78.5 17.5q36 0 69 -20q5 -3 12 0q5 2 12.5 5.5t11.5 5.5t6 2q7 0 7 -11q-6 -47 -9 -177t-2 -163q0 -3 2 -5.5t5 -0.5q62 57 124 57zM182 391h167q10 0 10 8q0 104 44 183q1 1 0 5.5
t-2 5.5q-15 20 -47 36t-65 16q-116 0 -116 -242q0 -12 9 -12z" />
    <glyph glyph-name="f_f_j" unicode="ffj" horiz-adv-x="785" 
d="M350 345h-168q-10 0 -10 -22q0 -207 4 -239q2 -29 10.5 -38.5t36.5 -17.5q25 -7 25 -17q0 -6 -8 -10.5t-19 -4.5q-7 0 -46 2t-49 2q-20 0 -48 -3t-31 -3q-23 0 -23 12q0 11 21 16q30 9 36.5 20.5t8.5 45.5q0 11 1 108.5t1 131.5q0 10 -11 12l-34 6q-8 0 -8 16
q0 4 7.5 8.5t18.5 10t16 9.5q12 8 12 17q0 71 29 134q31 67 95 107q58 38 120 38q70 0 109 -39q3 -5 8 0q27 28 67 46.5t80 18.5q73 0 104 -42q8 -12 8 -24q0 -17 -20 -34t-32 -17q-7 0 -38 29q-35 36 -80 38q-30 0 -57 -31q-44 -52 -44 -228q0 -11 16 -11q11 0 39 -0.5
t41 -0.5q96 -1 127 12q20 8 26 8q8 0 8 -19v-355q-3 -112 -44 -183q-33 -56 -92 -102q-30 -24 -43 -24t-21 8q-1 2 -1 5.5t2 4.5q38 22 65 52q54 66 54 239q0 256 -3 290q-2 17 -14 17h-152q-9 0 -9 -19q0 -222 3 -242q0 -4 1 -11t1 -9.5t1.5 -7.5t3 -6.5t4 -5.5t6.5 -5
t10 -3.5t13.5 -4.5t17.5 -4q22 -5 22 -18q0 -12 -26 -12q-4 0 -44.5 2t-57.5 2q-18 0 -45 -2t-38 -2q-9 0 -16.5 4t-7.5 9q0 9 21 16q32 9 39 20t8 48q2 70 2 243q0 3 -3.5 6t-5.5 3zM184 391h166q9 0 9 8q0 101 42 181q1 2 1 5.5t-2 5.5q-40 52 -114 52q-43 0 -74 -43
q-39 -47 -39 -197q0 -12 11 -12z" />
    <glyph glyph-name="f_f_k" unicode="ffk" horiz-adv-x="1032" 
d="M350 345h-169q-9 0 -9 -22q0 -204 4 -244q3 -26 12 -35t35 -17q24 -7 24 -17q0 -14 -26 -14q-7 0 -46 2t-49 2q-20 0 -48 -2.5t-31 -2.5q-22 0 -22 13q0 10 21 15q21 6 30 14.5t11 17t4 33.5v62t0.5 96t0.5 82q0 10 -11 12l-34 6q-9 0 -9 16q0 4 8 8.5t20 10t17 9.5
q10 7 10 17q0 74 29 134q32 70 94 108q57 37 119 37q74 0 110 -36q4 -4 9 0q60 62 136 62q31 0 69 -19q4 -4 13 3q22 13 30 13q9 0 11 -17q-4 -48 -4 -349q0 -105 3 -113q2 -9 7 -9t19 14q84 76 107 108q1 3 2.5 6.5t-5 8t-19.5 6.5q-25 4 -25 15q0 12 21 12h42q37 0 81 6
t56 6q8 0 8 -8t-7.5 -14.5t-12.5 -7.5q-40 -9 -61 -19.5t-57 -34.5q-19 -14 -46.5 -40t-30.5 -32q-3 -5 -1 -9q22 -28 79 -92t81 -88q28 -28 66 -36q24 -7 24 -16q0 -13 -26 -13q-8 0 -54 3t-75 3h-45q-26 0 -26 13q0 9 22 14q28 7 13 27q-6 8 -22 26.5t-41.5 47t-45.5 53.5
q-18 23 -24 23q-5 0 -5 -8q-4 -9 -3.5 -62.5t4.5 -73.5q3 -15 10 -22t27 -12q21 -6 21 -15q0 -12 -24 -12q-12 0 -43 1t-43 1q-19 0 -47.5 -2t-37.5 -2q-23 0 -23 12q0 8 24 15q28 7 37 15.5t12 28.5q7 44 7 306q0 165 -3 208q-4 43 -12 51q-27 32 -70 32q-49 0 -73 -41
q-33 -59 -33 -224q0 -8 7 -8q27 0 53 0.5t41 0.5h16q5 0 9.5 -14t4.5 -29q0 -2 -5.5 -6.5t-9.5 -4.5q-3 0 -52 1.5t-55 1.5q-4 0 -7.5 -3t-3.5 -7q0 -230 1 -248q0 -29 11 -40.5t50 -20.5q20 -4 20 -14q0 -12 -23 -12q-4 0 -44.5 2t-57.5 2q-18 0 -45 -2.5t-38 -2.5
q-26 0 -26 14q0 10 23 15q32 9 38.5 20.5t7.5 48.5q3 108 3 243q0 3 -3.5 6t-5.5 3zM184 391h166q9 0 9 8q0 103 42 182q1 1 0.5 5.5t-1.5 6.5q-43 50 -113 50q-45 0 -77 -43q-37 -47 -37 -197q0 -12 11 -12z" />
    <glyph glyph-name="f_f_t" unicode="fft" horiz-adv-x="823" 
d="M349 344h-167q-10 0 -10 -22q0 -197 1 -226q1 -38 9 -49t40 -20q26 -7 26 -17q0 -14 -28 -14q-11 0 -46 2t-50 2q-19 0 -47 -2t-30 -2q-23 0 -23 13q0 9 21 14q24 7 32.5 16.5t10.5 28.5q3 27 4 70t0.5 104t-0.5 88q0 11 -39 15q-8 2 -11 5t-3 13q0 3 5 6.5t16.5 9.5
t17.5 10q15 7 15 17q0 154 111 235q72 46 134 46q68 0 108 -38q4 -4 7 1q26 26 67.5 44t76.5 18t61.5 -15t26.5 -39q0 -16 -14 -31t-27 -17q-11 2 -24 13q-49 38 -79 41q-10 2 -19 -1q-24 -5 -46 -42q-15 -26 -25.5 -91.5t-10.5 -130.5q0 -8 9 -8h139q14 0 47 38
q28 32 32 32t9.5 -5t5.5 -8q0 -30 -1 -49q0 -8 8 -8q10 0 39 1t54.5 2t26.5 1q14 0 14 -45q0 -12 -26 -12h-106q-7 0 -10 -42q-1 -25 -1 -179q0 -67 77 -67q23 0 46 14q9 6 15 6q7 0 7 -11q0 -25 -41.5 -48t-81.5 -23q-29 0 -53 14t-36 32q-14 21 -14 67q0 19 2 112.5
t2 110.5q0 11 -5 14q-15 10 -149 6q-10 0 -10 -12q0 -194 3 -249q1 -21 4 -29t15.5 -15.5t42.5 -13.5q20 -4 20 -17q0 -12 -24 -12q-6 0 -46 2t-56 2t-46 -2t-42 -2q-24 0 -24 13q0 9 21 15q32 9 40.5 21t8.5 48q0 12 1 119t1 123q1 3 -2.5 6t-6.5 3zM184 391h165q9 0 9 8
q0 105 43 185q1 1 0.5 4.5t-1.5 5.5q-16 19 -47 35t-64 16q-117 0 -117 -242q0 -12 12 -12z" />
    <glyph glyph-name="f_h" unicode="fh" horiz-adv-x="793" 
d="M446 693q0 -3 -1 -65t-2 -146t-1 -128q0 -3 2 -5.5t5 -0.5q60 57 123 57q72 0 106 -47q29 -39 29 -108l4 -184q0 -18 9 -26t31 -13q27 -7 27 -17q0 -13 -27 -13q-17 0 -40.5 1.5t-39.5 1.5q-12 0 -36 -1t-40 -1q-22 0 -22 12q0 8 21 15q19 5 25 13.5t8 35.5q1 9 1 149
q0 76 -19 97q-29 31 -76 31q-18 0 -36.5 -5t-27.5 -10t-11 -7q-14 -14 -16 -46q-2 -34 -2 -108.5t1 -100.5q1 -24 9.5 -33t27.5 -15q22 -6 22 -15q0 -13 -26 -13q-2 0 -34 1t-49 1q-15 0 -43 -1.5t-36 -1.5q-23 0 -23 13q0 10 28 18q21 7 29 18.5t10 36.5q9 120 9 277
q0 163 -4 220q-4 43 -11 51q-28 31 -73 31q-49 0 -71 -38q-34 -54 -34 -225q0 -8 9 -8q27 0 53.5 0.5t41.5 0.5h15q5 0 9.5 -14t4.5 -29q0 -2 -5.5 -6.5t-9.5 -4.5q-3 0 -52.5 1.5t-55.5 1.5q-9 0 -9 -11q-2 -64 1 -226q1 -44 10.5 -57t40.5 -21q23 -6 23 -14
q0 -6 -6.5 -10.5t-14.5 -4.5q-15 0 -46 1.5t-40 1.5q-31 0 -59 -2t-35 -2q-22 0 -22 11q0 10 23 16q38 9 40 42q1 7 4 258q0 16 -10 17q-6 1 -19 3t-17 2q-6 2 -6 7q0 8 6.5 14t19.5 13t15 8q11 8 11 17q2 74 12 110q27 95 95 151q59 46 120 46q36 0 70 -18q7 -3 13 1
q25 15 35 15q9 0 9 -16z" />
    <glyph glyph-name="f_i" unicode="fi" horiz-adv-x="521" 
d="M186 392q15 -1 90 -1q82 -1 126 13q20 6 31 6q1 0 2 -1.5t1.5 -5.5t1 -8.5t0.5 -12t-0.5 -15t-0.5 -19.5v-23q0 -237 2 -264q1 -15 9.5 -21.5t32.5 -13.5q14 -5 18 -8t4 -9q0 -12 -24 -12q-11 0 -38.5 1.5t-40.5 1.5q-18 0 -47 -2t-39 -2q-20 0 -20 12q0 7 22 17
q35 14 36 36q4 84 4 267q0 4 -4.5 9t-7.5 6q-78 7 -162 0q-2 0 -6 -4t-4 -9q0 -200 3 -254q2 -24 10 -32.5t41 -18.5q21 -7 21 -16q0 -12 -22 -12q-7 0 -41.5 1.5t-52.5 1.5q-20 0 -50.5 -2.5t-34.5 -2.5q-20 0 -20 12q0 10 20 15q25 7 32.5 16t10.5 35q2 22 2 254
q0 3 -3.5 7.5t-6.5 5.5l-36 4q-4 0 -6.5 4t-1.5 7q1 11 45 34q10 8 10 14q0 86 28 149q34 73 89 113q60 47 129 47q72 0 106 -44q9 -12 9 -25q0 -16 -20 -33t-32 -17q-9 0 -39 30q-38 38 -84 38q-36 0 -60 -28q-45 -53 -45 -231q0 -3 4 -6.5t9 -3.5z" />
    <glyph glyph-name="f_j" unicode="fj" horiz-adv-x="501" 
d="M332 344q-76 1 -150 0q-10 0 -10 -19q0 -225 2 -260q1 -15 10.5 -23t32.5 -15q22 -7 22 -17q0 -13 -23 -13q-7 0 -37.5 1.5t-48.5 1.5q-20 0 -49.5 -2t-33.5 -2q-20 0 -20 14q0 11 19 16q25 7 32.5 15.5t10.5 31.5q2 22 2 254q2 12 -10 13l-34 4q-4 0 -7.5 4t-3.5 7
q0 7 8.5 13t37.5 21q10 6 10 11q6 103 28 152q33 70 90 113q62 47 125 47q71 0 103 -43q9 -13 9 -24q0 -16 -20.5 -33.5t-32.5 -17.5q-8 0 -38 30q-35 37 -81 37q-31 0 -55 -28q-47 -55 -47 -231q0 -7 3 -8.5t12 -1.5q51 -1 78 -1q66 -1 90 1.5t39 10.5q13 8 25 8
q10 0 10 -19v-355q-3 -113 -45 -183q-34 -58 -92 -102q-30 -24 -42 -24q-13 0 -21 8q-1 2 -1 5.5t2 4.5q39 23 65 52q53 64 53 239q0 256 -2 290q-3 17 -15 17z" />
    <glyph glyph-name="f_k" unicode="fk" horiz-adv-x="765" 
d="M443 354q0 -117 2 -124q3 -9 7 -9q5 0 19 14q77 68 106 108q12 15 -21 21q-25 4 -25 15q0 12 21 12h42q36 0 81 6t57 6q7 0 7 -8t-7.5 -14.5t-12.5 -7.5q-40 -9 -61 -19.5t-57 -34.5q-19 -14 -46 -39.5t-31 -32.5q-1 -3 -1 -9q24 -29 80 -92.5t79 -87.5q29 -28 67 -36
q24 -8 24 -16q0 -13 -25 -13q-8 0 -54 3t-76 3h-46q-24 0 -24 13q0 9 21 14q30 7 13 27q-6 8 -22 26.5t-42 47.5t-46 53q-16 23 -23 23q-1 0 -5 -8q-3 -9 -3 -62.5t4 -73.5q3 -15 10 -22t27 -12q21 -6 21 -15q0 -12 -25 -12q-12 0 -42 1t-43 1q-19 0 -48 -2t-37 -2
q-25 0 -25 12q0 7 25 15q28 7 37 15.5t13 28.5q7 44 7 284q0 157 -5 229q-4 46 -11 53q-27 29 -72 29q-47 0 -72 -39q-33 -56 -33 -224q0 -8 9 -8q27 0 53 0.5t41 0.5h15q5 0 9.5 -14t4.5 -29q0 -2 -5.5 -6.5t-9.5 -4.5q-3 0 -52 1.5t-55 1.5q-4 0 -7 -3.5t-3 -7.5
q-2 -64 1 -226q1 -45 8.5 -57.5t35.5 -20.5q24 -6 24 -14q0 -6 -7 -10.5t-14 -4.5q-15 0 -42.5 1.5t-36.5 1.5q-31 0 -59.5 -2t-34.5 -2q-22 0 -22 11q0 10 22 16q37 9 41 42q3 20 3 258q0 16 -10 17l-35 5q-6 2 -6 7q0 6 5 11.5t10.5 9t14 8t11.5 6.5q11 8 11 17
q0 66 12 108q26 97 97 155q59 44 122 44q32 0 70 -19q6 -2 13 3q26 14 31 14q9 0 9 -16l-1 -65q-1 -64 -1.5 -146.5t-0.5 -127.5z" />
    <glyph glyph-name="f_l" unicode="fl" horiz-adv-x="523" 
d="M324 711q24 0 60 -18q6 -3 17 3q18 13 31 13q8 0 8 -16l-1 -63q-1 -64 -1.5 -145.5t-0.5 -126.5q-2 -228 1 -287q1 -19 9 -29t33 -16q21 -5 21 -13q0 -15 -22 -15q-10 0 -41.5 1t-41.5 1q-22 1 -46.5 -1t-26.5 -2q-28 0 -28 13q0 9 21 15q22 6 29 18t9 34q3 56 3 253
q0 13 -8 13q-36 3 -167 3q-10 0 -10 -13q-1 -20 0 -107t2 -122q1 -45 9 -57.5t38 -19.5q23 -7 23 -15q0 -6 -8 -10.5t-16 -4.5q-15 0 -42.5 1.5t-36.5 1.5q-31 0 -59.5 -2t-34.5 -2q-22 0 -22 11q0 10 22 16q37 9 41 42q3 20 3 258q0 16 -10 17l-37 4q-6 2 -6 7q0 6 5.5 12
t11 9.5t14.5 8t12 6.5q11 8 11 17q0 48 12 101q24 103 96 162q57 44 124 44zM272 662q-44 0 -68 -39q-31 -50 -31 -224q0 -7 10 -7h5h11.5t18 -0.5t22.5 -0.5h24.5h25h23t20 0.5t15.5 0.5q9 2 9 12l-5 167q-2 51 -9 60q-29 31 -71 31z" />
    <glyph glyph-name="f_t" unicode="ft" horiz-adv-x="580" 
d="M424 391q10 0 39 0.5t55 1t27 0.5q8 0 10 -11q4 -8 4 -31q0 -11 -26 -11h-108q-7 0 -7 -11q-2 -34 -2 -212q0 -68 75 -68q11 0 37 10.5t27 10.5q6 0 6 -11q0 -25 -41.5 -48t-80.5 -23q-30 0 -54.5 14t-35.5 32q-14 20 -14 67q0 19 2 114t2 112q0 16 -9 16q-3 0 -73.5 0.5
t-76.5 0.5q-2 0 -4.5 -3.5t-2.5 -5.5q-1 -14 0 -126.5t3 -129.5q3 -27 14.5 -36.5t50.5 -16.5q24 -4 24 -16t-27 -12q-4 0 -15.5 0.5t-32 1t-40.5 0.5q-22 0 -60 -2.5t-40 -2.5q-25 0 -25 12q0 9 21 15q31 9 37 20t7 48q3 123 3 217q0 36 -10 36l-42 -2q-4 0 -7.5 5.5
t-1.5 10.5l15 9q15 10 30.5 22t15.5 18q3 94 27 148q28 64 84 111t122 47q32 0 58 -14.5t26 -39.5q0 -20 -15 -33.5t-33 -13.5q-3 0 -37 27t-62 27q-24 0 -45 -22q-25 -31 -35 -81.5t-10 -161.5q0 -9 7 -9q24 0 58 0.5t60 0.5h29q9 0 14 4t19.5 20.5t27.5 30t16 13.5
q4 0 9.5 -5t5.5 -7l-1 -49q0 -8 6 -8z" />
    <glyph glyph-name="longs_b" unicode="&#x17f;b" horiz-adv-x="766" 
d="M429 698q0 -12 -3 -315q0 -5 2.5 -8t4.5 -1q58 31 113 31q74 0 123 -44q66 -56 66 -153q0 -107 -90 -175q-52 -42 -136 -45q-56 -2 -131 20q-7 3 -18 -3q-4 -3 -10 -3q-8 0 -8 13q5 190 5 332q0 217 -2 251q0 28 -14 39q-21 23 -56 23q-46 0 -70 -40q-30 -49 -32 -224
q0 -240 2 -296q1 -40 8 -52t37 -20q26 -6 26 -16q0 -6 -8.5 -10.5t-17.5 -4.5q-12 0 -39 1.5t-37 1.5q-24 0 -46 -1t-35 -2.5t-15 -1.5q-7 0 -14 3.5t-7 8.5q0 11 21 17q23 6 31 15.5t10 26.5q3 27 3 257q0 15 -10 16l-34 6q-7 2 -7 8q0 5 4.5 10t9.5 9t14 9.5t12 7.5
q12 9 12 15q0 75 18 118q28 87 87 136q60 49 123 49q36 0 60 -13q6 -4 14 5q18 18 25 18q9 0 9 -19zM644 188q0 74 -43 123q-40 47 -108 47q-35 0 -57 -12q-8 -5 -8 -15q-2 -10 -2 -55q0 -117 5 -167q3 -34 28 -59q29 -28 69 -28q35 0 66 28q50 46 50 138z" />
    <glyph glyph-name="longs_h" unicode="&#x17f;h" horiz-adv-x="773" 
d="M92 323q0 15 -10 16q-1 0 -6.5 1t-14 2.5t-13.5 2.5q-7 2 -7 8q0 5 4.5 10t9.5 9t14 9.5t12 7.5q12 9 12 15q0 77 18 120q28 85 87 135t123 50q38 0 60 -14q8 -3 18 12q11 15 21 15q9 0 9 -18q0 -10 -1 -72.5t-2.5 -142t-1.5 -122.5q0 -6 2.5 -8.5t5.5 -0.5q63 47 123 47
q71 0 105 -47q29 -39 29 -108q1 -63 1 -184q1 -18 10.5 -25.5t31.5 -13.5q26 -5 26 -16q0 -14 -26 -14q-17 0 -41.5 1.5t-39.5 1.5q-12 0 -36.5 -1.5t-40.5 -1.5q-22 0 -22 15q0 9 20 14q18 5 25.5 14.5t9.5 33.5q3 28 3 157q0 69 -23 92q-25 28 -75 28q-35 0 -77 -18
q-11 -6 -11 -18q-2 -43 -2 -129.5t1 -112.5q1 -23 8 -31t26 -14q21 -6 21 -17q0 -14 -22 -14q-1 0 -34 1.5t-50 1.5q-14 0 -40.5 -1.5t-34.5 -1.5q-23 0 -23 13q0 11 28 20q20 6 28 17t10 36q7 93 7 290v217q0 35 -16 49q-23 23 -56 23q-45 0 -71 -43q-29 -47 -31 -223
q0 -240 2 -296q1 -44 7.5 -55t35.5 -17q21 -4 21 -14q0 -6 -6.5 -11t-14.5 -5q-13 0 -38.5 1t-35.5 1q-24 0 -46 -1t-35 -2t-15 -1q-21 0 -21 12q0 10 21 17q23 6 31 15.5t10 26.5q3 26 3 256z" />
    <glyph glyph-name="longs_i" unicode="&#x17f;i" horiz-adv-x="513" 
d="M171 388q0 -138 2 -312q0 -25 9 -34t38 -15q21 -5 21 -17q0 -13 -22 -13q-4 0 -41 1.5t-52 1.5q-20 0 -47 -1.5t-30 -1.5q-21 0 -21 13q0 11 16 15q30 9 37.5 19t8.5 48q2 82 2 240q0 9 -12 9l-33 1q-8 0 -8 13q0 2 41 34q11 9 11 15q0 83 30 147q31 70 90 114
q62 47 128 47q71 0 105 -44q9 -12 9 -25q0 -16 -20.5 -33t-32.5 -17q-8 0 -38 30q-38 38 -83 38q-35 0 -59 -28q-19 -24 -34 -88t-15 -157zM350 205q0 90 -2 114q-3 14 -30 27q-14 6 -14 15q0 12 24 16q18 4 95 28q9 0 9 -11q-3 -48 -3 -201q0 -56 2 -126q0 -15 5.5 -23.5
t11 -11.5t17.5 -7q23 -6 23 -16q0 -12 -21 -12q-2 0 -35.5 1.5t-46.5 1.5q-18 0 -45.5 -1.5t-34.5 -1.5q-23 0 -23 12q0 9 25 16q33 9 38 26q5 22 5 154z" />
    <glyph glyph-name="longs_k" unicode="&#x17f;k" horiz-adv-x="748" 
d="M92 323q0 15 -10 16q-26 4 -34 6q-7 2 -7 8q0 5 4.5 10t9.5 9t14 9.5t12 7.5q12 9 12 15q1 80 18 119q28 87 87 136q60 49 123 49q40 0 60 -14q5 -2 12 6q4 5 14 13t13 8q9 0 9 -18q0 -11 -1 -71t-2 -140t-1 -122q-1 -27 -0.5 -79.5t1.5 -59.5q2 -9 8 -9q13 0 24 13
q24 20 57.5 55t46.5 53q1 3 1 6t-8 7t-21 6q-24 4 -24 17q0 12 20 12h49q38 0 76.5 4t51.5 4q17 0 17 -10q0 -13 -21 -18q-45 -9 -62.5 -17t-50.5 -34q-40 -33 -78 -74q-5 -6 1 -13q76 -96 160 -177q22 -21 67 -30q22 -4 22 -13q0 -17 -27 -17q-9 0 -52.5 2t-74.5 2
q-12 0 -32 -0.5t-22 -0.5q-26 0 -26 14q0 9 20 15q32 8 18 27q-11 14 -28.5 35t-42 48t-37.5 42q-14 20 -26 20q-7 0 -7 -8q-1 -8 -1 -65t2 -68q2 -14 9.5 -19.5t29.5 -13.5q20 -5 20 -15q0 -14 -23 -14q-12 0 -43 1.5t-44 1.5q-19 0 -47.5 -1.5t-36.5 -1.5q-23 0 -23 12
q0 10 22 17q29 7 38 14.5t13 26.5q4 20 6 295v227q0 36 -15 49q-23 23 -57 23q-46 0 -71 -43q-30 -47 -30 -222q0 -268 1 -296q1 -44 8.5 -56t36.5 -17q23 -4 23 -14q0 -6 -9 -11t-17 -5q-13 0 -38 1.5t-35 1.5q-24 0 -46 -1t-35 -2.5t-15 -1.5q-20 0 -20 12t21 17
q39 11 40 42q3 27 3 257z" />
    <glyph glyph-name="longs_l" unicode="&#x17f;l" horiz-adv-x="511" 
d="M92 323q0 15 -10 16q-21 2 -34 6q-7 2 -7 8q0 5 4.5 10t9.5 9t14 9.5t12 7.5q12 9 12 15q1 80 18 119q28 85 87 135t123 50q40 0 60 -14q8 -3 19 13q9 14 20 14q9 0 9 -18q0 -40 -3 -346q0 -202 3 -289q0 -16 9.5 -24.5t38.5 -17.5q21 -6 21 -16q0 -13 -23 -13
q-12 0 -49.5 1.5t-45.5 1.5q-12 0 -41 -1.5t-40 -1.5q-26 0 -26 13q0 10 21 16q32 8 39 18.5t9 49.5q6 63 6 253q0 29 -0.5 113.5t-0.5 128.5q0 36 -15 49q-23 23 -57 23q-46 0 -71 -43q-30 -47 -30 -222q0 -268 1 -296q1 -43 8 -54.5t35 -19.5q24 -6 24 -14
q0 -6 -7.5 -10.5t-16.5 -4.5q-13 0 -38.5 1.5t-35.5 1.5q-24 0 -46 -1t-35 -2.5t-15 -1.5q-8 0 -16 3.5t-8 8.5q0 11 25 17q39 11 40 42q3 27 3 257z" />
    <glyph glyph-name="longs_longs" unicode="&#x17f;&#x17f;" horiz-adv-x="517" 
d="M93 329q0 9 -12 11l-32 4q-10 1 -8 14q1 6 35 27q17 11 17 21q0 92 35 152q31 54 78 86q59 43 120 43q64 0 109 -39q1 -1 4 -0.5t4 1.5q59 63 134 63q35 0 60.5 -17t26.5 -40q0 -20 -18 -32q-11 -9 -26 -9q-7 0 -24 16q-37 32 -68 32q-35 0 -59 -35q-37 -54 -37 -231
q0 -296 1 -309q0 -30 9 -43t36 -18q23 -6 23 -18t-23 -12q-7 0 -43 2t-53 2q-21 0 -46.5 -2t-29.5 -2q-23 0 -23 13q0 9 21 15q29 10 37 22t10 45v64t0.5 95.5t0.5 81.5q0 10 -11 12l-30 5q-12 1 -9 16q1 3 34 24q16 11 16 21q6 116 36 172q6 11 2 15q-49 47 -105 47
q-42 0 -71 -37q-41 -49 -41 -241q0 -278 1 -295q0 -20 10 -28.5t37 -15.5q23 -8 23 -16q0 -15 -24 -15q-8 0 -44 2t-49 2q-23 0 -48 -1.5t-29 -1.5q-23 0 -23 13q0 10 23 15q20 6 28.5 15t10 18t2.5 36q0 14 1 109t1 126z" />
    <glyph glyph-name="longs_longs_i" unicode="&#x17f;&#x17f;i" horiz-adv-x="774" 
d="M328 687q65 0 109 -40q5 -5 9 3q60 62 133 62q34 0 59.5 -16t26.5 -41q0 -21 -17 -32q-13 -9 -26 -9q-6 0 -25 16q-37 32 -67 32q-35 0 -60 -35q-38 -58 -38 -240q0 -288 1 -300q0 -30 9 -42.5t35 -18.5q23 -5 23 -18q0 -12 -23 -12q-7 0 -42.5 2t-52.5 2q-21 0 -47 -2
t-30 -2q-22 0 -22 13q0 8 20 16q29 9 37.5 21t10.5 45v62t0.5 95t0.5 84q0 10 -11 12l-30 5q-12 2 -9 16q0 2 33 24q17 11 17 21q7 116 38 175q4 9 0 13q-46 46 -104 46q-41 0 -71 -38q-42 -50 -42 -229q0 -290 1 -306q0 -20 10 -28.5t37 -15.5q23 -6 23 -15q0 -16 -24 -16
q-8 0 -44 2t-49 2q-23 0 -48.5 -2t-28.5 -2q-24 0 -24 14q0 8 23 15q20 6 28.5 14.5t10.5 18.5t3 36q0 14 1 109t1 126q0 9 -12 11l-32 4q-10 1 -8 14q1 6 35 27q17 11 17 21q0 89 34 148q31 55 80 90q61 43 121 43zM560 358q0 10 23 16q22 5 60.5 19t42.5 15q3 0 6.5 -4.5
t3.5 -6.5q-6 -90 -6 -204q0 -56 2 -126q0 -6 1.5 -10.5t2.5 -8t4.5 -6.5t5 -4.5t7.5 -4t7.5 -3l9 -3t8.5 -2.5q22 -7 22 -17q0 -11 -25 -11q-2 0 -34 1.5t-44 1.5q-18 0 -49 -2t-38 -2q-26 0 -26 12q0 9 24 15q35 11 39 29q4 19 4 114q0 139 -1 142q-5 12 -38 36
q-12 8 -12 14z" />
    <glyph glyph-name="longs_longs_l" unicode="&#x17f;&#x17f;l" horiz-adv-x="766" 
d="M328 687q63 0 107 -38q5 -4 10 1q59 61 135 61q38 0 63 -15q5 -2 10 4q6 7 14.5 13.5t11.5 6.5q9 0 9 -16q0 -3 -0.5 -61.5t-1.5 -145.5t-1 -138q-2 -119 1 -290q0 -17 9 -27t38 -18q23 -5 23 -15q0 -12 -25 -12q-12 0 -44.5 1.5t-40.5 1.5q-14 0 -46.5 -1.5t-41.5 -1.5
q-29 0 -29 12q0 9 22 15q30 6 37.5 20t10.5 52q7 135 5 264v229q0 36 -16 52q-19 22 -54 22q-39 0 -63 -35q-39 -56 -39 -240q0 -283 1 -301q0 -30 9 -42.5t35 -18.5q23 -5 23 -18q0 -12 -23 -12q-7 0 -42.5 2t-52.5 2q-21 0 -48 -2t-31 -2q-20 0 -20 14q0 9 18 14
q30 10 39.5 22t10.5 45q1 15 1 241q0 10 -11 12l-30 5q-12 2 -9 16q0 2 33 24q17 11 17 21q4 108 39 175q4 8 1 13q-42 46 -106 46q-44 0 -72 -38q-41 -49 -41 -228q0 -265 1 -307q0 -20 10.5 -29t37.5 -16q24 -7 24 -16q0 -14 -25 -14q-8 0 -44.5 2t-49.5 2q-23 0 -49.5 -2
t-29.5 -2q-24 0 -24 14q0 8 23 15q28 8 35 20.5t9 48.5q-1 19 0.5 116.5t1.5 118.5q0 9 -12 11l-32 4q-10 2 -8 14q1 4 35 27q17 11 17 21q0 91 35 151q32 55 78 87q59 43 122 43z" />
    <glyph glyph-name="Tcommaaccent_h" unicode="&#x162;h" horiz-adv-x="1053" 
d="M338 641q208 0 219 1q55 0 79 6q22 5 33 14q27 23 38 23q10 0 10 -11q-1 -11 -4 -33t-5.5 -48t-3.5 -56q-6 -133 -3 -183q0 -3 2 -5.5t5 -0.5q62 57 124 57q71 0 105 -47q29 -39 29 -108l4 -184q0 -18 9 -26t30 -13q29 -7 29 -17q0 -13 -28 -13q-17 0 -40.5 1.5
t-39.5 1.5q-12 0 -36.5 -1t-40.5 -1q-20 0 -20 12q0 8 20 15q19 5 24.5 13t8.5 36q1 9 1 149q0 75 -19 97q-29 31 -76 31t-76 -22q-13 -20 -15 -46q-2 -34 -2 -108.5t1 -100.5q1 -24 9 -33t28 -15q22 -6 22 -15q0 -13 -25 -13q-2 0 -35 1t-49 1q-15 0 -43 -1.5t-36 -1.5
q-24 0 -24 13q0 10 29 18q21 7 29.5 18.5t10.5 36.5q9 120 9 342q0 124 -1 144q-1 13 -7.5 21.5t-11.5 8.5q-17 2 -108 2.5t-113 -2.5q-9 -2 -9 -13q0 -19 -0.5 -104t-0.5 -133q0 -203 5 -253q4 -34 16.5 -47.5t57.5 -22.5q10 -2 18 -8t8 -10q0 -13 -28 -13l-49 3
q-48 2 -72 2q-27 0 -70 -3.5t-46 -3.5q-31 0 -31 11q0 5 6 10.5t13 7.5q49 11 61 29.5t15 77.5q7 210 7 339v119q0 5 -3 9t-6 4q-20 3 -118 3q-49 0 -71 -23q-14 -14 -32 -49q-11 -24 -20 -24q-12 0 -12 22q0 5 10 52.5t10 81.5q0 5 5 11t10 6q1 0 2 -0.5l2 -1t2 -2l2 -3
t3 -3.5l4 -4q20 -20 37 -21q35 -4 228 -4zM314 -41q31 0 53 -24t22 -65q0 -55 -41 -84.5t-68 -29.5q-16 0 -16 9t13 15q22 9 40.5 27t18.5 39q0 14 -6.5 20.5t-21.5 11.5q-1 0 -4.5 1t-5.5 2t-6 2.5t-6.5 3t-5.5 3.5t-5 4.5t-4 5.5t-3 7t-1 9q0 22 15 32.5t32 10.5z" />
    <glyph glyph-name="Tcaron_h" unicode="&#x164;h" horiz-adv-x="1053" 
d="M338 641q208 0 219 1q55 0 79 6q22 5 33 14q27 23 38 23q10 0 10 -11q-1 -11 -4 -33t-5.5 -48t-3.5 -56q-6 -133 -3 -183q0 -3 2 -5.5t5 -0.5q62 57 124 57q71 0 105 -47q29 -39 29 -108l4 -184q0 -18 9 -26t30 -13q29 -7 29 -17q0 -13 -28 -13q-17 0 -40.5 1.5
t-39.5 1.5q-12 0 -36.5 -1t-40.5 -1q-20 0 -20 12q0 8 20 15q19 5 24.5 13t8.5 36q1 9 1 149q0 75 -19 97q-29 31 -76 31t-76 -22q-13 -20 -15 -46q-2 -34 -2 -108.5t1 -100.5q1 -24 9 -33t28 -15q22 -6 22 -15q0 -13 -25 -13q-2 0 -35 1t-49 1q-15 0 -43 -1.5t-36 -1.5
q-24 0 -24 13q0 10 29 18q21 7 29.5 18.5t10.5 36.5q9 120 9 342q0 124 -1 144q-1 13 -7.5 21.5t-11.5 8.5q-17 2 -108 2.5t-113 -2.5q-9 -2 -9 -13q0 -19 -0.5 -104t-0.5 -133q0 -203 5 -253q4 -34 16.5 -47.5t57.5 -22.5q10 -2 18 -8t8 -10q0 -13 -28 -13l-49 3
q-48 2 -72 2q-27 0 -70 -3.5t-46 -3.5q-31 0 -31 11q0 5 6 10.5t13 7.5q49 11 61 29.5t15 77.5q7 210 7 339v119q0 5 -3 9t-6 4q-20 3 -118 3q-49 0 -71 -23q-14 -14 -32 -49q-11 -24 -20 -24q-12 0 -12 22q0 5 10 52.5t10 81.5q0 5 5 11t10 6q1 0 2 -0.5l2 -1t2 -2l2 -3
t3 -3.5l4 -4q20 -20 37 -21q35 -4 228 -4zM329 684q-12 0 -42 24q-7 6 -39 33.5t-54 47.5q-7 4 -10.5 11t-0.5 12.5t12 5.5q4 0 9.5 -1.5t12.5 -4t9 -3.5q48 -23 98 -50q10 -4 19 1q14 7 47.5 23.5t47.5 23.5q27 10 31 10q21 0 10 -17q-4 -6 -12 -14q-70 -59 -97 -80
q-25 -22 -41 -22z" />
    <glyph glyph-name="gamma_gamma" unicode="&#x3b3;&#x3b3;" horiz-adv-x="770" 
d="M119 408q39 0 68 -26.5t47 -106.5q15 -71 15 -160q0 -7 8 -2l4 5q65 192 122 250q13 17 37.5 29t38.5 12q90 0 118 -133q18 -85 18 -160q0 -7 7 -1q2 1 3 4q67 133 81 167q28 67 39 127q0 1 3.5 2t7.5 1t6 -2q28 -18 35 -42q5 -20 -7 -47q-8 -18 -45.5 -79.5t-71.5 -127
t-44 -110.5q-5 -25 -5 -29q0 -25 -3.5 -104.5t-5.5 -87.5q-1 -5 -8.5 -11t-11.5 -5q-42 13 -59 49q-9 20 -5 33q16 64 48 165q5 15 6 51t-1 52q-5 31 -13 62t-22 67t-37.5 58.5t-51.5 22.5q-22 0 -38 -12q-39 -28 -77.5 -115t-59.5 -181q-5 -25 -5 -36q-1 -43 -9.5 -129
t-11.5 -97q-1 -5 -10 -11t-13 -5q-40 11 -56 47q-9 20 -5 34q29 110 62 196q12 34 3 108q-5 43 -17.5 82.5t-40.5 74t-65 34.5q-24 0 -45 -13t-30 -25q-6 -7 -10.5 -4t-6.5 13q-5 27 15 54q44 62 99 62z" />
    <glyph glyph-name="lambda_lambda" unicode="&#x3bb;&#x3bb;" horiz-adv-x="762" 
d="M97 677q41 0 67 -31.5t49 -113.5q7 -23 37 -155.5t40 -170.5q36 -138 80 -138q12 -1 23 21q18 32 44 84.5t47 96t24 48.5q20 43 28 54q8 8 4 32q-45 230 -153 230q-51 0 -85 -25q-2 -1 -6 3t-4 7q0 17 13 34q42 58 104 58q44 0 73.5 -33.5t55.5 -116.5q4 -12 49 -204
t58 -229q3 -8 10 -18.5t23 -23t34 -12.5q27 0 48 5q2 1 3 -8q1 -3 1 -4q2 -4 -3 -20q-21 -65 -70 -65q-46 0 -66 71q-49 188 -58 236q-2 7 -6.5 5t-5.5 -6q-3 -10 -56 -131t-62 -134q-18 -40 -52 -40q-20 0 -37 8.5t-26.5 19.5t-19 31t-13.5 32t-10 34q-42 159 -46 183
q-2 6 -6.5 4t-5.5 -6q-2 -8 -50 -128t-52 -126q-23 -54 -35 -54q-29 0 -54 20q-4 3 -7 9.5t-2 9.5q10 25 149 292q21 51 34 64q8 8 4 24q-21 105 -49 153.5t-83 48.5q-33 0 -63 -13q-2 -1 -6.5 2.5t-4.5 6.5q0 14 15 36q31 43 80 43z" />
    <glyph glyph-name=".notdef" horiz-adv-x="500" 
d="M0 0v700h500v-700h-500zM250 395l170 255h-340zM280 350l170 -255v510zM80 50h340l-170 255zM50 605v-510l170 255z" />
    <glyph glyph-name=".null" horiz-adv-x="0" 
 />
    <glyph glyph-name="nonmarkingreturn" horiz-adv-x="333" 
 />
    <glyph glyph-name="space" unicode=" " horiz-adv-x="198" 
 />
    <glyph glyph-name="exclam" unicode="!" horiz-adv-x="290" 
d="M162 612q28 0 43 -27.5t14 -59.5q-1 -23 -17 -149t-20 -147q-6 -36 -21 -36q-7 0 -13.5 11t-7.5 28q-1 5 -9.5 68t-16.5 126.5t-10 98.5q-3 43 16.5 65t41.5 22zM160 120q31 0 47.5 -21t16.5 -44q0 -27 -19 -47t-46 -20q-25 0 -44.5 17.5t-19.5 48.5q0 32 21.5 49
t43.5 17z" />
    <glyph glyph-name="quotedbl" unicode="&#x22;" horiz-adv-x="312" 
d="M111 687q7 0 11 -8t4 -15q0 -59 -28 -182q-8 -31 -24 -31q-11 0 -13 26q-17 141 -18 155q0 13 7 18q2 1 11.5 8.5t16.5 13t16.5 10.5t16.5 5zM259 694q13 0 13 -23q0 -64 -27 -184q-9 -34 -23 -34q-10 0 -15 27q-4 36 -8 69.5t-6 49t-3 28t-1 18.5q0 12 14 21
q38 28 56 28z" />
    <glyph glyph-name="numbersign" unicode="#" horiz-adv-x="489" 
d="M450 432q-8 -36 -18 -36l-76 -3q-4 0 -6 -10l-27 -106q-1 -2 0.5 -4.5t3.5 -1.5l80 3q3 0 5 -9t1 -15q-2 -12 -9.5 -26.5t-14.5 -14.5l-78 -3q-4 0 -7 -7l-43 -168q-1 -6 -10 -10t-17 -4q-5 0 -9.5 3t-2.5 8l41 168q2 9 -3 9l-98 -4q-2 0 -6 -3.5t-4 -4.5l-44 -170
q-3 -11 -24 -11q-5 0 -10 5t-4 8l41 165q3 10 -6 10l-70 -2q-2 0 -4.5 7.5t-2.5 9.5q9 46 22 46l73 4q8 0 9 7l27 106q0 8 -5 8l-81 -2q-7 7 -1 33q2 8 8 18.5t10 11.5l80 4q4 0 6 5l40 153q6 11 29 11q2 0 6 -3.5t4 -5.5l-37 -152q0 -6 3 -6l101 4q5 0 7 8l40 154
q3 10 30 10q1 0 3 -1.5t3.5 -4.5t0.5 -8l-38 -149q-2 -9 2 -9l76 2q7 -13 4 -27zM309 381q2 2 1 6t-4 4l-100 -3q-6 0 -8 -8l-26 -106q-1 -2 1 -5.5t5 -2.5l97 4q6 0 8 8z" />
    <glyph glyph-name="dollar" unicode="$" horiz-adv-x="489" 
d="M258 253l-23 -218q0 -5 4 -5q50 6 84 34.5t34 75.5q0 38 -21.5 64t-71.5 54q-6 0 -6 -5zM238 377l22 203q2 8 -4 8q-48 -2 -78.5 -30.5t-30.5 -77.5q0 -67 85 -107q6 -2 6 4zM266 624l8 66q0 4 6 4q8 0 16.5 -3t8.5 -7l-6 -60q0 -6 4 -6q26 -3 87 -21q9 -3 17 -31
q8 -43 8 -58q0 -27 -10 -27t-17 17q-24 65 -89 87q-3 1 -5 -1.5t-2 -5.5l-22 -219q0 -6 4 -8q89 -43 126 -84t37 -101q0 -73 -74 -127q-17 -14 -55 -25.5t-71 -13.5q-7 0 -7 -9l-10 -75q-5 -9 -19 -7q-6 0 -12 6l8 78q0 7 -4 7q-32 3 -57 10q-11 2 -57 15q-14 3 -18 25
q-3 11 -9 51.5t-6 43.5q0 17 9 17q14 0 38 -43q39 -71 102 -87q6 -1 6 4l25 231q0 7 -3 9q-69 34 -108.5 75.5t-39.5 107.5q0 59 46 105q52 52 141 54q4 0 4 6z" />
    <glyph glyph-name="percent" unicode="%" horiz-adv-x="725" 
d="M186 630q66 0 103 -55.5t37 -117.5q0 -75 -37.5 -130.5t-107.5 -55.5t-105 53.5t-35 121.5q0 76 37 130t108 54zM191 298q19 0 32 15t19 40t8.5 47.5t2.5 46.5q0 22 -3.5 45.5t-11 50t-24 43.5t-38.5 17q-19 0 -32.5 -15t-19.5 -39t-8.5 -46t-2.5 -45q0 -32 6.5 -66
t25 -64t46.5 -30zM559 642q9 0 17 -8t7 -12q-397 -628 -412 -651q-3 -2 -10 -0.5t-10 3.5q-13 11 -5 24q77 124 220.5 350.5t177.5 280.5q6 13 15 13zM544 345q66 0 102.5 -55.5t36.5 -117.5q0 -76 -36.5 -131t-108.5 -55q-69 0 -104.5 53t-35.5 121q0 76 37.5 130.5
t108.5 54.5zM549 12q19 0 32 16t19 42t8 48t2 43q0 31 -5.5 63.5t-24 63t-46.5 30.5q-25 0 -40.5 -27t-20 -56.5t-4.5 -61.5q0 -53 20.5 -107t59.5 -54z" />
    <glyph glyph-name="ampersand" unicode="&#x26;" horiz-adv-x="773" 
d="M271 612q58 -1 95.5 -40.5t37.5 -84.5q0 -14 -5 -27t-10 -21.5t-19 -19.5t-19.5 -14.5t-23.5 -14.5t-20 -12q-4 -5 0 -7q29 -18 78 -65.5t84 -89.5q6 -8 14 0q30 30 101 134q12 19 12 31q0 14 -44 22q-18 3 -18 12q-1 4 6.5 9t17.5 5q86 0 104 2q69 9 70 9q23 0 23 -10
t-22 -16q-36 -11 -60 -29t-59 -56q-16 -17 -61 -71t-58 -69q-4 -9 -1 -12l53 -77q36 -51 111 -53q37 0 73 22q5 3 8 0.5t3 -6.5q0 -13 -18 -32q-49 -48 -137 -48q-37 0 -65 11q-26 10 -41 38q-35 63 -47 80q-5 2 -6 0q-62 -74 -112 -103q-45 -28 -96 -28q-75 1 -126.5 51.5
t-51.5 126.5q0 83 91 149q29 24 58 41q5 3 1 7q-66 54 -66 115t49 104q45 39 96 37zM268 51q35 0 74 24.5t65 58.5q5 9 -4 21q-34 47 -95 106t-82 70q-10 7 -21 -2q-80 -63 -80 -142q0 -58 45 -98q45 -38 98 -38zM256 583q-18 0 -38.5 -20t-20.5 -60q0 -31 24 -62t55 -49
q7 -5 14 0q11 7 26 26q17 22 17 68q0 31 -19 63.5t-58 33.5z" />
    <glyph glyph-name="quotesingle" unicode="'" horiz-adv-x="179" 
d="M118 691q15 0 15 -24q1 -27 -8.5 -84t-19.5 -96q-2 -9 -9.5 -21t-14.5 -12q-6 0 -11 9t-6 19q-9 105 -20 155q0 10 7 16q12 11 33.5 24.5t33.5 13.5z" />
    <glyph glyph-name="parenleft" unicode="(" horiz-adv-x="339" 
d="M131 283q0 -70 7 -126.5t16.5 -95t32.5 -82.5t41 -71.5t56 -80.5q9 -11 1 -20q-14 -12 -25 -12q-13 0 -30 18q-156 180 -156 447q0 145 51.5 266.5t119.5 192.5q18 18 29 18q10 0 18 -4.5t8 -9.5q0 -8 -10 -18q-72 -69 -115.5 -184.5t-43.5 -237.5z" />
    <glyph glyph-name="parenright" unicode=")" horiz-adv-x="339" 
d="M208 248q0 155 -37 251.5t-119 200.5q-7 9 2 20q10 12 25 12q17 0 33 -19q152 -183 152 -442q0 -143 -52 -263t-119 -190q-19 -19 -29 -19q-14 0 -20 11q-3 6 7 19q71 75 114 187t43 232z" />
    <glyph glyph-name="asterisk" unicode="*" horiz-adv-x="326" 
d="M149 653q4 1 7.5 -3.5t6.5 -11.5q5 -11 21 -91q3 -5 8 -1q47 32 73 42q6 3 14.5 2t8.5 -7t-10 -19q-20 -20 -66 -53q-4 -4 1 -8q56 -32 78 -49q13 -10 13 -17q0 -14 -24 -8q-33 8 -84 33q-2 1 -3.5 -1t-1.5 -5q1 -29 1 -75q0 -30 -13 -30q-12 0 -19 20q-9 36 -14 83
q-2 7 -7 5q-51 -31 -79 -40q-10 -3 -17 -1.5t-7 6.5q0 11 11 20q22 18 67 48q6 6 -1 9q-37 18 -71 41q-11 8 -11 17q0 15 23 8q19 -6 80 -30q2 -1 3.5 1t1.5 4q-3 72 -1 92q3 17 11 19z" />
    <glyph glyph-name="plus" unicode="+" horiz-adv-x="624" 
d="M283 499q0 5 17.5 9.5t30.5 4.5q6 0 10.5 -4t4.5 -7l-3 -216q0 -6 5 -6l206 2q3 0 6 -4.5t3 -9.5q0 -17 -4.5 -28.5t-9.5 -11.5l-200 -3q-6 0 -6 -9l-2 -215q0 -6 -13.5 -11t-31.5 -5q-5 0 -9 4t-4 8l-1 218q0 10 -6 10l-196 1q-20 0 -20 24q0 10 4.5 20.5t10.5 10.5
l201 -1q6 0 6 7z" />
    <glyph glyph-name="comma" unicode="," horiz-adv-x="212" 
d="M94 118q32 0 55.5 -26t23.5 -70q0 -60 -46 -95t-74 -35q-18 0 -18 10q0 9 18 17q61 36 61 74q0 24 -32 33l-4 2q-3 1 -4 1.5t-4.5 2t-5.5 2.5t-5 3.5t-5 4.5t-4.5 5t-3.5 6.5t-2 7.5t-1 8q0 24 16 36.5t35 12.5z" />
    <glyph glyph-name="hyphen" unicode="-" horiz-adv-x="296" 
d="M54 232q23 4 63 8t81 8.5t51 5.5q2 0 5.5 -4t3.5 -7q1 -16 -4.5 -33.5t-14.5 -18.5q-20 -2 -93.5 -9l-94.5 -9q-6 -1 -10.5 4t-4.5 10q0 18 6 31t12 14z" />
    <glyph glyph-name="period" unicode="." horiz-adv-x="212" 
d="M106 109q30 0 44.5 -20t14.5 -41q-1 -26 -17.5 -43.5t-41.5 -17.5q-23 0 -40.5 15.5t-17.5 45.5t19.5 45.5t38.5 15.5z" />
    <glyph glyph-name="slash" unicode="/" horiz-adv-x="405" 
d="M45 -48q27 68 123.5 313.5t147.5 379.5q9 16 16 16q12 0 25 -5q11 -4 7 -15q-48 -125 -140 -356t-132 -334q-9 -20 -20 -17q-5 0 -12 2t-8 2q-10 6 -7 14z" />
    <glyph glyph-name="zero" unicode="0" horiz-adv-x="489" 
d="M251 630q56 0 98 -32.5t63.5 -83.5t31 -100.5t9.5 -95.5q0 -113 -34 -192.5t-81 -109.5q-45 -30 -93 -28q-55 1 -97 32t-65 80t-34.5 101t-11.5 103q0 114 34 189.5t87 109.5q43 27 93 27zM235 600q-34 0 -59 -40q-48 -73 -48 -241q0 -68 11.5 -133t42.5 -117.5t76 -52.5
q35 0 62 45q38 73 38 250q0 111 -23.5 181t-49.5 89t-50 19z" />
    <glyph glyph-name="one" unicode="1" horiz-adv-x="489" 
d="M105 6q0 12 33 19q38 9 51 21.5t17 43.5q7 75 7 291q0 128 -4 148q-4 17 -21 20q-8 2 -24 4.5t-21 3.5q-20 6 -20 15q0 11 21 15q9 2 29 6t31 7t25.5 7.5t24.5 10.5q37 17 40 18q4 1 7 -2.5t3 -7.5q0 -2 -1.5 -38.5t-1.5 -79.5q0 -271 1 -389q0 -53 9.5 -67.5t55.5 -25.5
q25 -6 25 -19q0 -11 -24 -11q-11 0 -47 2t-53 2q-36 0 -86 -2.5t-51 -2.5q-26 0 -26 11z" />
    <glyph glyph-name="two" unicode="2" horiz-adv-x="489" 
d="M54 -3q-5 -1 -12.5 3t-8.5 9q-3 9 13 23q51 47 159 182q100 129 100 221q0 61 -32 91.5t-80 30.5q-70 0 -123 -61q-16 -21 -21 -21q-2 0 -6.5 5.5t-4.5 9.5q0 12 14 33q71 107 181 107q69 0 116 -50t47 -121q0 -80 -80 -175q-110 -126 -181 -202q-5 -5 3 -8
q31 -2 118.5 -2t110.5 4q38 5 68 38q13 17 20 17q8 0 9.5 -9.5t-5.5 -23.5q-28 -58 -33 -93q-3 -9 -15 -9q-1 0 -55.5 1t-117 2t-82.5 1q-51 0 -102 -3z" />
    <glyph glyph-name="three" unicode="3" horiz-adv-x="489" 
d="M241 630q65 0 103 -41t38 -84q0 -47 -35 -85q-26 -26 -61 -49q-5 -7 3 -10q87 -19 122 -64q28 -37 28 -92q0 -61 -39 -118.5t-105 -96.5q-71 -42 -152 -42q-41 0 -71 15t-30 36q0 7 8 23q14 19 29 19q9 0 24 -13q45 -38 102 -38q44 0 79 28q32 24 48 62.5t16 72.5
q0 70 -36 109q-31 34 -89 34q-37 0 -78 -16q-4 -1 -6 1.5t-2 6.5q2 15 17 26q14 10 48 28q52 25 73.5 55t21.5 69q0 42 -29 71t-68 29q-64 0 -109 -56q-14 -18 -22 -18q-9 0 -9 14q0 10 16.5 33.5t40.5 43.5q52 47 124 47z" />
    <glyph glyph-name="four" unicode="4" horiz-adv-x="489" 
d="M380 445v-197q0 -8 4 -8l89 2q8 0 8 -9t-6 -23t-12 -17l-77 1q-6 0 -6 -7q0 -4 -0.5 -21.5t-0.5 -31.5v-29q2 -48 10.5 -60.5t42.5 -20.5q22 -5 22 -15q0 -13 -23 -13q-12 -1 -47.5 1.5t-49.5 2.5q-18 0 -54 -2.5t-53 -2.5q-26 0 -26 13q0 12 27 17q20 4 31 8t17 14.5
t7 17t3 27.5q1 7 1 10q3 32 3 79q0 11 -6 12q-18 2 -124.5 1.5t-134.5 -3.5q-7 -1 -12.5 2t-5.5 7q0 8 26 43l320 440q10 14 19 14h12q14 0 14 -8q0 -6 -4 -11l-316 -427q-5 -6 2 -8q26 -3 105 -3.5t101 0.5q5 0 5 7l1 189q0 9 9 16q9 6 32.5 12.5t35.5 6.5q11 0 11 -26z
" />
    <glyph glyph-name="five" unicode="5" horiz-adv-x="489" 
d="M426 194q0 -103 -90 -175q-44 -37 -110.5 -57.5t-113.5 -20.5q-18 0 -22 1q-16 1 -16 9q0 3 7 11t13 9q99 9 172 59.5t73 134.5q0 46 -26.5 83.5t-73.5 57.5q-84 34 -161 48q-4 1 -9 10.5t-5 14.5q0 21 18 82.5t33 97.5q16 33 23 34q20 8 108.5 22t134.5 14q1 0 4.5 -3.5
t3.5 -5.5q0 -26 -20.5 -54t-32.5 -30q-99 -9 -192 -14q-3 0 -7.5 -3.5t-5.5 -5.5q-18 -54 -19 -60q-2 -11 7 -13q47 -10 110.5 -33.5t92.5 -40.5q104 -62 104 -172z" />
    <glyph glyph-name="six" unicode="6" horiz-adv-x="489" 
d="M315 366q68 0 104.5 -46t36.5 -110q0 -116 -93 -181q-55 -42 -123 -42q-94 0 -148 64t-54 169q0 117 71 224.5t172 171.5q106 68 166 68q21 0 21 -11q0 -6 -19 -15q-92 -40 -169 -110q-67 -61 -108.5 -146.5t-41.5 -172.5q0 -81 40.5 -142t105.5 -61q29 0 53 17
q48 35 48 117q0 66 -32 103t-83 37q-28 0 -70 -21q-3 -1 -6 1.5t-3 6.5q0 12 11 24q21 21 58 37q34 18 63 18z" />
    <glyph glyph-name="seven" unicode="7" horiz-adv-x="489" 
d="M239 617q66 -1 164 3q9 0 22.5 0.5t20 1t7.5 0.5q16 0 16 -8q0 -7 -7 -16q-13 -18 -85 -162t-126 -257q-21 -44 -47 -98t-38.5 -80t-15.5 -33q-6 -14 -14 -14q-9 0 -17.5 7t-8.5 13q0 7 11 27q226 444 263 525q1 1 0 4t-3 3q-45 7 -210 7q-42 0 -62 -4q-17 -1 -28.5 -12
t-31.5 -41q-13 -20 -22 -20t-9 13q0 10 11 37q13 34 21 88q3 13 12 22q5 3 13 0q18 -6 164 -6z" />
    <glyph glyph-name="eight" unicode="8" horiz-adv-x="489" 
d="M250 648q73 0 122.5 -42.5t49.5 -107.5q0 -55 -55 -101q-10 -9 -35 -26t-30 -21q-7 -4 -1 -8q131 -96 131 -186q0 -75 -71 -129q-53 -40 -128 -40q-87 0 -135 46.5t-48 103.5q0 29 13 55.5t25 39t32 28.5t62 47q2 2 0 7q-48 33 -76 68q-40 46 -40 103q0 71 55 117
q57 46 129 46zM249 16q46 0 71.5 30.5t25.5 76.5q0 33 -20.5 65.5t-43.5 52.5t-60 47q-11 9 -15 5q-29 -20 -53 -62.5t-24 -82.5q0 -45 33 -90q39 -42 86 -42zM239 620q-39 0 -67 -27t-28 -75q0 -46 31 -80.5t89 -73.5q7 -4 12 -1q28 21 43 45q27 50 27 95q0 32 -28.5 74.5
t-78.5 42.5z" />
    <glyph glyph-name="nine" unicode="9" horiz-adv-x="489" 
d="M253 630q93 0 144 -71t51 -167q0 -107 -71 -224t-175 -181q-74 -46 -123 -46q-6 0 -13 3.5t-7 8.5t12 10q99 48 172 136q49 58 80 136t31 152q0 54 -17 105t-51 78q-26 22 -66 22q-44 0 -73 -38.5t-29 -85.5q0 -70 34.5 -109t91.5 -39q19 0 55 15q11 4 11 -5q0 -7 -5 -17
q-4 -11 -18 -22q-20 -17 -49 -27t-50 -10q-66 0 -107.5 46t-41.5 118q0 51 26 101.5t83 82.5q48 28 105 28z" />
    <glyph glyph-name="colon" unicode=":" horiz-adv-x="257" 
d="M130 367q28 0 42 -19.5t14 -40.5q-1 -25 -17.5 -42t-40.5 -17q-22 0 -40 15t-18 46q0 30 20 44t40 14zM130 108q28 0 42 -19.5t14 -40.5q-1 -26 -17.5 -42.5t-40.5 -16.5q-22 0 -40 14.5t-18 45.5q0 30 20 44.5t40 14.5z" />
    <glyph glyph-name="semicolon" unicode=";" horiz-adv-x="257" 
d="M130 366q28 0 42 -19.5t14 -39.5q-1 -26 -17.5 -42.5t-40.5 -16.5q-21 0 -39.5 14t-18.5 45q0 30 20 44.5t40 14.5zM116 113q31 0 53.5 -25t22.5 -69q0 -58 -43.5 -92t-71.5 -34q-18 0 -18 9q0 10 15 17q59 33 59 73q0 21 -24 29q-8 2 -17 6t-18 14.5t-9 23.5
q0 23 16.5 35.5t34.5 12.5z" />
    <glyph glyph-name="less" unicode="&#x3c;" horiz-adv-x="574" 
d="M487 81q2 -3 2 -10t-5.5 -18.5t-13.5 -19.5q-5 -5 -16 0l-328 182q-41 23 -41 32q0 7 6 16q14 17 32 27l324 181q13 8 20 2q11 -11 17.5 -24t-1.5 -22l-307 -165q-7 -7 -1 -11z" />
    <glyph glyph-name="equal" unicode="=" horiz-adv-x="624" 
d="M553 377q10 0 10 -12q0 -45 -10 -45l-480 1q-13 0 -13 15q0 11 4.5 24.5t10.5 13.5zM553 189q3 0 6.5 -5t3.5 -11q0 -17 -4.5 -28t-9.5 -11l-475 1q-6 0 -10 8t-4 15q0 11 4.5 21.5t10.5 10.5z" />
    <glyph glyph-name="greater" unicode="&#x3e;" horiz-adv-x="574" 
d="M487 258q0 -7 -6 -16q-14 -17 -32 -27l-325 -183q-11 -7 -19 1q-11 10 -17.5 23.5t0.5 20.5q60 32 311 168q3 2 2 4.5t-3 3.5l-313 170q-2 3 -2 10.5t5 19.5t13 20q3 2 8.5 2.5t5.5 -0.5q147 -82 331 -186q27 -15 34 -20.5t7 -10.5z" />
    <glyph glyph-name="question" unicode="?" horiz-adv-x="361" 
d="M138 602q40 0 100 -49q18 -14 48.5 -58t30.5 -86q0 -65 -38 -103q-38 -25 -89 -52q-5 -3 -9 -5.5t-5.5 -8t-2 -7.5t-1.5 -10.5t-1 -9.5q-2 -26 -17 -26q-9 0 -19 31q-12 60 -12 77q0 25 22 42t76 41q48 23 47 54q0 36 -14.5 57t-59.5 21q-3 0 -23.5 -3t-30.5 -3
q-14 0 -28.5 19t-14.5 41q0 12 12.5 25t28.5 13zM173 113q30 0 45 -19.5t15 -42.5q0 -27 -17.5 -45.5t-43.5 -18.5q-24 0 -42.5 16.5t-18.5 46.5t20.5 46.5t41.5 16.5z" />
    <glyph glyph-name="at" unicode="@" horiz-adv-x="871" 
d="M492 331q-34 0 -79 -50q-34 -37 -61.5 -88t-27.5 -87q0 -23 15 -23q28 0 79 46q38 33 71 81t50 85q2 5 1 11.5t-3 8.5q-16 16 -45 16zM521 381q25 0 39 -16q1 -2 4 -1.5t4 2.5q10 28 17 40q9 9 18 8q20 0 34 -9q7 -3 4 -13q-94 -235 -105 -298q-8 -41 35 -41q76 0 139 65
t63 164q0 121 -81 193t-206 72q-114 0 -200 -58.5t-128 -149t-42 -195.5q0 -44 11 -86.5t35 -82.5t59 -70t88 -48t116 -18q136 0 239 93q4 4 10 2.5t6 -9.5q0 -14 -13 -29q-45 -50 -119.5 -76t-145.5 -26q-68 0 -129.5 21t-112.5 62t-81 111t-30 160q0 123 64 224t163.5 155
t209.5 54q159 0 245.5 -87t86.5 -211q0 -107 -84 -189t-209 -82q-33 0 -51 10t-18 22q-1 7 6 33l28 77q1 2 -0.5 3.5t-3.5 1.5t-4 -2q-141 -145 -209 -145q-15 0 -25 12.5t-10 30.5q-2 64 95 181q45 55 101 100t87 45z" />
    <glyph glyph-name="A" unicode="A" horiz-adv-x="676" 
d="M354 658q7 0 15 -24t44 -122q83 -231 144 -386q23 -57 40.5 -74t52.5 -27q25 -6 25 -16q0 -14 -33 -14q-14 0 -59.5 2.5t-67.5 2.5q-17 0 -41 -1t-36 -1q-31 0 -31 13q0 12 25 16q21 4 31 12t10 17t-1 20q-5 27 -55 166q-3 11 -31 11q-125 0 -165 -4q-5 0 -11 -9
q-51 -124 -51 -168q0 -28 50 -43q27 -8 27 -19q0 -13 -29 -13q-6 0 -32 1.5t-47 1.5t-59.5 -2.5t-43.5 -2.5q-24 0 -24 11q0 13 23 20q40 13 55.5 26.5t35.5 58.5q13 27 86 215.5t92 234.5l9 25q3 9 7 16l28 43q10 13 17 13zM393 298q4 0 2 9q-60 182 -76 212q-5 9 -9 -1
q-68 -182 -77 -215q-2 -7 6 -7q14 0 74.5 0.5t79.5 1.5z" />
    <glyph glyph-name="B" unicode="B" horiz-adv-x="595" 
d="M508 493q0 -83 -82 -131q-2 -1 -1 -4t3 -4q123 -53 123 -165q0 -93 -82 -148q-33 -23 -84 -34.5t-95 -11.5q-12 0 -79.5 2t-92.5 2q-14 0 -36.5 -0.5t-29.5 -0.5q-30 0 -30 14q0 10 26 15q47 10 59 21t15 40q7 74 7 327q0 135 -6 157q-4 19 -14.5 26.5t-47.5 12.5
q-27 6 -27 17q0 13 27 13h67q16 0 81 3.5t86 3.5q93 0 142 -30q71 -43 71 -125zM416 486q0 60 -38 95t-104 35q-18 0 -42 -8q-2 -1 -6 -7t-5 -9q-5 -40 -5 -220q0 -13 11 -13q35 0 77 7t59 18q53 36 53 102zM449 179q0 43 -22 77t-59 53q-37 20 -102 20q-30 0 -42 -8
q-6 -6 -7 -33q-2 -25 -0.5 -97.5t4.5 -97.5q3 -21 15 -34q14 -15 34.5 -24.5t32.5 -9.5q61 0 103.5 43t42.5 111z" />
    <glyph glyph-name="C" unicode="C" horiz-adv-x="715" 
d="M430 658q50 0 121 -15q13 -2 40 -9.5t35 -8.5q15 -3 15 -30q0 -19 6 -88q2 -34 -15 -34q-9 0 -16 27q-17 55 -42 73q-68 54 -158 54q-116 0 -186.5 -82.5t-70.5 -200.5q0 -98 34 -166q40 -79 109.5 -118t138.5 -39q63 0 106 25q54 30 92 96q15 27 22 27q15 0 9 -33
q-7 -44 -38 -99q-6 -13 -32 -27q-75 -28 -181 -28q-96 0 -172.5 36.5t-113.5 79.5q-84 97 -84 229q0 77 35 142t76 98q110 91 270 91z" />
    <glyph glyph-name="D" unicode="D" horiz-adv-x="756" 
d="M341 649q94 0 165 -29.5t110 -66.5q41 -39 66.5 -100t25.5 -120q0 -99 -49 -176t-110 -112q-95 -55 -237 -55q-83 0 -197 7q-21 1 -56 1q-32 0 -32 15q0 13 23 15q49 6 61 25t14 83q3 72 3 136q0 153 -5 252q-2 52 -11 67t-52 21q-23 4 -23 15q0 14 25 14h33
q21 0 110.5 4t135.5 4zM297 618q-51 0 -65 -9q-9 -6 -10 -13q-4 -30 -4 -187v-145q0 -113 4 -172q3 -27 22 -46q13 -10 38 -18t41 -8q39 0 90 16t89 48q46 39 73.5 104t27.5 144q0 63 -28 125.5t-74 99.5q-35 28 -91.5 44.5t-112.5 16.5z" />
    <glyph glyph-name="E" unicode="E" horiz-adv-x="568" 
d="M228 641h148q71 0 92 4q2 1 5 -3.5t4 -8.5q0 -23 1 -56t1 -41q0 -11 -4.5 -19t-11.5 -8q-11 0 -16 25q-9 37 -24.5 51t-41.5 18q-42 7 -142 5q-2 0 -4.5 -2t-6 -9t-3.5 -18q-1 -18 -3 -113t-1 -113q2 -9 9 -9h67q48 0 66 3.5t26 11.5t18 34q9 22 19 22q12 0 9 -24
q-3 -41 -3 -71q0 -12 0.5 -22.5t1.5 -21.5t1 -19q0 -28 -12 -28q-11 0 -17 21q-10 34 -22 42.5t-54 10.5q-32 2 -100 2q-3 0 -6 -3.5t-3 -5.5q-3 -17 -3 -154q0 -56 8 -82q8 -20 20 -23q40 -7 89 -7q69 0 95 8q51 15 81 74q15 29 25 29q6 0 8 -9.5t0 -18.5q0 -6 -15.5 -53.5
t-20.5 -55.5q-8 -11 -19 -11q-1 0 -53.5 1.5t-131 3.5t-142.5 2q-30 0 -63 -2.5t-49 -2.5q-31 0 -31 13q0 10 28 17q41 9 55.5 22t17.5 52q7 96 7 274q0 47 0.5 89t0.5 57.5t-1 28.5q-2 32 -13 45t-43 20q-30 7 -30 17q0 14 29 14q22 0 73 -1.5t85 -1.5z" />
    <glyph glyph-name="F" unicode="F" horiz-adv-x="531" 
d="M181 641h130q32 0 70 0.5t63.5 1.5t27.5 1q4 1 8.5 -3t4.5 -8q-1 -10 2 -100q1 -10 -3 -18.5t-10 -8.5q-13 0 -23 31q-11 36 -23.5 49t-37.5 16q-52 8 -151 3q-7 -1 -11.5 -5.5t-4.5 -7.5q-5 -43 -5 -220q0 -37 10 -37q123 0 139 2q22 2 32.5 11t20.5 35q10 24 20 24
t10 -22q0 -6 -3 -30t-3 -34q0 -25 1 -47.5t1 -30.5q0 -25 -15 -25q-9 0 -15 23q-5 18 -11.5 28t-12.5 13t-17 6q-30 5 -67 5q-63 0 -83 -3q-2 0 -4.5 -4.5t-2.5 -7.5q-2 -27 4 -187q1 -19 4 -28.5t17.5 -19t43.5 -15.5q26 -5 26 -18t-30 -13q-11 0 -43 1.5t-53 1.5
q-23 0 -68.5 -3t-55.5 -3q-27 0 -27 11q0 13 26 20q24 6 37.5 16t16.5 16.5t4 16.5q7 72 7 300q0 152 -2 178t-15.5 40t-45.5 22q-26 6 -26 18t28 12q23 0 61.5 -1.5t53.5 -1.5z" />
    <glyph glyph-name="G" unicode="G" horiz-adv-x="728" 
d="M417 658q69 0 167 -21l40 -8q2 0 4.5 -2.5t5 -8.5t2.5 -13q0 -11 6.5 -51t6.5 -61q0 -23 -13 -23q-10 0 -18 24q-15 40 -39 70q-20 24 -63 43.5t-97 19.5q-121 0 -193 -86.5t-72 -209.5q0 -109 44 -182q38 -64 102 -100t134 -36q48 0 85 23q6 5 13 24t7 32q0 83 -3 101
q-4 14 -9.5 21.5t-24.5 15t-53 10.5q-11 1 -19 6t-8 11t8.5 10.5t22.5 4.5q10 0 57 -2t62 -2q11 0 44.5 2t51.5 2q27 0 27 -14q0 -9 -23 -17q-14 -4 -22 -10.5t-9.5 -9t-4.5 -12.5q-5 -18 -5 -124q0 -18 15 -29q16 -10 16 -18q0 -10 -15 -14l-91 -23q-70 -19 -141 -19
q-168 0 -266 90q-103 99 -103 247q0 151 112 249q47 42 116 66t143 24z" />
    <glyph glyph-name="H" unicode="H" horiz-adv-x="816" 
d="M219 366q1 -19 11 -19q18 0 141.5 2t216.5 2q8 0 11 25q1 7 0.5 80.5t-2.5 99.5q-3 28 -12 38t-41 19q-27 7 -27 19q0 11 32 11q5 0 47.5 -1t56.5 -1q20 0 55.5 1.5t38.5 1.5q29 0 29 -12q0 -11 -30 -18q-28 -7 -38 -20t-12 -36q-8 -82 -8 -319q0 -76 4 -156
q1 -28 10.5 -36.5t45.5 -18.5q23 -8 23 -19q0 -12 -28 -12q-6 0 -38 1.5t-49 1.5q-11 0 -59.5 -3t-58.5 -3q-27 0 -27 12t24 18q38 11 47.5 27t12.5 70q4 96 3 161q0 20 -11 20q-56 0 -150.5 1t-137 1.5t-70.5 -0.5q-3 -1 -6.5 -7t-3.5 -11v-181q0 -36 10.5 -51.5
t41.5 -25.5q31 -8 32 -21q0 -11 -31 -11q-2 0 -22 1t-45 2t-41 1q-10 0 -46.5 -2t-54.5 -2q-31 0 -31 11t24 19q37 10 48 21.5t14 41.5q9 123 9 319q0 5 0.5 37.5t1 57t-0.5 53.5q-2 26 -11 38t-38 18q-29 7 -29 19t28 12q14 0 48 -1t47 -1q23 0 56 1t42 1q33 0 33 -12
q0 -13 -31 -19q-32 -6 -40.5 -19t-10.5 -48q-1 -25 -2.5 -95.5t-0.5 -83.5z" />
    <glyph glyph-name="I" unicode="I" horiz-adv-x="345" 
d="M127 328q0 162 -3 213q-2 28 -4.5 38.5t-14 19.5t-38.5 14q-29 6 -29 18q0 13 27 13q12 0 52.5 -1.5t57.5 -1.5q26 0 59.5 1.5t49.5 1.5q26 0 26 -13q0 -12 -26 -17q-20 -4 -32.5 -10t-18 -16.5t-6.5 -16.5t-3 -20q-6 -48 -6 -282q0 -110 3 -158q3 -45 14.5 -61t56.5 -25
q27 -6 27 -18q0 -13 -28 -13q-27 0 -81.5 3t-67.5 3q-14 0 -37.5 -1t-42.5 -1q-27 0 -27 15q0 11 30 17q35 8 44.5 22t12.5 51q5 60 5 225z" />
    <glyph glyph-name="J" unicode="J" horiz-adv-x="336" 
d="M-74 -167q0 15 24 42q3 3 12.5 8t13.5 5q13 0 31 -11q33 -23 54 -23q23 0 38 17q22 25 26 80q6 90 6 315q0 212 -7 292q-1 13 -4.5 21.5t-17 18.5t-36.5 14q-31 7 -31 20q0 12 28 12q14 0 50.5 -1.5t60.5 -1.5q21 0 58 1.5t51 1.5q27 0 27 -11q0 -13 -30 -20
q-31 -6 -43 -20.5t-12 -51.5q0 -18 -5 -448q-1 -85 -33.5 -152t-77.5 -99q-67 -50 -116 -50q-25 0 -46 12.5t-21 28.5z" />
    <glyph glyph-name="K" unicode="K" horiz-adv-x="688" 
d="M43 631q0 13 28 13q11 0 47 -1.5t53 -1.5q16 0 50.5 1t45.5 1q27 0 27 -12q0 -11 -28 -17q-27 -6 -37 -17t-11 -40q-2 -27 -2.5 -113t1.5 -100q0 -7 7 -7q2 0 8 3l7 4q24 19 109.5 102.5t110.5 113.5q20 21 17 33.5t-29 19.5q-23 7 -23 16q0 12 25 12h39q16 0 77 2.5
t74 2.5q26 0 26 -12q0 -11 -29 -18q-40 -9 -67 -24.5t-77 -53.5q-33 -25 -100 -88t-82 -82q-3 -8 0 -10q32 -44 265 -283q21 -21 38.5 -32t29 -14.5t34.5 -7.5q8 -1 14 -6t6 -8q0 -15 -26 -15q-13 0 -74.5 4t-75.5 4q-20 0 -41.5 -0.5t-31.5 -0.5t-15.5 5.5t-5.5 11.5
q0 9 43 19q3 1 4.5 4.5t-0.5 5.5q-47 64 -208 232q-37 40 -44 40q-5 0 -5 -21q-3 -44 2 -215q1 -20 13 -32t45 -20q24 -7 24 -18q0 -14 -27 -14q-10 0 -58 1.5t-65 1.5q-16 0 -50.5 -1.5t-50.5 -1.5q-9 0 -16.5 4t-7.5 9q0 11 29 18q38 8 53 24t16 59q3 105 3 234
q0 162 -4 210q-1 27 -12 38.5t-41 19.5q-27 8 -27 18z" />
    <glyph glyph-name="L" unicode="L" horiz-adv-x="567" 
d="M45 630q0 13 30 13q13 0 39 -1t41 -1q21 0 71 1.5t60 1.5q26 0 26 -11q0 -12 -23 -17q-38 -9 -50.5 -18t-14.5 -21q-7 -55 -7 -296q0 -144 7 -202q1 -11 14.5 -24t20.5 -14q24 -5 92 -5q48 0 72 3q21 3 37 18q39 39 59 70q14 21 25 21t4 -27q-24 -78 -30 -110
q-1 -7 -10.5 -12t-14.5 -5q-2 0 -16 0.5t-39 1.5t-58 2t-84.5 1.5t-108.5 0.5q-38 0 -84 -2.5t-49 -2.5q-29 0 -29 11q0 14 24 19q40 7 54.5 22t18.5 47q5 42 5 317q0 115 -1 148q0 21 -10.5 33.5t-42.5 19.5q-28 6 -28 18z" />
    <glyph glyph-name="M" unicode="M" horiz-adv-x="888" 
d="M47 633q0 10 29 10q32 0 70 -1t69 -1q6 0 12 -14q11 -36 37 -90q163 -340 182 -366q1 -2 5 -3.5t5 -0.5q186 356 202 398q1 2 11 26t14 36q1 3 5 8.5t6 5.5q26 0 79 1l53 2q27 0 27 -11t-26 -17q-27 -5 -45 -14q-30 -11 -30 -77q0 -319 13 -430q5 -32 16.5 -44.5
t48.5 -22.5q27 -8 27 -19q0 -14 -29 -14q-2 0 -54.5 2.5t-74.5 2.5q-8 0 -37.5 -1.5t-41.5 -1.5q-28 0 -28 14q0 11 27 19q15 4 24 10t13 17.5t5 19t3 26.5q3 32 3 184t-2 196q0 7 -3 9t-7 -5q-12 -21 -71.5 -140t-87.5 -178q-29 -64 -61 -143q-5 -13 -10 -20t-7.5 -8
t-6.5 -1q-10 0 -17 20q-12 47 -37 105q-31 77 -96 215t-73 156q-5 11 -7 -3q-6 -38 -12 -174.5t-3 -204.5q1 -40 12 -55.5t49 -26.5q26 -7 26 -20q0 -12 -27 -12q-17 0 -51.5 1.5t-46.5 1.5q-13 0 -41.5 -1.5t-40.5 -1.5q-27 0 -27 14q0 9 21 15q44 13 57 30t20 64
q7 54 19.5 211.5t13.5 214.5q0 46 -43 59l-43 11q-17 5 -17 17z" />
    <glyph glyph-name="N" unicode="N" horiz-adv-x="771" 
d="M17 631q0 13 31 13q8 0 54 -1.5t75 -1.5q9 0 22 -13q28 -33 79 -99q21 -27 325 -359q4 -4 7 -0.5t3 7.5q2 12 2 272q0 26 -5 101q-2 43 -63 60q-28 8 -28 22q0 10 27 10q12 0 39 -0.5t43 -0.5q20 0 53 2t45 2q23 0 23 -11q0 -15 -24 -20q-35 -10 -48 -23.5t-15 -50.5
q-11 -128 -11 -398q0 -24 3.5 -78t3.5 -60q0 -8 -4.5 -14.5t-10.5 -6.5q-19 0 -47 34q-42 54 -63 80q-48 57 -179 207.5t-175 202.5q-3 3 -7.5 2t-4.5 -4q0 -7 -2 -47.5t-2 -85.5q0 -34 -1 -102t-1 -111t2 -59q2 -33 14.5 -48t48.5 -25q25 -6 25 -18q0 -14 -32 -14
q-14 0 -49 2.5t-54 2.5q-12 0 -37.5 -1t-33.5 -1q-26 0 -26 11q0 12 20 18q23 7 31 10.5t19.5 13.5t15.5 26t5 44q19 331 19 398q0 42 -8 50q-19 22 -32.5 30t-49.5 16q-22 6 -22 16z" />
    <glyph glyph-name="O" unicode="O" horiz-adv-x="782" 
d="M386 658q148 0 247.5 -95t99.5 -234q0 -97 -39 -169.5t-100 -116.5q-42 -31 -98 -46t-103 -15q-76 0 -145 30.5t-115 82.5q-84 90 -84 227q0 160 130 266q37 30 95 50t112 20zM363 625q-33 0 -70.5 -15.5t-61.5 -39.5q-76 -72 -76 -234q0 -76 32 -148.5t93.5 -121.5
t136.5 -49q35 0 64.5 9.5t42 18.5t19.5 18q35 32 59.5 93.5t24.5 142.5q0 78 -31.5 152.5t-86.5 119.5q-29 24 -70 39t-76 15z" />
    <glyph glyph-name="P" unicode="P" horiz-adv-x="553" 
d="M418 450q0 68 -45 118.5t-113 50.5q-16 0 -29 -9q-8 -8 -9 -38q0 -9 -0.5 -47t-1 -103.5t-0.5 -109.5q0 -54 1 -122.5t1 -72.5q1 -48 11 -63t50 -26q26 -7 26 -20q0 -12 -32 -12q-11 0 -48.5 2t-61.5 2q-14 0 -50.5 -2t-51.5 -2q-31 0 -31 15q0 9 22 16q39 9 52.5 24.5
t15.5 48.5q5 78 5 176q0 232 -3 278q0 17 -1.5 24t-6.5 15.5t-16.5 12.5t-32.5 7q-29 3 -29 15q0 11 22 13q7 1 33 1q22 0 85 4t87 4q129 0 190 -59q58 -56 58 -136q0 -93 -68 -154q-21 -18 -54 -31t-62 -13q-32 0 -54 7q-17 8 -17 17t13 9h22q45 0 84 41.5t39 118.5z" />
    <glyph glyph-name="Q" unicode="Q" horiz-adv-x="781" 
d="M395 658q139 0 238 -94.5t99 -234.5q0 -152 -105 -250q-57 -54 -138 -83q-3 -1 -4 -4t2 -6q12 -16 51.5 -46.5t73.5 -51.5q101 -63 173 -63q20 0 68 9q13 2 13 -7q0 -12 -16 -24q-19 -14 -49.5 -23.5t-57.5 -9.5q-106 0 -223 75q-37 22 -145 104q-52 39 -110 60
q-97 32 -156.5 117t-59.5 191q0 91 37.5 161.5t99.5 114.5q90 65 209 65zM363 624q-62 0 -111 -39q-97 -76 -97 -259q0 -118 76 -213q30 -39 84.5 -66.5t88.5 -27.5q72 0 121 32q46 32 74 104t28 138q0 77 -26.5 147t-75.5 116q-30 30 -75.5 49t-86.5 19z" />
    <glyph glyph-name="R" unicode="R" horiz-adv-x="635" 
d="M513 480q0 -40 -21 -77t-57 -60q-3 -2 -16.5 -9t-16.5 -9q-3 -1 -4.5 -7t0.5 -8q12 -26 63.5 -105.5t90.5 -123.5q38 -45 96 -58q6 -1 11.5 -6t5.5 -8q0 -7 -15 -12q-17 -8 -58 -8q-40 0 -77.5 18.5t-58.5 46.5q-52 70 -125 189q-31 45 -38 48q-5 4 -26 8.5t-41 4.5
q-8 0 -12 -11q-1 -15 0.5 -88.5t3.5 -112.5q2 -33 13 -46t47 -22q24 -6 24 -16q0 -14 -26 -14q-17 0 -55.5 3t-73.5 3q-12 0 -46 -2t-38 -2q-27 0 -27 15q0 7 22 15q37 11 49.5 21.5t14.5 36.5q6 80 6 207q0 227 -6 271q-2 24 -12.5 33t-45.5 17q-24 5 -24 17t27 12h60
q16 0 75.5 2.5t88.5 2.5q114 0 166 -43q24 -20 40 -54t16 -69zM417 476q0 21 -11.5 50.5t-32.5 50.5q-40 38 -96 38q-31 0 -46 -7q-3 -1 -7.5 -9.5t-4.5 -11.5q-2 -28 -3.5 -128t0.5 -116q4 -14 15 -14q38 0 73.5 8.5t48.5 16.5q25 17 44.5 48.5t19.5 73.5z" />
    <glyph glyph-name="S" unicode="S" horiz-adv-x="478" 
d="M276 658q22 0 46.5 -3.5t47.5 -8t27 -5.5q7 -2 13 -20q0 -7 2.5 -27t5 -37t2.5 -19q0 -26 -8 -26q-19 0 -25 21q-8 23 -23 44t-25 28q-30 24 -73 24q-48 0 -80 -32.5t-32 -82.5q0 -25 7.5 -44t30 -39.5t39.5 -33t61 -41.5q70 -45 105 -90t35 -105q0 -39 -22 -78t-62 -64
q-55 -36 -136 -36q-80 0 -134 26q-7 3 -15.5 15.5t-8.5 15.5q-15 85 -15 97q0 4 5.5 11.5t8.5 7.5q13 0 38 -56q19 -39 58 -61t74 -22q49 0 83 32.5t34 83.5q0 36 -25.5 71.5t-96.5 80.5q-73 47 -110.5 93.5t-37.5 107.5q0 75 56 124q55 48 150 48z" />
    <glyph glyph-name="T" unicode="T" horiz-adv-x="670" 
d="M341 641q148 0 226 2q47 2 70 17q12 7 15 7q4 0 6 -6.5t-1 -16.5q-13 -40 -22 -116q-1 -7 -6 -13.5t-11 -6.5q-11 0 -15 32q-5 39 -19 49t-60 12q-12 1 -69.5 0.5t-67.5 -2.5q-8 -2 -8 -13q0 -19 -0.5 -104t-0.5 -133q0 -203 5 -253q3 -34 15.5 -47.5t57.5 -22.5
q10 -2 18 -8t8 -10q0 -13 -28 -13l-48 3q-48 2 -72 2q-28 0 -71 -3.5t-46 -3.5q-30 0 -30 12t20 18q49 12 60.5 29.5t13.5 76.5q7 210 7 339v119q0 5 -3 9t-6 4q-32 5 -121 5q-49 0 -71 -23q-9 -9 -32 -52q-10 -22 -20 -22q-12 0 -12 22q0 5 10 53t10 81q0 5 5 11t10 6
q2 0 4 -2t5.5 -6.5t6.5 -7.5q17 -17 36 -18q50 -6 231 -6z" />
    <glyph glyph-name="U" unicode="U" horiz-adv-x="762" 
d="M37 632q0 12 28 12q22 0 55.5 -1.5t51.5 -1.5q20 0 55.5 1t44.5 1q30 0 30 -12t-29 -18t-42.5 -17.5t-17.5 -40.5q-4 -33 -4 -277q0 -78 14.5 -118.5t42.5 -71.5q19 -22 61 -37t78 -15q38 0 72.5 10.5t67.5 43t45 84.5q21 93 21 255q0 101 -4 123q-2 29 -14.5 42
t-51.5 22q-23 5 -23 17q0 11 25 11q11 0 40 -1.5t46 -1.5q22 0 50.5 1t40.5 1q25 0 25 -12q0 -9 -23 -17q-35 -10 -49.5 -29t-15.5 -63q-1 -26 -4.5 -109.5t-4.5 -99.5q-8 -230 -125 -298q-55 -31 -143 -31q-61 0 -110 18.5t-72 40.5q-43 41 -62 105t-19 185q0 199 -3 238
q-3 32 -54 43q-23 6 -23 18z" />
    <glyph glyph-name="V" unicode="V" horiz-adv-x="660" 
d="M-2 633q0 13 31 13q6 0 42.5 -2.5t64.5 -2.5q19 0 56 1t47 1q24 0 24 -12q0 -14 -24 -18q-34 -7 -42 -19.5t-2 -30.5q12 -37 71.5 -191.5t85.5 -214.5q8 -8 10 -2q3 8 33.5 80t68.5 162.5t56 134.5q8 21 9 34.5t-8 22.5t-18 13t-28 11q-23 7 -23 17q0 13 29 13
q11 0 37 -1t44 -1q16 0 48 2t42 2q30 0 30 -13q0 -10 -27 -18q-32 -8 -51.5 -26t-36.5 -54q-9 -20 -36 -76t-49 -105t-49 -117q-73 -175 -91 -233q-8 -23 -21 -23q-5 0 -11 6t-7 13q-10 54 -52 162q-53 142 -144 367q-16 39 -34.5 58.5t-50.5 28.5q-24 8 -24 18z" />
    <glyph glyph-name="W" unicode="W" horiz-adv-x="986" 
d="M-3 632q0 12 27 12q23 0 56 -1.5t54 -1.5q16 0 49.5 1.5t35.5 1.5q26 0 26 -12t-27 -20q-40 -10 -29 -39q72 -180 193 -441q5 -7 9 -1q43 81 82 169q3 7 -1 14q-68 162 -97 219q-22 46 -33.5 59t-39.5 21q-24 7 -24 18t29 11q5 0 36 -0.5t49 -0.5q28 0 62 1.5t35 1.5
q25 0 25 -12q0 -14 -24 -19q-29 -6 -34 -15t4 -33q5 -12 69 -156q2 -3 4.5 -2.5t3.5 2.5q35 71 61 130q16 42 9.5 55t-38.5 21q-9 2 -15.5 7t-6.5 8q0 13 30 13q7 0 29 -1t40 -1q17 0 46.5 1t35.5 1q22 0 22 -10q0 -12 -28 -20q-27 -7 -42 -20.5t-37 -50.5q-32 -55 -92 -170
q-2 -10 3 -18q71 -163 100 -217q6 -10 11 1q72 150 178 399q15 34 8 50.5t-40 26.5q-24 7 -24 17q0 12 27 12q12 0 35.5 -1t32.5 -1q16 0 47 1.5t47 1.5q27 0 27 -11q0 -12 -26 -18q-30 -7 -47 -22t-37 -54q-102 -204 -142 -293q-77 -175 -101 -236q-3 -9 -11 -17t-14 -8
q-12 0 -17 20q-8 27 -26.5 69.5t-44.5 99.5t-38 85q-5 7 -8 2q-91 -188 -116 -258q-4 -8 -12 -15.5t-13 -7.5q-11 1 -18 19q-2 5 -10.5 29.5t-21 56.5t-30.5 73q-119 281 -167 375q-3 5 -7.5 15t-7 14t-6.5 11t-6.5 10.5t-7 8.5t-8.5 7.5t-9.5 5.5t-12.5 5t-15 4
q-26 7 -26 18z" />
    <glyph glyph-name="X" unicode="X" horiz-adv-x="699" 
d="M25 634q0 12 30 12q7 0 57 -2.5t69 -2.5q20 0 46.5 1t39.5 1q25 0 25 -11t-24 -19q-33 -8 -18 -36q21 -39 63.5 -107t57.5 -84q3 -3 6 -3.5t4 1.5q25 28 72.5 92.5t60.5 88.5q11 21 1 31t-39 16q-25 5 -25 18t28 13q15 0 45.5 -1t43.5 -1q12 0 53.5 1.5t52.5 1.5
q24 0 24 -11q0 -6 -7 -11t-16 -7q-41 -8 -69 -24.5t-56 -49.5q-121 -145 -150 -185q-3 -6 -1 -12q5 -13 66 -105.5t83 -121.5q33 -45 54.5 -62t68.5 -29q11 -3 17.5 -9t5.5 -10q0 -13 -30 -13q-13 0 -63.5 3t-83.5 3q-17 0 -48 -2t-35 -2q-25 0 -25 13q0 10 22 18
q28 7 36 12q11 8 4 18q-19 34 -72 117t-61 91q-7 5 -10 2q-55 -65 -108 -143q-22 -34 -26 -53.5t4 -27t31 -15.5q24 -8 24 -17q0 -14 -24 -14q-12 0 -49.5 1.5t-54.5 1.5q-22 0 -58 -2.5t-45 -2.5q-27 0 -27 11q0 16 37 23q68 14 117 67q82 92 157 196q7 8 3 14
q-5 15 -63 105t-97 144q-34 46 -97 60q-27 6 -27 19z" />
    <glyph glyph-name="Y" unicode="Y" horiz-adv-x="626" 
d="M4 635q0 11 27 11q5 0 47.5 -2.5t69.5 -2.5q12 0 35.5 1t45.5 1t22 -11q0 -15 -22 -19q-24 -6 -26.5 -17t9.5 -30q10 -20 128 -215q1 -2 5.5 -1.5t5.5 3.5q54 80 125 202q15 26 8.5 38t-37.5 20q-23 6 -23 20q0 9 23 9q14 0 34.5 -0.5t31.5 -0.5q20 0 63.5 2t49.5 2
q21 0 21 -10q0 -11 -26 -19q-58 -15 -108 -77q-21 -26 -45 -62t-51.5 -78.5t-36.5 -55.5q-22 -37 -22 -59q0 -172 6 -210q3 -18 16.5 -28t53.5 -20q26 -7 26 -18q0 -12 -30 -12q-6 0 -43 2t-49 2q-36 0 -88 -3t-53 -3q-25 0 -25 11q0 14 28 19q63 14 65 47q2 28 2 204
q0 23 -9 39q-25 53 -124 208q-36 53 -54 70t-48 24q-28 6 -28 19z" />
    <glyph glyph-name="Z" unicode="Z" horiz-adv-x="623" 
d="M313 641q187 0 223 3q17 3 17 -5q0 -12 -12 -26q-16 -18 -87 -121q-172 -258 -275 -431q-6 -8 4 -13q19 -10 141 -12q101 0 122 3q39 4 62.5 21.5t65.5 77.5q18 26 26 26q10 0 10 -22q0 -20 -50 -130q-9 -17 -58 -17t-195 2t-164 2q-26 0 -59 -0.5t-35 -0.5q-6 0 -11.5 4
t-5.5 10q0 5 41 60q31 42 173.5 261.5t159.5 252.5q3 5 1 9t-5 4q-42 6 -174 6q-48 0 -71 -5q-57 -13 -92 -77q-11 -23 -22 -23q-4 0 -6.5 3.5t-3.5 11t3 18.5q1 3 9.5 26t18 50t13.5 47q3 13 13 13q7 0 16 -9q12 -14 50 -17q58 -2 157 -2z" />
    <glyph glyph-name="bracketleft" unicode="[" horiz-adv-x="341" 
d="M137 716h133q10 0 16.5 -4.5t6.5 -10.5t-7.5 -11t-16.5 -7q-7 0 -45.5 -3.5t-44.5 -3.5t-10.5 -8t-5.5 -17q-4 -75 -4 -334q0 -30 7 -410q1 -48 18 -50q78 -9 94 -9q6 0 16 -5t10 -12q0 -15 -30 -15q-5 0 -36 -0.5t-47 -0.5q-17 0 -42 -0.5t-26 -0.5q-15 0 -15 34v604
v126t-0.5 81t-0.5 27q0 22 7 27q3 3 23 3z" />
    <glyph glyph-name="backslash" unicode="\" horiz-adv-x="367" 
d="M332 -50q2 -2 -1 -8t-7 -7q-20 -4 -21 -4q-11 -1 -17 14q-197 547 -249 696q0 11 7 14q21 6 28 6q6 0 14 -13q150 -431 246 -698z" />
    <glyph glyph-name="bracketright" unicode="]" horiz-adv-x="341" 
d="M206 -185q-35 0 -78 -0.5t-45 -0.5q-14 0 -23.5 5t-9.5 11q0 5 9 11t23 7l82 8q14 2 16 21q4 76 4 337q0 26 -7 409q0 49 -18 51q-20 2 -52 5.5t-37 4.5q-10 1 -19 6t-9 10q0 7 10 12t22 5q1 0 31 -0.5t47 -0.5t43 0.5t27 0.5q13 0 13 -35v-603q0 -71 0.5 -128t0.5 -85
v-29q0 -15 -5 -19q-3 -3 -25 -3z" />
    <glyph glyph-name="asciicircum" unicode="^" horiz-adv-x="472" 
d="M238 639q12 0 33 -39l151 -294q7 -13 1 -21q-10 -11 -26 -16.5t-21 2.5l-135 274q-6 11 -11 1l-136 -277q-2 -6 -17.5 -1t-26.5 16q-6 7 0 20l151 293q21 42 37 42z" />
    <glyph glyph-name="underscore" unicode="_" horiz-adv-x="495" 
d="M0 -124h495v-49h-495v49z" />
    <glyph glyph-name="grave" unicode="`" horiz-adv-x="400" 
d="M142 655q11 0 27 -35q31 -69 57 -148q9 -26 -4 -26t-24 16q-22 28 -54 77t-40 64q-8 14 -8 26q2 10 18 18q19 8 28 8z" />
    <glyph glyph-name="a" unicode="a" horiz-adv-x="401" 
d="M210 405q60 0 93 -49q21 -30 21 -84q0 -23 -2 -97.5t-2 -76.5q0 -27 13 -37.5t26 -10.5q12 0 38 15q3 1 6 -3q2 -3 2 -11q0 -17 -30 -40t-63 -23q-49 0 -65 49q-3 6 -7 4q-40 -28 -88 -45q-16 -6 -41 -6q-27 0 -49 28t-22 66q0 28 19 52q8 10 40 24q7 3 31.5 10.5
t52.5 15.5t36 10q27 9 27 18q1 8 2 40.5t0 40.5q0 22 -21 44t-55 22q-25 0 -39 -10q-9 -5 -7 -42q0 -5 -5 -10q-7 -6 -36.5 -20.5t-33.5 -14.5t-8 4.5t-4 9.5q0 38 77 89q22 16 51 27t43 11zM180 44q24 0 51 16q5 2 12 24q2 42 2 80q0 8 -7 8q-45 0 -99 -30q-19 -10 -19 -38
q0 -29 20 -44.5t40 -15.5z" />
    <glyph glyph-name="b" unicode="b" horiz-adv-x="492" 
d="M460 208q0 -109 -88 -175q-56 -45 -139 -45q-65 0 -128 20q-7 4 -21 -3q-8 -3 -12 -3q-7 0 -7 13q6 94 6 332q0 218 -5 253q-3 15 -24 33q-21 17 -22 20q0 2 5 8t8 7q79 27 87 32q22 12 28 12q3 0 6.5 -5t3.5 -9q-9 -192 -8 -239q0 -70 1 -83q0 -2 2.5 -3.5t3.5 -0.5
q50 33 112 33q75 0 125 -44q66 -57 66 -153zM369 188q0 31 -12 67t-35 61q-43 43 -106 43q-34 0 -55 -13q-8 -5 -8 -15q-2 -10 -2 -57q0 -93 7 -163q4 -34 22 -52t44 -28t42 -10q23 0 59 33q20 20 32 59t12 75z" />
    <glyph glyph-name="c" unicode="c" horiz-adv-x="397" 
d="M262 401q65 0 95 -22q15 -12 15 -32q0 -11 -15 -26t-19 -15q-15 0 -40 20q-4 3 -12.5 9.5t-12.5 9t-11 7t-11 6.5t-10.5 4t-13 3t-13.5 1q-12 0 -29.5 -9t-28.5 -22q-41 -47 -41 -118q0 -66 28 -100q17 -29 50 -46.5t72 -17.5q45 0 90 30q5 3 9 4t6.5 -0.5t2.5 -4.5
q0 -16 -14 -30q-25 -28 -65 -45.5t-81 -17.5q-47 0 -86.5 22t-62.5 58q-32 52 -32 117q0 108 98 173q26 19 66.5 30.5t65.5 11.5z" />
    <glyph glyph-name="d" unicode="d" horiz-adv-x="504" 
d="M271 404q43 0 62 -3q5 -1 8 10q3 24 2.5 102t-3.5 99q-3 19 -46 41q-11 6 -11 10q0 3 6.5 9t10.5 7q54 9 108 29q8 3 14 3q2 0 5 -5.5t2 -10.5q-9 -112 -9 -392q0 -164 3 -221q2 -47 16 -47q6 0 28.5 3.5t24.5 3.5q6 0 6 -6t-7 -15t-11 -11q-65 -10 -93 -20
q-29 -10 -38 -10q-3 0 -7 4.5t-4 8.5t1 18t1 22q0 7 -6 7q-57 -49 -128 -49q-74 0 -124 53t-50 138q0 121 107 184q60 38 132 38zM234 370q-41 0 -74 -33q-16 -16 -28.5 -52t-12.5 -73q0 -65 40 -118t100 -53q39 0 68 22q1 1 4.5 10t7.5 24t4 28q2 112 -3 167q-2 19 -21 39
q-39 39 -85 39z" />
    <glyph glyph-name="e" unicode="e" horiz-adv-x="397" 
d="M232 403q61 0 101 -38q35 -35 35 -85q0 -5 -6 -12t-14 -7q-180 0 -226 1q-7 0 -9 -8q-4 -11 -4 -35q0 -61 36 -109q41 -54 113 -54q66 0 90 36q10 12 13 12q9 0 9 -12q0 -9 -8 -25q-52 -77 -149 -77q-81 0 -130.5 55.5t-49.5 143.5q0 62 32 116t89 81q37 17 78 17z
M222 378q-33 0 -59.5 -21t-39.5 -56q-1 -4 1 -7.5t4 -3.5q42 -2 124 0q34 0 34 27q0 22 -19.5 41.5t-44.5 19.5z" />
    <glyph glyph-name="f" unicode="f" horiz-adv-x="296" 
d="M180 391q27 0 54 0.5t44 0.5h16q5 0 9.5 -14t4.5 -29q0 -2 -5.5 -6.5t-9.5 -4.5q-3 0 -55 1.5t-58 1.5q-2 0 -4.5 -3t-2.5 -5q-1 -14 0 -125.5t3 -128.5q3 -27 14.5 -36.5t50.5 -16.5q24 -4 24 -16t-27 -12q-4 0 -36 1t-46 1q-24 0 -64 -2.5t-42 -2.5q-25 0 -25 12
q0 9 21 15q31 9 37 20t7 48q3 123 3 217q0 33 -10 33q-30 0 -42 -2q-4 0 -7.5 6t-1.5 11q0 2 7 6.5t20 13t22 15.5q12 10 12 16q3 94 27 148q34 77 92 118q55 40 114 40q41 0 64 -19q20 -16 20 -35q0 -12 -9.5 -26.5t-19.5 -17.5q-8 -3 -19 -3q-9 0 -28 19q-37 35 -70 35
q-34 0 -57 -38q-18 -31 -26 -80t-8 -147q0 -9 7 -9z" />
    <glyph glyph-name="g" unicode="g" horiz-adv-x="424" 
d="M210 409q34 0 88 -13q4 -1 13.5 -3.5t13.5 -2.5t54 -3t62 -5q9 -2 9 -11q0 -10 -7.5 -22t-11.5 -12q-40 0 -65 2q-3 0 -5 -3t-1 -5q8 -22 8 -48q0 -82 -56 -126q-51 -38 -112 -38q-22 0 -36 2q-10 2 -14 -2q-8 -4 -19 -15t-11 -17q0 -17 14.5 -29.5t25.5 -13.5
q178 -8 185 -9q22 -2 48 -24q43 -36 43 -89q0 -91 -96 -155q-66 -43 -145 -43q-75 0 -126 37q-47 36 -47 87q0 42 29 62q13 11 38 29t30 23q2 2 -2 7q-27 10 -40 20q-35 23 -35 74q0 5 5 10q3 2 35 22.5t41 30.5q3 3 -3 9q-77 42 -77 127q0 68 60 113q45 34 107 34zM201 384
q-30 0 -48 -24q-25 -28 -25 -89q0 -44 26 -84.5t69 -40.5q11 0 33 14q16 11 25.5 41t9.5 64q0 44 -22 76q-30 43 -68 43zM233 -232q49 0 79 17q53 33 53 90q0 32 -15 51q-16 22 -53 30q-29 6 -102 6q-37 0 -53 -11q-42 -30 -42 -79q0 -43 36 -74q37 -30 97 -30z" />
    <glyph glyph-name="h" unicode="h" horiz-adv-x="515" 
d="M294 405q72 0 106 -47q29 -39 29 -108l4 -184q0 -18 9 -26t30 -13q28 -7 28 -17q0 -13 -28 -13q-17 0 -40 1.5t-39 1.5q-13 0 -37 -1t-39 -1q-22 0 -22 12q0 8 21 15q19 5 24.5 13t8.5 36q1 8 1 40.5t-0.5 69.5t-0.5 39q0 76 -18 97q-29 31 -77 31q-46 0 -75 -22
q-14 -14 -16 -46q-2 -34 -2 -108.5t1 -100.5q1 -24 9.5 -33t28.5 -15q22 -6 22 -15q0 -13 -25 -13q-1 0 -34 1t-50 1q-15 0 -43.5 -1.5t-35.5 -1.5q-23 0 -23 13q0 10 28 18q20 7 28.5 18.5t10.5 36.5q10 133 10 280q0 207 -3 235q-2 18 -7.5 24.5t-27.5 20.5q-10 5 -10 20
q0 4 4 6q81 20 107 35q9 7 18 7q7 0 7 -11q-13 -95 -13 -346q0 -3 2.5 -5t4.5 -1q62 57 124 57z" />
    <glyph glyph-name="i" unicode="i" horiz-adv-x="257" 
d="M140 0q-18 0 -49.5 -2t-38.5 -2q-26 0 -26 12q0 9 24 15q34 10 40 29q4 19 4 114q0 136 -1 142q-1 8 -40 36q-9 8 -9 12q0 12 21 18q23 5 63 19.5t41 14.5q3 0 6.5 -4.5t3.5 -6.5q-6 -90 -6 -204q0 -56 2 -126q0 -6 1.5 -10.5t2.5 -8t4.5 -6.5t5 -4.5t7.5 -4t7.5 -3l9 -3
t8.5 -2.5q22 -7 22 -17q0 -11 -25 -11q-2 0 -34 1.5t-44 1.5zM139 609q20 0 32.5 -17.5t12.5 -34.5q0 -20 -16.5 -35.5t-33.5 -15.5q-20 0 -34 13q-16 18 -16 38q0 23 13 37q17 15 42 15z" />
    <glyph glyph-name="j" unicode="j" horiz-adv-x="240" 
d="M33 354q0 9 16 14q69 19 99 35q9 5 17 5q2 0 5 -4.5t3 -6.5q0 -24 -1.5 -185t-2.5 -175q-3 -113 -44 -182q-35 -61 -92 -103q-29 -23 -42 -23q-15 0 -22 7q-2 1 -1.5 5t2.5 5q50 33 64 50q53 67 53 248q0 231 -4 260q-1 8 -8.5 16t-32.5 23q-9 5 -9 11zM119 615
q29 0 43 -18t14 -34q0 -26 -17 -39t-35 -13q-15 0 -32 15.5t-18 35.5q0 26 20 43q9 10 25 10z" />
    <glyph glyph-name="k" unicode="k" horiz-adv-x="485" 
d="M268 391h46q36 0 81 6t57 6q6 0 6 -8t-7 -14.5t-12 -7.5q-40 -9 -61.5 -19.5t-56.5 -34.5q-20 -14 -47 -39.5t-30 -32.5q-3 -5 -1 -9q23 -29 79 -92.5t80 -87.5q29 -28 66 -36q25 -7 25 -16q0 -13 -26 -13q-9 0 -54 3t-75 3h-46q-25 0 -25 13q0 9 22 14q28 7 13 27
q-6 8 -22 26.5t-42 47.5t-46 53q-18 23 -24 23q-1 0 -5 -8q-3 -9 -3 -62.5t4 -73.5q3 -15 10 -22t27 -12q22 -5 22 -15q0 -12 -25 -12q-12 0 -42 1t-43 1q-19 0 -48 -2t-37 -2q-25 0 -25 12q0 7 25 15q28 7 37 16t12 28q7 33 7 336q0 159 -6 213q0 8 -30 26q-13 10 -13 16
q0 7 13 12q74 20 94 32q17 10 20 10q2 0 5.5 -5.5t2.5 -8.5q-9 -43 -9 -368q0 -90 3 -100q3 -9 7 -9q6 0 20 14q77 68 106 108q9 11 -17 18l-18 4q-11 3 -11 8q0 4 6 11t11 7z" />
    <glyph glyph-name="l" unicode="l" horiz-adv-x="249" 
d="M39 657q0 9 15 15q12 4 31 10t30 9t24.5 9t23.5 12q2 1 6 -3t4 -7q-9 -81 -9 -296q0 -321 3 -338q2 -12 5 -18.5t13.5 -13.5t31.5 -12q22 -8 22 -16q0 -11 -26 -11q-13 0 -46.5 1.5t-41.5 1.5q-12 0 -45.5 -1.5t-43.5 -1.5q-28 0 -28 11t22 15q30 7 38.5 21.5t11.5 55.5
q6 84 6 307q0 174 -3 202q0 13 -24 29q-20 14 -20 19z" />
    <glyph glyph-name="m" unicode="m" horiz-adv-x="766" 
d="M51 349q0 9 20 18q29 11 83 42q6 4 8 3q3 0 7 -4t4 -6q0 -8 -2 -27t-2 -24q0 -3 2 -5.5t5 -0.5q72 59 133 59q50 0 78 -20q9 -7 32 -35q2 -8 8 -4q28 21 69 43q33 16 65 16q52 0 86 -34q30 -33 34 -98q3 -35 3 -204q0 -34 41 -45q19 -6 19 -15q0 -11 -28 -11
q-9 0 -34.5 1.5t-38.5 1.5q-17 0 -39 -1t-33 -1q-25 0 -25 13q0 8 22 14q23 7 29 17.5t6 39.5q0 104 -2 170q0 39 -15 64q-21 35 -73 35q-40 0 -74 -29q-3 -2 -6.5 -13t-3.5 -17q0 -206 1 -217q2 -25 9.5 -34.5t32.5 -15.5q21 -6 21 -15q0 -12 -25 -12q-11 0 -38.5 1
t-39.5 1q-10 0 -37 -1t-37 -1q-26 0 -26 13q0 9 20 14q24 6 30.5 16t6.5 38l1 191q0 36 -13 53q-23 30 -73 30q-39 0 -76 -29q-10 -8 -10 -25q-3 -49 -3 -228q0 -16 7.5 -26.5t29.5 -17.5q26 -8 26 -18q0 -11 -27 -11q-1 0 -14 0.5t-33 1t-37 0.5q-18 0 -42 -1.5t-34 -1.5
q-26 0 -26 11q0 10 25 16q24 6 31 18.5t10 46.5q4 58 4 197q0 19 -7 26q-35 32 -35 37z" />
    <glyph glyph-name="n" unicode="n" horiz-adv-x="523" 
d="M53 355q0 5 5.5 11.5t11.5 8.5q52 17 70 29q19 12 27 12q3 0 6 -6t3 -9q0 -8 -1.5 -26.5t-1.5 -22.5q0 -3 6 -3q79 55 133 55q58 0 91 -38q35 -40 35 -122q0 -140 3 -182q3 -26 37 -35q25 -7 25 -17q0 -12 -29 -12q-12 0 -38 1t-40 1t-40 -1t-31 -1q-25 0 -25 12
q0 10 24 17q17 7 23.5 16.5t7.5 34.5q2 33 2 183q0 22 -9 42.5t-18 28.5q-23 19 -63 19q-51 0 -84 -29q-10 -8 -10 -24q-1 -10 -0.5 -120.5t1.5 -119.5q1 -12 7.5 -18.5t28.5 -12.5q18 -5 18 -16q0 -12 -26 -12q-6 0 -29 0.5t-35 0.5q-21 0 -50 -1.5t-35 -1.5q-26 0 -26 14
q0 9 21 15q24 7 31.5 17.5t9.5 38.5q6 60 6 217q0 18 -25 39q-17 13 -17 17z" />
    <glyph glyph-name="o" unicode="o" horiz-adv-x="487" 
d="M252 405q79 0 141 -57t62 -148q0 -57 -27 -104t-60 -68q-57 -40 -128 -40q-72 0 -134 52q-32 26 -53 70t-21 83q0 97 70 156q62 56 150 56zM233 374q-29 0 -62 -27q-20 -19 -33 -54.5t-13 -75.5q0 -57 12 -90q16 -52 51.5 -80.5t73.5 -28.5q26 0 57 31q18 20 30.5 59
t12.5 74q0 96 -47 153q-36 39 -82 39z" />
    <glyph glyph-name="p" unicode="p" horiz-adv-x="500" 
d="M309 403q27 0 58 -16t53 -40q48 -54 48 -131q0 -46 -21.5 -93t-64.5 -80q-65 -51 -158 -51q-30 0 -54 4q-7 0 -7 -13q0 -135 3 -162q2 -22 11.5 -32.5t36.5 -19.5q29 -9 29 -18q0 -13 -27 -13q-10 0 -55 2.5t-67 2.5q-11 0 -30.5 -1.5t-37.5 -1.5q-29 0 -29 14
q0 11 23 15q39 8 48.5 22.5t12.5 66.5q3 51 3 217v67.5v79v58.5q-1 41 -8 46q-37 28 -37 34q0 3 5.5 10t9.5 8q36 10 82 36q18 9 20 9t6.5 -4.5t4.5 -7.5q-1 -10 -2 -29.5t-1 -21.5q0 -3 2.5 -5t5.5 0q34 22 64 35t73 13zM253 350q-52 0 -75 -17q-9 -7 -12 -29
q-4 -23 -5 -86t2 -94t12 -44q18 -26 47 -40.5t50 -14.5q25 0 43 15q33 28 49.5 73t16.5 76q0 76 -41 121q-18 18 -43.5 29t-43.5 11z" />
    <glyph glyph-name="q" unicode="q" horiz-adv-x="494" 
d="M255 405q53 0 86 -10q33 -11 37 -11q8 0 24 15q14 14 26 14q10 0 6 -19q-11 -45 -11 -355q0 -147 3 -212q1 -28 9.5 -38t42.5 -16q7 -1 14.5 -5.5t7.5 -8.5q0 -14 -26 -14q-46 0 -115 -6t-81 -6q-26 0 -26 12t24 16q28 6 43 16.5t18 18.5t4 23q5 55 5 195q0 4 -1.5 7.5
t-3.5 2.5q-70 -36 -113 -36q-90 0 -145 60q-23 23 -37 61t-14 76q0 121 104 185q23 14 58.5 24.5t60.5 10.5zM230 373q-32 0 -54 -20q-53 -45 -53 -143q0 -83 49 -135q42 -41 108 -41q34 0 55 15q4 2 7.5 13.5t3.5 18.5q0 131 -5 183q-7 42 -18 58q-15 22 -41.5 36.5
t-51.5 14.5z" />
    <glyph glyph-name="r" unicode="r" horiz-adv-x="344" 
d="M49 352q0 12 13 16q55 19 80 34q16 11 21 11q3 0 6.5 -4t3.5 -7q0 -9 -1 -27t-1 -28q2 -3 6 -4q65 62 113 62q27 0 39.5 -12t12.5 -23q0 -5 -6 -15q-31 -44 -43 -49q-6 -3 -15 3q-25 23 -57 23q-28 0 -39 -12q-10 -10 -10 -22q0 -139 5 -214q3 -47 26 -52q16 -3 45 -11
q19 -6 19 -16t-25 -10q-9 0 -49.5 2.5t-73.5 2.5q-15 0 -35 -2t-31 -2q-21 0 -21 13q0 4 20 13q28 10 34.5 23.5t7.5 59.5v186q0 25 -10 32q-35 27 -35 29z" />
    <glyph glyph-name="s" unicode="s" horiz-adv-x="327" 
d="M188 405q28 0 52 -6q16 -3 32 -11q8 -5 9 -15q0 -10 1.5 -34t1.5 -26q0 -19 -12 -19q-8 0 -17 19q-32 66 -81 66q-25 0 -41 -19.5t-16 -39.5q0 -25 22.5 -46t73.5 -49q45 -26 63.5 -53t18.5 -62q0 -59 -59 -98q-35 -24 -87 -24q-71 0 -98 22q-3 6 -9.5 31.5t-6.5 45.5
q0 22 8 22q9 0 22 -23q39 -72 92 -72q23 0 40 15q23 18 23 53q0 36 -44 64q-46 32 -64 42q-63 41 -63 103q0 59 56 93q35 21 83 21z" />
    <glyph glyph-name="t" unicode="t" horiz-adv-x="324" 
d="M170 391q10 0 38.5 1t54 2t26.5 1q2 0 6.5 -3t5.5 -6l3 -37v-1q0 -12 -26 -12h-107q-3 0 -5.5 -2.5t-2.5 -4.5q-3 -39 -3 -212q0 -31 18 -49q22 -19 58 -19q23 0 48 15q11 6 16 6q5 -2 5 -11q0 -12 -14 -26q-45 -45 -108 -45q-29 0 -53.5 14t-36.5 32q-13 20 -13 67
q0 19 2 112t2 110q0 10 -39 19q-13 5 -13 13q0 7 6 11q73 56 85 71q20 22 23 22q4 0 9.5 -5t5.5 -7v-48q0 -2 3 -5t6 -3z" />
    <glyph glyph-name="u" unicode="u" horiz-adv-x="501" 
d="M248 40q34 0 73 34q4 3 9 11.5t5 11.5l1 229q0 5 -5.5 12.5t-10.5 9.5q-8 2 -24 7t-21 6q-19 5 -19 16q0 3 7 6.5t14 3.5q69 0 113 11q13 4 24 4q7 0 7 -15q-8 -120 -8 -330q0 -15 11 -15q3 0 23 3t27 3q5 0 12 -21q0 -2 -4 -6t-8 -4q-24 -2 -93 -20q-34 -10 -38 -10
q-3 0 -7 4.5t-4 9.5q0 3 1.5 18.5t2.5 24.5q0 3 -2 5t-4 1q-52 -39 -79 -49q-32 -13 -67 -13q-60 0 -90 48q-14 22 -14 49q0 181 -2 234q0 6 -1 10.5t-4 8.5t-4 6t-6 4.5t-6 3.5t-7.5 3.5t-7.5 2.5q-18 8 -18 19q0 10 17 10q12 0 39.5 2.5t50 5.5t23.5 3q3 0 5.5 -5.5
t2.5 -9.5q0 -21 -1.5 -133.5t-1.5 -135.5q0 -34 24 -54q28 -20 65 -20z" />
    <glyph glyph-name="v" unicode="v" horiz-adv-x="423" 
d="M-9 385q0 4 8.5 7.5t16.5 3.5q9 0 45.5 -2.5t41.5 -2.5q15 0 37.5 1t26.5 1q23 0 23 -11q0 -9 -22 -16q-31 -9 -21 -34q19 -57 49.5 -128t36.5 -77q5 -5 8 4q9 20 38 95.5t37 99.5q6 18 -0.5 26t-30.5 17q-17 6 -17 14q0 11 20 11q8 0 25 -1.5t30 -1.5q9 0 33.5 2.5
t34.5 2.5q7 0 13.5 -3.5t6.5 -7.5q0 -8 -22 -16q-25 -10 -50 -41q-8 -12 -20.5 -41t-32.5 -77.5t-29 -69.5q-15 -37 -46 -133q-9 -26 -24 -26q-9 0 -14 18q-17 52 -37 103q-59 158 -102 232q-15 26 -43 34q-20 8 -20 17z" />
    <glyph glyph-name="w" unicode="w" horiz-adv-x="655" 
d="M96 391q13 0 37 1.5t32 1.5q26 0 26 -11q0 -10 -25 -17q-30 -6 -17 -38q8 -27 43 -116t41 -100q1 -4 4 -4t4 3q28 54 67 146q5 10 5 20q-3 23 -17 49q-7 13 -11 19t-12 12.5t-18 9.5q-22 8 -22 17q0 10 25 10q5 0 30 -1.5t38 -1.5q8 0 35 1.5t39 1.5q23 0 23 -11
q0 -12 -23 -16q-28 -6 -28 -22q0 -9 11 -34q1 -4 16.5 -45t33 -86.5t26.5 -65.5q3 -10 9 1q11 25 63 158q18 45 18 63q0 22 -39 31q-23 9 -23 17q0 9 23 9q5 0 29 -1t33 -1q18 0 43.5 2.5t31.5 2.5q21 0 21 -10t-24 -16q-15 -4 -24.5 -11t-14 -13.5t-14.5 -23.5
q-31 -58 -96 -215q-34 -85 -41 -107q-5 -13 -14 -13t-21 16q-1 2 -10.5 31t-15.5 43l-61 150q-1 2 -3.5 1.5t-3.5 -2.5q-55 -113 -90 -199q-15 -42 -27 -42t-17 15q-9 22 -30 84q-22 62 -89 219q-14 31 -25 45t-31 19q-24 7 -24 15q0 13 29 13q8 0 35.5 -2t39.5 -2z" />
    <glyph glyph-name="x" unicode="x" horiz-adv-x="428" 
d="M14 387q0 10 27 10q5 0 40 -3t51 -3q12 0 32 1t27 1q22 0 22 -10q0 -11 -19 -17q-19 -7 -19 -20q0 -5 20.5 -39.5t32.5 -51.5q2 -3 6 1q33 42 52 79q12 20 -8 27q-26 11 -26 20q0 11 19 11q4 0 20 -1t26 -1q13 0 46 2.5t40 2.5q21 0 21 -11q0 -10 -19 -15
q-60 -15 -87 -48q-21 -25 -70 -90q-3 -6 -1 -10q33 -70 84 -144q32 -45 76 -55q23 -5 23 -15q0 -13 -25 -13q-14 0 -53 2.5t-58 2.5q-10 0 -26.5 -1t-27.5 -1q-21 0 -21 13q0 7 20 14q15 5 18 11t-8 29q-42 76 -49 84q-2 5 -7 0q-14 -16 -37 -52t-24 -46q-1 -16 27 -28
q14 -5 14 -15t-21 -10q-11 0 -24 1t-20 1q-18 0 -45.5 -2t-36.5 -2q-29 0 -29 11q0 10 24 17q44 11 75 45q11 12 41.5 53t42.5 56q2 3 -1 11q-18 40 -70 121q-33 48 -69 58q-26 7 -26 19z" />
    <glyph glyph-name="y" unicode="y" horiz-adv-x="416" 
d="M-7 383q0 12 24 12q14 0 41 -2t41 -2q17 0 43 1t30 1q23 0 23 -11t-24 -18q-20 -6 -24 -12.5t3 -26.5q12 -36 45 -118t41 -94q1 0 2 -0.5t3 1t3 4.5q8 19 40.5 102t37.5 98q6 21 -2 31t-36 17q-22 6 -22 15q0 11 26 11q10 0 31 -0.5t27 -0.5t28.5 2t36.5 2q21 0 21 -10
q0 -9 -23 -17q-16 -5 -27 -16.5t-23 -34.5q-49 -112 -110 -268q-21 -52 -60 -156t-45 -121q-5 -12 -19.5 -20.5t-33.5 -8.5q-24 0 -35.5 15t-11.5 35q0 14 12.5 29.5t31.5 15.5q2 0 17 -1t21 -1q9 0 16 17q20 38 47 126q6 25 3 33q-9 21 -16 42q-60 164 -116 274
q-5 11 -9 16.5t-12.5 11.5t-24.5 11q-21 6 -21 16z" />
    <glyph glyph-name="z" unicode="z" horiz-adv-x="394" 
d="M205 391q40 0 85 2t54 2q5 0 10 -4q8 -6 2 -14q-4 -7 -23.5 -33t-33.5 -47q-23 -34 -152 -246q-3 -3 -1.5 -6t4.5 -4q19 -7 123 -7q13 0 24 12q22 20 51 59q13 22 20 22q12 0 9 -20q-1 -5 -12.5 -42.5t-14.5 -57.5q-1 -3 -5.5 -7.5t-8.5 -4.5q-2 0 -42.5 1t-89 2.5
t-69.5 1.5q-2 0 -94 -4q-3 0 -8 5t-5 9q0 7 69 106q9 13 144 231q4 6 -3 8q-21 6 -124 6q-7 0 -27 -21t-33 -43q-11 -16 -16 -16q-3 0 -6.5 6t-3.5 11q2 16 8 35q10 33 10 62q0 6 4 9q7 7 10 4q22 -17 53 -17h92z" />
    <glyph glyph-name="braceleft" unicode="{" horiz-adv-x="343" 
d="M37 297q51 11 74.5 37.5t23.5 58.5q0 19 -13 89t-13 82q0 25 15.5 60.5t45.5 59.5q59 45 121 45q18 0 18 -9q0 -3 -4.5 -10.5t-7.5 -8.5q-1 -1 -7 -2.5t-15 -3.5t-14 -4q-83 -21 -83 -121q0 -20 13 -76.5t13 -83.5q0 -34 -29 -65.5t-74 -53.5q-8 -5 -1 -9
q56 -27 80.5 -60.5t24.5 -79.5q0 -40 -22 -133q-10 -41 -10 -57q0 -85 119 -113q13 -2 13 -8q0 -8 -8 -13t-16 -5q-82 0 -129.5 51t-47.5 120q0 11 12.5 77t12.5 88q0 50 -15 73t-58 36q-14 5 -22 13.5t-8 14.5q0 7 11 11z" />
    <glyph glyph-name="bar" unicode="|" horiz-adv-x="261" 
d="M99 743h63v-991h-63v991z" />
    <glyph glyph-name="braceright" unicode="}" horiz-adv-x="343" 
d="M293 266q-51 -10 -74 -38t-23 -60q0 -21 12.5 -101t12.5 -90q0 -27 -15 -60.5t-46 -58.5q-56 -45 -115 -45q-7 0 -12.5 4t-5.5 9q0 6 11 12q8 5 40 15q73 19 73 118q0 20 -12 85.5t-12 93.5q0 38 30 71t74 53q8 4 0 7q-57 28 -80.5 60.5t-23.5 79.5q0 40 20 112
q9 40 9 55q0 46 -30 71t-88 43q-13 3 -13 9t9 12t15 6q82 0 129.5 -51t47.5 -120q0 -11 -11.5 -67t-11.5 -77q0 -49 14.5 -72.5t55.5 -36.5q32 -11 32 -26q0 -7 -12 -13z" />
    <glyph glyph-name="asciitilde" unicode="~" horiz-adv-x="624" 
d="M212 340q26 0 57.5 -17.5t55 -39t50.5 -39t44 -17.5q34 0 53 23t43 82q4 8 11 8q13 0 26 -9t10 -19q-52 -146 -149 -146q-28 0 -59 18t-53.5 39t-49 39t-46.5 18q-51 0 -92 -99q-7 -15 -13 -15q-9 0 -24.5 8.5t-12.5 17.5q21 63 58.5 105.5t90.5 42.5z" />
    <glyph glyph-name="uni00A0" unicode="&#xa0;" horiz-adv-x="198" 
 />
    <glyph glyph-name="exclamdown" unicode="&#xa1;" horiz-adv-x="273" 
d="M123 -172q-31 0 -44 28.5t-12 58.5q1 22 17 149.5t21 151.5q0 10 6.5 20.5t15.5 10.5q16 0 19 -34q1 -9 17 -131.5t19 -167.5q3 -42 -17 -64t-42 -22zM126 324q-29 0 -45.5 20.5t-16.5 43.5q0 27 18 46t45 19q24 0 43 -17t19 -48q0 -30 -20.5 -47t-42.5 -17z" />
    <glyph glyph-name="cent" unicode="&#xa2;" horiz-adv-x="489" 
d="M142 332q0 -119 94 -163q7 -2 7 6l30 311q-3 5 -5 5q-50 0 -88 -50t-38 -109zM60 293q0 122 104 190q46 30 107 40q7 2 7 6l8 71q0 6 6 6q7 0 16 -2.5t9 -4.5l-5 -67q0 -5 4 -7q58 -1 94 -27q17 -13 17 -29q0 -11 -11.5 -22.5t-19.5 -11.5q-7 0 -42 30q-23 18 -44 22
q-4 2 -4 -3l-30 -317q0 -8 5 -9q7 -3 17 -3q51 0 115 47q4 3 7 1t3 -6q0 -18 -14 -34q-48 -52 -135 -64q-6 0 -6 -7l-8 -78q-1 -2 -10 -5t-13 -3q-10 0 -10 7l9 79q0 8 -8 8q-90 15 -136 83q-32 48 -32 110z" />
    <glyph glyph-name="sterling" unicode="&#xa3;" horiz-adv-x="489" 
d="M345 630q45 0 70.5 -22.5t26.5 -53.5q0 -28 -15 -44t-32 -16q-10 0 -10 7q0 2 0.5 9t0.5 10q1 33 -15.5 58t-41.5 25q-78 0 -107 -263q0 -7 6 -7l122 5q4 0 6.5 -4.5t1.5 -9.5q0 -6 -3.5 -13t-6.5 -7l-122 -8q-8 0 -11 -10q-12 -59 -29 -96.5t-48 -70.5q-2 -1 -1 -4.5
t5 -3.5q42 2 93 -22q16 -8 43 -24.5t47 -26.5t35 -10q36 0 49.5 16t14.5 50q0 18 -5 55q0 4 3.5 8t7.5 4q16 0 28 -13.5t11 -37.5q-2 -51 -55.5 -100t-116.5 -49q-9 0 -18 1.5t-19 6.5t-17 9t-19 13.5t-18.5 14.5t-22 18t-22.5 19q-31 25 -57 25q-3 0 -8.5 -7t-13.5 -18.5
t-14 -18.5q-34 -37 -52 -37q-11 0 -19 7t-7 16q0 19 24 48t59 44q9 4 16 13q32 32 41 166q0 8 -5 8l-64 -1q-3 0 -5.5 5t-1.5 10q0 16 8 18l65 5q8 3 8 9q21 196 108 261q45 34 102 34z" />
    <glyph glyph-name="currency" unicode="&#xa4;" horiz-adv-x="489" 
d="M443 469l-50 -55q-3 -4 -1 -10q32 -51 32 -104t-34 -102l-2 -6l53 -60q4 -3 1.5 -12t-10.5 -17q-3 -4 -11 -7.5t-11 -0.5l-61 56q-3 3 -10 -1q-49 -30 -90 -30q-48 0 -92 26q-4 2 -12 -1l-52 -51q-8 -10 -26 6q-19 19 -9 33l47 52q3 6 0 10q-32 51 -32 104q0 43 33 99
q1 1 1.5 5.5t-1.5 6.5l-52 60q-4 5 0.5 14.5t10.5 14.5q17 16 26 8l51 -53q1 -2 7 -3.5t7 0.5q41 26 93 26q50 0 96 -28q6 -3 9 1l50 54q10 10 29 -8q19 -14 10 -27zM249 424q-52 0 -86.5 -35.5t-34.5 -89.5q0 -55 35.5 -89t85.5 -34q49 0 85 34.5t36 88.5q0 51 -37.5 88
t-83.5 37z" />
    <glyph glyph-name="yen" unicode="&#xa5;" horiz-adv-x="489" 
d="M7 611q0 10 23 10q7 0 33 -1.5t40 -1.5q16 0 49.5 1.5t41.5 1.5q22 0 22 -11t-20 -16q-19 -6 -22 -15t6 -27q80 -171 87 -184q3 -5 8 1q26 47 68 133q24 53 24 65q0 15 -37 27q-19 6 -19 16q0 11 23 11q10 0 31 -1.5t30 -1.5q14 -1 38 1t33 2q22 0 22 -10q0 -11 -19 -16
q-16 -5 -26 -10.5t-20.5 -17.5t-14.5 -17.5t-18 -27.5q-57 -92 -97 -178q-4 -8 3 -8l103 -1q5 0 5 -9q0 -7 -4 -14t-8 -7l-103 -1q-5 0 -5 -8v-62q0 -2 2 -5t4 -3h102q6 0 6 -11q0 -7 -3.5 -13.5t-7.5 -6.5l-96 -2q-7 0 -7 -10v-36q0 -70 4.5 -88.5t22.5 -25.5q14 -4 34 -9
q18 -4 18 -14q0 -4 -7 -8t-16 -4q-12 0 -45 1t-45 1q-14 0 -50.5 -2t-51.5 -2q-20 0 -20 11t22 15q32 9 40 23t10 62q1 23 1 75q0 11 -6 11h-101q-7 0 -7 11q0 22 8 22h99q7 0 7 7v61q0 10 -6 10h-92q-8 0 -8 9q0 6 4 14.5t6 8.5h86q5 0 1 9q-54 117 -104 197
q-16 26 -25.5 35t-34.5 16q-21 7 -21 18z" />
    <glyph glyph-name="brokenbar" unicode="&#xa6;" horiz-adv-x="261" 
d="M99 -173v346h63v-346h-63zM99 668h63v-346h-63v346z" />
    <glyph glyph-name="section" unicode="&#xa7;" horiz-adv-x="431" 
d="M267 636q31 0 56 -17q11 -9 11 -19q0 -18 -29 -42q-9 -7 -25 1q-3 2 -13.5 8.5t-17 10t-15.5 7t-16 3.5q-55 0 -55 -62q0 -14 14 -36t28 -38t38.5 -40.5t29.5 -30.5q108 -110 108 -205t-59 -192q-25 -42 -64.5 -74.5t-71.5 -42.5q-24 -7 -40 -7q-22 0 -37.5 6.5t-21.5 14
t-6 13.5q0 7 13.5 24.5t29.5 26.5q9 4 23 -7q28 -22 60 -22q54 0 54 62q0 20 -34 65t-65 75q-72 72 -103 134q-17 36 -17 84q0 83 68 170q8 45 54 85q51 45 103 45zM339 109q0 35 -16 72t-31.5 58t-48.5 61q-6 7 -9 11q-12 14 -42.5 47t-50 56.5t-28.5 41.5q-2 5 -7 0
q-17 -32 -17 -68q0 -86 114 -204q84 -83 112 -147q0 -2 2 -2t3 2q19 29 19 72z" />
    <glyph glyph-name="dieresis" unicode="&#xa8;" horiz-adv-x="400" 
d="M115 601q18 0 30.5 -15t12.5 -33q0 -22 -14.5 -34.5t-32.5 -12.5q-15 0 -29 12.5t-14 33.5q0 20 13 34.5t34 14.5zM287 600q18 0 31.5 -14.5t13.5 -32.5q0 -19 -14.5 -33t-32.5 -14t-31.5 13t-13.5 33q0 21 14.5 34.5t32.5 13.5z" />
    <glyph glyph-name="copyright" unicode="&#xa9;" horiz-adv-x="694" 
d="M348 629q131 0 218.5 -90.5t87.5 -220.5q0 -128 -89 -219.5t-217 -91.5q-134 0 -221 90.5t-87 220.5q0 129 89.5 220t218.5 91zM348 599q-115 0 -193 -81t-78 -199q0 -115 81.5 -198.5t189.5 -83.5q113 0 191 81.5t78 200.5q0 117 -79.5 198.5t-189.5 81.5zM367 494
q35 0 61 -6q6 -1 23.5 -6t24.5 -6q9 -6 10 -24q1 -13 1 -43q0 -19 -11 -19q-9 0 -14 17q-8 26 -34 44t-56 18q-53 0 -87 -38.5t-34 -96.5q0 -80 39.5 -118t85.5 -38q26 0 46 10t28 20t19 27q1 2 3.5 5.5t3.5 4.5t2.5 3.5t3 3.5l3 2t3 1.5t3.5 0.5q5 0 5 -14q-1 -18 -14 -56
q-3 -6 -11 -12.5t-13 -8.5q-34 -16 -90 -16q-49 0 -88.5 17.5t-59.5 40.5q-45 52 -45 115q0 79 60 126q53 46 132 46z" />
    <glyph glyph-name="ordfeminine" unicode="&#xaa;" horiz-adv-x="276" 
d="M143 535q37 0 58.5 -26t21.5 -64q0 -8 -3 -92q-2 -37 25 -37q10 0 24 8q5 -2 6 -9q0 -9 -8 -17q-24 -27 -56 -27q-36 0 -46 32q-2 7 -7 3q-50 -35 -76 -35q-20 0 -38 19t-18 44q0 35 35 49q2 1 41 12.5t55 17.5q6 3 7 9q1 9 1 35q0 20 -14.5 33.5t-32.5 13.5t-29 -6
q-7 -4 -7 -31q0 -5 -6 -9q-1 0 -18.5 -7.5t-22.5 -8.5q-11 -2 -11 6q0 10 10.5 25.5t22.5 25.5q50 36 86 36zM85 344q0 -12 11 -22.5t24 -10.5q18 0 33 15q8 7 8 14q1 7 1 43q0 8 -7 6q-39 -10 -54.5 -19.5t-15.5 -25.5z" />
    <glyph glyph-name="guillemotleft" unicode="&#xab;" horiz-adv-x="688" 
d="M109 184q-8 4 -9.5 12.5t2.5 10.5q142 78 225 148q25 21 37 21q11 0 2 -18q-2 -6 -6 -11q-29 -43 -146 -136q-13 -10 -3 -17q2 -2 28.5 -26t36 -33t29.5 -28.5t32 -33.5t20 -27q19 -29 0 -29q-12 0 -23 10q-95 84 -225 157zM332 184q-8 5 -9.5 13t2.5 10q65 35 128.5 78
t94.5 70q24 21 35 21q4 0 5.5 -4t-0.5 -11t-7 -14q-27 -39 -145 -137q-10 -8 -2 -16q115 -99 147 -150q5 -8 5.5 -17t-6.5 -10q-9 0 -22 10q-98 85 -226 157z" />
    <glyph glyph-name="logicalnot" unicode="&#xac;" horiz-adv-x="624" 
d="M75 349h459q12 0 12 -21v-275q0 -9 -16 -14t-32 -5q-12 0 -12 14l-1 225q0 21 -16 21h-388q-14 0 -17.5 2.5t-3.5 12.5q0 12 4.5 26t10.5 14z" />
    <glyph glyph-name="uni00AD" unicode="&#xad;" horiz-adv-x="296" 
d="M54 232q23 4 63 8t81 8.5t51 5.5q2 0 5.5 -4t3.5 -7q1 -16 -4.5 -33.5t-14.5 -18.5q-20 -2 -93.5 -9l-94.5 -9q-6 -1 -10.5 4t-4.5 10q0 18 6 31t12 14z" />
    <glyph glyph-name="registered" unicode="&#xae;" horiz-adv-x="235" 
d="M128 644q48 0 79.5 -32t31.5 -79q0 -43 -31 -78.5t-82 -35.5q-47 0 -78 33t-31 81q0 45 31.5 78t79.5 33zM128 626q-38 1 -63.5 -26t-25.5 -67t25.5 -66.5t63.5 -26.5q39 0 64 26.5t25 66.5q0 39 -26.5 66t-62.5 27zM93 508v50q0 7 -1.5 10.5t-3 4.5t-6.5 3q-6 2 -7 4.5
t1 3.5t5 2q31 3 49 3q20 0 32 -8t12 -22q0 -12 -18 -21q-2 -2 -1 -4q20 -37 32 -45q6 -3 6 -6q0 -5 -14 -5q-17 0 -28 15q-2 4 -8.5 14.5t-8.5 14.5q-1 4 -9 4q-7 0 -7 -4v-10q0 -12 2 -14.5t14 -7.5q3 -1 4 -3.5t-0.5 -4t-3.5 -1.5h-53q-4 0 -5 3.5t3 4.5q14 6 14 19z
M118 573v-30q0 -4 9 -4q19 0 19 18q0 8 -5 14t-13 6q-10 0 -10 -4z" />
    <glyph glyph-name="macron" unicode="&#xaf;" horiz-adv-x="400" 
d="M98 571l212 4q3 0 5.5 -9t2.5 -14q0 -15 -6 -26.5t-14 -11.5h-207q-8 0 -8 13q0 15 5 29.5t10 14.5z" />
    <glyph glyph-name="degree" unicode="&#xb0;" horiz-adv-x="284" 
d="M146 636q46 0 79 -31.5t33 -84.5t-34.5 -85t-81.5 -32q-49 0 -82.5 31.5t-33.5 85.5q0 51 36 83.5t84 32.5zM139 600q-29 0 -47.5 -23t-18.5 -57q0 -36 21.5 -58t54.5 -22q26 0 44 22t18 58q0 34 -20 57t-52 23z" />
    <glyph glyph-name="plusminus" unicode="&#xb1;" horiz-adv-x="624" 
d="M282 545q0 5 17 10t29 5q10 0 12.5 -3t2.5 -17v-188q0 -12 10 -12h195q9 0 12 -2.5t3 -9.5q0 -18 -4.5 -30.5t-9.5 -12.5h-196q-10 0 -10 -13v-189q0 -11 -16.5 -16t-32.5 -5q-12 0 -12 15v191q0 10 -3 13.5t-12 3.5h-188q-12 0 -15.5 3t-3.5 12q0 12 4.5 26t10.5 14h195
q12 0 12 12v193zM548 5q9 0 12 -2.5t3 -9.5q0 -18 -4.5 -30.5t-9.5 -12.5h-468q-14 0 -17.5 2.5t-3.5 12.5q0 12 4.5 26t10.5 14h473z" />
    <glyph glyph-name="twosuperior" unicode="&#xb2;" horiz-adv-x="301" 
d="M141 771q43 0 72 -29.5t29 -70.5q0 -42 -44 -89q-29 -31 -91 -90q-3 -4 -1 -6t4 -2h38h51.5h23.5q13 0 36 28q9 11 15 11t7.5 -8t-1.5 -15q-18 -37 -25 -70q-2 -6 -7 -6h-20q-20 1 -43.5 1.5t-47.5 0.5h-34l-60 -1q-6 0 -12 3.5t-6 6.5q0 8 8 14q47 41 97 100
q42 51 42 107q0 28 -16 43.5t-41 15.5q-40 0 -66 -31q-11 -9 -18 -9q-8 0 -8 9q0 12 10 23q47 64 108 64z" />
    <glyph glyph-name="threesuperior" unicode="&#xb3;" horiz-adv-x="301" 
d="M149 773q37 0 59.5 -21.5t22.5 -46.5q0 -22 -13 -38t-39 -33q-2 -1 -1.5 -3t2.5 -3q82 -10 82 -77q0 -37 -25.5 -69t-68.5 -53q-34 -17 -75 -17q-19 0 -39 11.5t-20 24.5q0 9 7.5 18.5t15.5 12.5q6 3 12 -3q33 -28 72 -28q23 0 41.5 23t18.5 47q0 31 -17 52t-49 21
q-8 0 -38 -7q-10 -3 -10 3t2 10q7 13 26 22q33 14 44 25.5t11 36.5q0 18 -14 32.5t-32 14.5q-27 0 -58 -27q-19 -16 -19 -4q-2 8 1 14q38 62 101 62z" />
    <glyph glyph-name="acute" unicode="&#xb4;" horiz-adv-x="400" 
d="M250 628q9 20 25 20q37 0 44 -11q5 -8 -5 -27q-15 -28 -46 -76.5t-49 -71.5q-16 -18 -27 -18q-6 0 -6.5 10t2.5 18q28 85 62 156z" />
    <glyph glyph-name="mu" unicode="&#xb5;" horiz-adv-x="460" 
d="M95 408q21 0 49 -18q2 -2 6 -12t4 -14q0 -16 -18 -99q-5 -27 -12.5 -74.5t-8.5 -51.5q-3 -17 2 -41q9 -35 47 -35q32 0 68.5 38.5t56.5 87.5q6 17 8 38q5 113 13 153q1 10 6.5 19.5t9.5 9.5q38 0 63 -25q7 -7 4 -38q-4 -33 -24 -97t-35 -96q-5 -10 -5 -24q-1 -33 17 -50
t38 -17q38 0 68 32q2 3 6 0.5t6 -7.5q2 -7 -1.5 -24.5t-8.5 -27.5q-30 -54 -77 -54q-67 0 -70 116q0 2 -5 1q-1 0 -2 -1q-66 -109 -117 -109q-27 0 -47.5 23.5t-29.5 47.5q-3 5 -6 -4q-1 -2 -1 -4q-2 -21 -3.5 -81.5t1.5 -90.5q12 -67 69 -103q4 -3 1 -16q-5 -12 -30 -25
q-16 -9 -32 -9q-14 0 -32 27q-11 22 -11 111q0 46 7 221q0 30 -1 53q-7 65 -7 248q3 13 11 17q9 5 23 5z" />
    <glyph glyph-name="paragraph" unicode="&#xb6;" horiz-adv-x="548" 
d="M462 625h35q17 0 17 -22q0 -4 -4 -9.5t-7 -5.5q-2 0 -47 -0.5t-55 -0.5q-2 0 -5 -6.5t-3 -12.5q0 -133 1 -273t2 -227t1 -90q0 -47 -4 -81.5t-17 -74t-42.5 -61t-74.5 -21.5q-46 0 -75.5 30t-29.5 68t24.5 66t59.5 28q21 0 36.5 -15t15.5 -32q0 -25 -15.5 -38.5
t-26.5 -13.5q-17 0 -27 6q-8 7 -14 7q-11 0 -11 -14q0 -27 19 -43.5t51 -16.5q88 0 90 175q1 120 0 159q0 12 -8 14q-128 2 -213.5 65t-85.5 183q0 101 76 175q30 31 76.5 49.5t85.5 23.5q74 9 175 9z" />
    <glyph glyph-name="periodcentered" unicode="&#xb7;" horiz-adv-x="212" 
d="M107 259q32 0 47.5 -21.5t15.5 -44.5q0 -29 -18.5 -47t-45.5 -18q-24 0 -43.5 16.5t-19.5 49.5t21.5 49t42.5 16z" />
    <glyph glyph-name="cedilla" unicode="&#xb8;" horiz-adv-x="400" 
d="M266 -137q0 -44 -52 -83q-40 -30 -68 -30q-16 0 -23 13q-3 6 -3 17t4 15q4 7 11 7q30 -6 41 -6q17 0 26.5 11.5t9.5 26.5q0 20 -17.5 33.5t-39.5 13.5q-9 0 -16 -1q-4 0 -10 6t-6 10q0 5 6 13l78 96h32l-42 -53q-3 -8 6 -12q32 -16 47.5 -32t15.5 -45z" />
    <glyph glyph-name="onesuperior" unicode="&#xb9;" horiz-adv-x="301" 
d="M192 764q0 -2 -0.5 -11t-1 -28t-0.5 -41q0 -78 2 -188q1 -25 8 -31.5t37 -16.5q16 -5 16 -12q0 -12 -20 -12q-2 0 -34.5 1t-45.5 1q-23 0 -49 -1l-25 -1q-21 0 -21 11t27 17q20 4 27 11t9 22q5 35 5 138q0 47 -2 71q0 12 -11 16l-31 10q-19 5 -19 12q0 9 18 11
q52 4 101 28q10 6 10 -7z" />
    <glyph glyph-name="ordmasculine" unicode="&#xba;" horiz-adv-x="324" 
d="M162 535q56 0 96.5 -37.5t40.5 -96.5q0 -53 -40 -91.5t-99 -38.5q-55 0 -95 39t-40 93q0 55 40 93.5t97 38.5zM157 512q-33 0 -48.5 -31.5t-15.5 -70.5q0 -45 22 -79t56 -34q33 0 47 30.5t14 71.5q0 42 -23.5 77.5t-51.5 35.5z" />
    <glyph glyph-name="guillemotright" unicode="&#xbb;" horiz-adv-x="688" 
d="M579 208q8 -4 9.5 -12.5t-2.5 -10.5q-142 -78 -225 -148q-23 -20 -37 -20q-11 0 -2 19q3 4 6 9q29 43 146 136q12 10 3 17q-1 1 -28.5 26t-37 34t-30.5 29t-33 34.5t-20 26.5q-18 27 3 28q10 0 23 -11q95 -84 225 -157zM356 208q8 -5 9.5 -13t-2.5 -10
q-65 -35 -128.5 -78t-94.5 -70q-23 -20 -35 -20q-4 0 -6 3.5t0 9.5t7 14q26 39 146 138q10 8 2 16q-113 95 -149 151q-5 7 -5 16.5t8 10.5q8 0 22 -11q98 -85 226 -157z" />
    <glyph glyph-name="onequarter" unicode="&#xbc;" horiz-adv-x="661" 
d="M583 349q8 0 8 -11q0 -1 0.5 -40t0.5 -85.5v-63.5q0 -7 6 -7l55 2q5 0 5 -9q0 -7 -3 -17.5t-7 -11.5l-51 1q-4 0 -4 -8q0 -6 1 -44t0 -48q0 -11 -8 -14q-12 -5 -50 -5q-3 0 -6.5 3t-3.5 8q0 65 2 102q0 6 -6 6q-69 0 -144 -3q-8 0 -8 12q0 2 3 6t8 9l6 6q124 141 152 182
q6 10 20.5 20t23.5 10zM192 617q0 -2 -0.5 -11t-1 -28t-0.5 -41q0 -78 2 -188q1 -25 8 -31.5t37 -16.5q16 -5 16 -12q0 -12 -20 -12q-2 0 -34.5 1t-45.5 1q-23 0 -49 -1l-25 -1q-21 0 -21 11t27 17q20 4 27 11t9 22q5 35 5 138q0 47 -2 71q0 12 -11 16l-31 10q-19 5 -19 12
q0 9 18 11q52 4 101 28q10 6 10 -7zM561 642q9 0 15.5 -7t2.5 -14q-55 -87 -155.5 -246t-166.5 -263t-91 -140q-4 -7 -13 -1q-17 13 -8 27q55 87 149 236t162.5 258t87.5 138q7 12 17 12zM529 146q0 8 2 51.5t2 68.5q0 2 -2.5 2.5t-3.5 -0.5q-2 -3 -40.5 -48t-56.5 -70
q-2 -3 -1 -5.5t4 -2.5l88 -1q8 1 8 5z" />
    <glyph glyph-name="onehalf" unicode="&#xbd;" horiz-adv-x="684" 
d="M524 345q42 0 71.5 -29.5t29.5 -70.5q0 -42 -44 -89q-29 -31 -91 -90q-3 -4 -1 -6t4 -2h113q13 0 36 28q9 11 15 11t7.5 -8t-1.5 -15q-18 -37 -25 -70q-2 -6 -7 -6h-20q-20 1 -43.5 1.5t-47.5 0.5h-34l-60 -1q-6 0 -12 3.5t-6 6.5q0 8 8 14q47 41 97 100q42 51 42 107
q0 28 -16 43.5t-41 15.5q-40 0 -66 -31q-10 -9 -18 -9t-8 9q0 12 10 23q47 64 108 64zM192 617q0 -2 -0.5 -11t-1 -28t-0.5 -41q0 -78 2 -188q1 -25 8 -31.5t37 -16.5q16 -5 16 -12q0 -12 -20 -12q-2 0 -34.5 1t-45.5 1q-23 0 -49 -1l-25 -1q-21 0 -21 11t27 17q20 4 27 11
t9 22q5 35 5 138q0 47 -2 71q0 12 -11 16l-31 10q-19 5 -19 12q0 9 18 11q52 4 101 28q10 6 10 -7zM542 642q9 0 15.5 -7t2.5 -14q-55 -87 -155.5 -246t-166.5 -263t-91 -140q-4 -7 -13 -1q-17 13 -8 27q55 87 149 236t162.5 258t87.5 138q7 12 17 12z" />
    <glyph glyph-name="threequarters" unicode="&#xbe;" horiz-adv-x="635" 
d="M149 626q37 0 59.5 -21.5t22.5 -46.5q0 -22 -13 -38t-39 -33q-2 -1 -1.5 -3t2.5 -3q82 -10 82 -77q0 -37 -25.5 -69t-68.5 -53q-34 -17 -75 -17q-19 0 -39 11.5t-20 24.5q0 9 7.5 18.5t15.5 12.5q6 3 12 -3q33 -28 72 -28q23 0 41.5 23t18.5 47q0 31 -17 52t-49 21
q-8 0 -38 -7q-10 -3 -10 3t2 10q7 13 26 22q33 14 44 25.5t11 36.5q0 18 -14 32.5t-32 14.5q-27 0 -58 -27q-19 -16 -19 -4q-2 8 1 14q38 62 101 62zM538 642q9 0 15.5 -7t2.5 -14q-55 -87 -155.5 -246t-166.5 -263t-91 -140q-4 -7 -13 -1q-17 13 -8 27q55 87 149 236
t162.5 258t87.5 138q7 12 17 12zM558 349q8 0 8 -11v-40t0.5 -85.5t0.5 -63.5q0 -7 6 -7l55 2q5 0 5 -9q0 -7 -3 -17.5t-7 -11.5l-51 1q-4 0 -4 -8q0 -6 1 -44t0 -48q0 -11 -8 -14q-13 -5 -50 -5q-3 0 -6.5 3t-3.5 8q0 65 2 102q0 6 -6 6q-69 0 -144 -3q-8 0 -8 12q0 2 3 6
t8 9l6 6q124 141 152 182q6 10 20.5 20t23.5 10zM504 146q0 8 2 51.5t2 68.5q0 2 -2.5 2.5t-3.5 -0.5q-2 -3 -40.5 -48t-56.5 -70q-2 -3 -0.5 -5.5t3.5 -2.5l88 -1q8 1 8 5z" />
    <glyph glyph-name="questiondown" unicode="&#xbf;" horiz-adv-x="340" 
d="M221 -162q-41 0 -100 48q-10 9 -25 26t-34.5 53t-19.5 66q0 66 37 103q11 8 90 51q4 2 7 4.5t5 5.5t3 5.5t2 6.5l1.5 6t1 7t0.5 7q3 26 18 26q10 0 17 -31q12 -63 12 -77q0 -25 -22 -42t-75 -41q-48 -23 -48 -54q0 -37 15 -57.5t59 -20.5q4 0 24 3t30 3q11 0 26.5 -17.5
t15.5 -42.5q0 -13 -12 -25.5t-28 -12.5zM186 327q-26 0 -42.5 20t-16.5 41q0 26 17.5 44t42.5 18q24 0 42 -16t18 -46q0 -29 -20 -45t-41 -16z" />
    <glyph glyph-name="Agrave" unicode="&#xc0;" horiz-adv-x="676" 
d="M354 658q7 0 15 -24t44 -122q83 -231 144 -386q23 -57 40.5 -74t52.5 -27q25 -6 25 -16q0 -14 -33 -14q-14 0 -59.5 2.5t-67.5 2.5q-17 0 -41 -1t-36 -1q-31 0 -31 13q0 12 25 16q21 4 31 12t10 17t-1 20q-5 27 -55 166q-3 11 -31 11q-125 0 -165 -4q-5 0 -11 -9
q-51 -124 -51 -168q0 -28 50 -43q27 -8 27 -19q0 -13 -29 -13q-6 0 -32 1.5t-47 1.5t-59.5 -2.5t-43.5 -2.5q-24 0 -24 11q0 13 23 20q40 13 55.5 26.5t35.5 58.5q13 27 86 215.5t92 234.5l9 25q3 9 7 16l28 43q10 13 17 13zM393 298q4 0 2 9q-60 182 -76 212q-5 9 -9 -1
q-68 -182 -77 -215q-2 -7 6 -7q14 0 74.5 0.5t79.5 1.5zM241 835q9 0 41 -28q72 -67 97 -92q16 -19 10 -26q-5 -6 -16 -6t-21 6q-60 29 -137 80q-21 15 -21 24q0 10 20 27q18 15 27 15z" />
    <glyph glyph-name="Aacute" unicode="&#xc1;" horiz-adv-x="676" 
d="M354 658q7 0 15 -24t44 -122q83 -231 144 -386q23 -57 40.5 -74t52.5 -27q25 -6 25 -16q0 -14 -33 -14q-14 0 -59.5 2.5t-67.5 2.5q-17 0 -41 -1t-36 -1q-31 0 -31 13q0 12 25 16q21 4 31 12t10 17t-1 20q-5 27 -55 166q-3 11 -31 11q-125 0 -165 -4q-5 0 -11 -9
q-51 -124 -51 -168q0 -28 50 -43q27 -8 27 -19q0 -13 -29 -13q-6 0 -32 1.5t-47 1.5t-59.5 -2.5t-43.5 -2.5q-24 0 -24 11q0 13 23 20q40 13 55.5 26.5t35.5 58.5q13 27 86 215.5t92 234.5l9 25q3 9 7 16l28 43q10 13 17 13zM393 298q4 0 2 9q-60 182 -76 212q-5 9 -9 -1
q-68 -182 -77 -215q-2 -7 6 -7q14 0 74.5 0.5t79.5 1.5zM435 829q13 10 32 6q12 -6 23.5 -17t11.5 -20q0 -16 -23 -29q-71 -46 -149 -80q-25 -12 -37 0q-1 1 -1.5 4.5t3.5 10.5t11 13q58 56 129 112z" />
    <glyph glyph-name="Acircumflex" unicode="&#xc2;" horiz-adv-x="676" 
d="M354 658q7 0 15 -24t44 -122q83 -231 144 -386q23 -57 40.5 -74t52.5 -27q25 -6 25 -16q0 -14 -33 -14q-14 0 -59.5 2.5t-67.5 2.5q-17 0 -41 -1t-36 -1q-31 0 -31 13q0 12 25 16q21 4 31 12t10 17t-1 20q-5 27 -55 166q-3 11 -31 11q-125 0 -165 -4q-5 0 -11 -9
q-51 -124 -51 -168q0 -28 50 -43q27 -8 27 -19q0 -13 -29 -13q-6 0 -32 1.5t-47 1.5t-59.5 -2.5t-43.5 -2.5q-24 0 -24 11q0 13 23 20q40 13 55.5 26.5t35.5 58.5q13 27 86 215.5t92 234.5l9 25q3 9 7 16l28 43q10 13 17 13zM393 298q4 0 2 9q-60 182 -76 212q-5 9 -9 -1
q-68 -182 -77 -215q-2 -7 6 -7q14 0 74.5 0.5t79.5 1.5zM350 808q9 0 42 -26q20 -18 91 -79q7 -5 11 -12t1.5 -12.5t-11.5 -5.5q-8 0 -31 10q-34 15 -98 48q-8 3 -19 -1l-95 -46q-29 -11 -31 -11q-26 0 -2 26l6 6q11 9 45.5 38.5t49.5 41.5q27 23 41 23z" />
    <glyph glyph-name="Atilde" unicode="&#xc3;" horiz-adv-x="676" 
d="M354 658q7 0 15 -24t44 -122q83 -231 144 -386q23 -57 40.5 -74t52.5 -27q25 -6 25 -16q0 -14 -33 -14q-14 0 -59.5 2.5t-67.5 2.5q-17 0 -41 -1t-36 -1q-31 0 -31 13q0 12 25 16q21 4 31 12t10 17t-1 20q-5 27 -55 166q-3 11 -31 11q-125 0 -165 -4q-5 0 -11 -9
q-51 -124 -51 -168q0 -28 50 -43q27 -8 27 -19q0 -13 -29 -13q-6 0 -32 1.5t-47 1.5t-59.5 -2.5t-43.5 -2.5q-24 0 -24 11q0 13 23 20q40 13 55.5 26.5t35.5 58.5q13 27 86 215.5t92 234.5l9 25q3 9 7 16l28 43q10 13 17 13zM393 298q4 0 2 9q-60 182 -76 212q-5 9 -9 -1
q-68 -182 -77 -215q-2 -7 6 -7q14 0 74.5 0.5t79.5 1.5zM215 713q18 31 38 54q8 10 28 10q147 0 157 2q9 2 15.5 7.5t14.5 15.5l7 10q6 8 10 8q3 0 8.5 -5.5t7.5 -9.5q4 -9 -4 -17q-6 -7 -28.5 -36t-28.5 -34q-8 -7 -17 -7q-8 0 -49.5 1t-73.5 1t-39 -2q-13 -3 -33 -31
q-4 -9 -9 -9q-8 0 -12.5 5.5t-4.5 9.5q0 7 13 27z" />
    <glyph glyph-name="Adieresis" unicode="&#xc4;" horiz-adv-x="676" 
d="M354 658q7 0 15 -24t44 -122q83 -231 144 -386q23 -57 40.5 -74t52.5 -27q25 -6 25 -16q0 -14 -33 -14q-14 0 -59.5 2.5t-67.5 2.5q-17 0 -41 -1t-36 -1q-31 0 -31 13q0 12 25 16q21 4 31 12t10 17t-1 20q-5 27 -55 166q-3 11 -31 11q-125 0 -165 -4q-5 0 -11 -9
q-51 -124 -51 -168q0 -28 50 -43q27 -8 27 -19q0 -13 -29 -13q-6 0 -32 1.5t-47 1.5t-59.5 -2.5t-43.5 -2.5q-24 0 -24 11q0 13 23 20q40 13 55.5 26.5t35.5 58.5q13 27 86 215.5t92 234.5l9 25q3 9 7 16l28 43q10 13 17 13zM393 298q4 0 2 9q-60 182 -76 212q-5 9 -9 -1
q-68 -182 -77 -215q-2 -7 6 -7q14 0 74.5 0.5t79.5 1.5zM249 781q18 0 31 -15.5t13 -34.5q0 -22 -14 -34t-34 -12q-17 0 -30 12.5t-13 34.5q0 20 13.5 34.5t33.5 14.5zM451 780q18 0 31 -15t13 -34t-14.5 -32.5t-33.5 -13.5q-17 0 -30.5 12.5t-13.5 33.5t14 35t34 14z" />
    <glyph glyph-name="Aring" unicode="&#xc5;" horiz-adv-x="676" 
d="M354 658q7 0 15 -24t44 -122q83 -231 144 -386q23 -57 40.5 -74t52.5 -27q25 -6 25 -16q0 -14 -33 -14q-14 0 -59.5 2.5t-67.5 2.5q-17 0 -41 -1t-36 -1q-31 0 -31 13q0 12 25 16q21 4 31 12t10 17t-1 20q-5 27 -55 166q-3 11 -31 11q-125 0 -165 -4q-5 0 -11 -9
q-51 -124 -51 -168q0 -28 50 -43q27 -8 27 -19q0 -13 -29 -13q-6 0 -32 1.5t-47 1.5t-59.5 -2.5t-43.5 -2.5q-24 0 -24 11q0 13 23 20q40 13 55.5 26.5t35.5 58.5q13 27 86 215.5t92 234.5l9 25q3 9 7 16l28 43q10 13 17 13zM393 298q4 0 2 9q-60 182 -76 212q-5 9 -9 -1
q-68 -182 -77 -215q-2 -7 6 -7q14 0 74.5 0.5t79.5 1.5zM347 852q38 0 62 -25t24 -60t-24 -60.5t-62 -25.5t-62 25.5t-24 60.5t24 60t62 25zM347 821q-20 0 -33 -15.5t-13 -38.5q0 -25 13.5 -39.5t32.5 -14.5q20 0 33 14.5t13 41.5q0 22 -13.5 37t-32.5 15z" />
    <glyph glyph-name="AE" unicode="&#xc6;" horiz-adv-x="905" 
d="M501 641h207q21 0 43 2t35 4l13 2q3 0 8 -5t5 -11q0 -3 14 -106q1 -6 -2.5 -13t-8.5 -7q-11 0 -22 23q-31 66 -66 71q-12 2 -149 2q-5 0 -8 -4.5t-3 -7.5q-1 -9 -1 -241q0 -22 10 -22q107 0 131 5q20 5 38 44q4 7 11 13t12 6q2 0 4 -3t3 -8t0 -13q-9 -50 -4 -141
q1 -8 -2.5 -14t-8.5 -6q-15 0 -21 23q-8 31 -18.5 40.5t-42.5 9.5q-7 0 -40 0.5t-59 0.5q-10 0 -12 -12q-5 -29 1 -177q2 -51 47 -58q86 -4 125 -3q29 1 49.5 17t58.5 62q14 23 25 23q5 0 9 -8t3 -17q-20 -60 -41 -102q-8 -15 -35 -15q-7 0 -46 1t-100 2.5t-119 1.5
q-13 0 -70 -2.5t-71 -2.5q-23 0 -23 12q0 13 26 19q38 8 49.5 20.5t15.5 43.5q4 35 4 180q0 11 -8 11q-122 3 -163 0q-7 0 -19 -15q-101 -189 -101 -207q0 -17 45 -29q20 -5 20 -14q0 -7 -6.5 -13t-18.5 -6q-10 0 -39.5 1.5t-52.5 1.5q-16 0 -62.5 -3t-52.5 -3q-9 0 -17 4.5
t-8 9.5q0 14 33 19q42 7 67.5 25t59.5 67q50 70 274 468q6 11 -7 15q-8 2 -38.5 6.5t-38.5 6.5q-19 6 -19 16q0 12 29 12q18 0 73.5 -1t75.5 -1zM466 326q9 0 9 15q0 2 1 111t1 122q0 16 -3 16q-5 0 -18 -22q-67 -108 -128 -230q-3 -10 7 -12h35h61h35z" />
    <glyph glyph-name="Ccedilla" unicode="&#xc7;" horiz-adv-x="715" 
d="M430 658q50 0 121 -15q13 -2 40 -9.5t35 -8.5q15 -3 15 -30q0 -19 6 -88q2 -34 -15 -34q-9 0 -16 27q-17 55 -42 73q-68 54 -158 54q-116 0 -186.5 -82.5t-70.5 -200.5q0 -96 35 -166q39 -79 108.5 -118t138.5 -39q62 0 107 26q53 29 91 95q9 17 13 21.5t10 4.5
q14 0 8 -32q-6 -39 -38 -98q-8 -17 -32 -28q-58 -23 -158 -27l-26 -34q-3 -8 7 -13q34 -17 50.5 -34t16.5 -47q0 -44 -55 -88q-44 -32 -73 -32q-15 0 -24 15q-10 16 1 31q7 10 15 9q28 -6 40 -6q18 0 28 12t10 28q0 21 -18.5 35.5t-41.5 14.5q-10 0 -18 -1q-3 0 -9.5 6
t-6.5 10q0 6 7 14l63 79q-92 3 -165.5 38.5t-109.5 77.5q-84 97 -84 229q0 77 35 142t76 98q110 91 270 91z" />
    <glyph glyph-name="Egrave" unicode="&#xc8;" horiz-adv-x="568" 
d="M228 641h148q71 0 92 4q2 1 5 -3.5t4 -8.5q0 -23 1 -56t1 -41q0 -11 -4.5 -19t-11.5 -8q-11 0 -16 25q-9 37 -24.5 51t-41.5 18q-42 7 -142 5q-2 0 -4.5 -2t-6 -9t-3.5 -18q-1 -18 -3 -113t-1 -113q2 -9 9 -9h67q48 0 66 3.5t26 11.5t18 34q9 22 19 22q12 0 9 -24
q-3 -41 -3 -71q0 -12 0.5 -22.5t1.5 -21.5t1 -19q0 -28 -12 -28q-11 0 -17 21q-10 34 -22 42.5t-54 10.5q-32 2 -100 2q-3 0 -6 -3.5t-3 -5.5q-3 -17 -3 -154q0 -56 8 -82q8 -20 20 -23q40 -7 89 -7q69 0 95 8q51 15 81 74q15 29 25 29q6 0 8 -9.5t0 -18.5q0 -6 -15.5 -53.5
t-20.5 -55.5q-8 -11 -19 -11q-1 0 -53.5 1.5t-131 3.5t-142.5 2q-30 0 -63 -2.5t-49 -2.5q-31 0 -31 13q0 10 28 17q41 9 55.5 22t17.5 52q7 96 7 274q0 47 0.5 89t0.5 57.5t-1 28.5q-2 32 -13 45t-43 20q-30 7 -30 17q0 14 29 14q22 0 73 -1.5t85 -1.5zM196 842
q10 0 41 -28q72 -67 97 -92q16 -19 10 -26q-5 -6 -16 -6t-21 6q-60 29 -137 80q-21 15 -21 24q0 10 20 27q18 15 27 15z" />
    <glyph glyph-name="Eacute" unicode="&#xc9;" horiz-adv-x="568" 
d="M228 641h148q71 0 92 4q2 1 5 -3.5t4 -8.5q0 -23 1 -56t1 -41q0 -11 -4.5 -19t-11.5 -8q-11 0 -16 25q-9 37 -24.5 51t-41.5 18q-42 7 -142 5q-2 0 -4.5 -2t-6 -9t-3.5 -18q-1 -18 -3 -113t-1 -113q2 -9 9 -9h67q48 0 66 3.5t26 11.5t18 34q9 22 19 22q12 0 9 -24
q-3 -41 -3 -71q0 -12 0.5 -22.5t1.5 -21.5t1 -19q0 -28 -12 -28q-11 0 -17 21q-10 34 -22 42.5t-54 10.5q-32 2 -100 2q-3 0 -6 -3.5t-3 -5.5q-3 -17 -3 -154q0 -56 8 -82q8 -20 20 -23q40 -7 89 -7q69 0 95 8q51 15 81 74q15 29 25 29q6 0 8 -9.5t0 -18.5q0 -6 -15.5 -53.5
t-20.5 -55.5q-8 -11 -19 -11q-1 0 -53.5 1.5t-131 3.5t-142.5 2q-30 0 -63 -2.5t-49 -2.5q-31 0 -31 13q0 10 28 17q41 9 55.5 22t17.5 52q7 96 7 274q0 47 0.5 89t0.5 57.5t-1 28.5q-2 32 -13 45t-43 20q-30 7 -30 17q0 14 29 14q22 0 73 -1.5t85 -1.5zM368 828q13 10 32 6
q35 -18 35 -37q0 -16 -23 -29q-71 -46 -149 -80q-25 -12 -37 0q-1 1 -1.5 4.5t3.5 10.5t11 13q58 56 129 112z" />
    <glyph glyph-name="Ecircumflex" unicode="&#xca;" horiz-adv-x="568" 
d="M228 641h148q71 0 92 4q2 1 5 -3.5t4 -8.5q0 -23 1 -56t1 -41q0 -11 -4.5 -19t-11.5 -8q-11 0 -16 25q-9 37 -24.5 51t-41.5 18q-42 7 -142 5q-2 0 -4.5 -2t-6 -9t-3.5 -18q-1 -18 -3 -113t-1 -113q2 -9 9 -9h67q48 0 66 3.5t26 11.5t18 34q9 22 19 22q12 0 9 -24
q-3 -41 -3 -71q0 -12 0.5 -22.5t1.5 -21.5t1 -19q0 -28 -12 -28q-11 0 -17 21q-10 34 -22 42.5t-54 10.5q-32 2 -100 2q-3 0 -6 -3.5t-3 -5.5q-3 -17 -3 -154q0 -56 8 -82q8 -20 20 -23q40 -7 89 -7q69 0 95 8q51 15 81 74q15 29 25 29q6 0 8 -9.5t0 -18.5q0 -6 -15.5 -53.5
t-20.5 -55.5q-8 -11 -19 -11q-1 0 -53.5 1.5t-131 3.5t-142.5 2q-30 0 -63 -2.5t-49 -2.5q-31 0 -31 13q0 10 28 17q41 9 55.5 22t17.5 52q7 96 7 274q0 47 0.5 89t0.5 57.5t-1 28.5q-2 32 -13 45t-43 20q-30 7 -30 17q0 14 29 14q22 0 73 -1.5t85 -1.5zM291 823q9 0 42 -26
q20 -18 91 -79q7 -5 11 -12t1.5 -12.5t-11.5 -5.5q-8 0 -31 10q-34 15 -98 48q-8 3 -19 -1l-95 -46q-29 -11 -31 -11q-26 0 -2 26l6 6q11 9 45.5 38.5t49.5 41.5q27 23 41 23z" />
    <glyph glyph-name="Edieresis" unicode="&#xcb;" horiz-adv-x="568" 
d="M228 641h148q71 0 92 4q2 1 5 -3.5t4 -8.5q0 -23 1 -56t1 -41q0 -11 -4.5 -19t-11.5 -8q-11 0 -16 25q-9 37 -24.5 51t-41.5 18q-42 7 -142 5q-2 0 -4.5 -2t-6 -9t-3.5 -18q-1 -18 -3 -113t-1 -113q2 -9 9 -9h67q48 0 66 3.5t26 11.5t18 34q9 22 19 22q12 0 9 -24
q-3 -41 -3 -71q0 -12 0.5 -22.5t1.5 -21.5t1 -19q0 -28 -12 -28q-11 0 -17 21q-10 34 -22 42.5t-54 10.5q-32 2 -100 2q-3 0 -6 -3.5t-3 -5.5q-3 -17 -3 -154q0 -56 8 -82q8 -20 20 -23q40 -7 89 -7q69 0 95 8q51 15 81 74q15 29 25 29q6 0 8 -9.5t0 -18.5q0 -6 -15.5 -53.5
t-20.5 -55.5q-8 -11 -19 -11q-1 0 -53.5 1.5t-131 3.5t-142.5 2q-30 0 -63 -2.5t-49 -2.5q-31 0 -31 13q0 10 28 17q41 9 55.5 22t17.5 52q7 96 7 274q0 47 0.5 89t0.5 57.5t-1 28.5q-2 32 -13 45t-43 20q-30 7 -30 17q0 14 29 14q22 0 73 -1.5t85 -1.5zM187 794
q18 0 31 -15.5t13 -34.5q0 -22 -14 -34t-34 -12q-17 0 -30 12.5t-13 34.5q0 20 13.5 34.5t33.5 14.5zM389 793q18 0 31 -15t13 -34t-14.5 -32.5t-33.5 -13.5q-17 0 -30.5 12.5t-13.5 33.5t14 35t34 14z" />
    <glyph glyph-name="Igrave" unicode="&#xcc;" horiz-adv-x="345" 
d="M127 328q0 162 -3 213q-2 28 -4.5 38.5t-14 19.5t-38.5 14q-29 6 -29 18q0 13 27 13q12 0 52.5 -1.5t57.5 -1.5q26 0 59.5 1.5t49.5 1.5q26 0 26 -13q0 -12 -26 -17q-20 -4 -32.5 -10t-18 -16.5t-6.5 -16.5t-3 -20q-6 -48 -6 -282q0 -110 3 -158q3 -45 14.5 -61t56.5 -25
q27 -6 27 -18q0 -13 -28 -13q-27 0 -81.5 3t-67.5 3q-14 0 -37.5 -1t-42.5 -1q-27 0 -27 15q0 11 30 17q35 8 44.5 22t12.5 51q5 60 5 225zM83 844q9 0 41 -28q72 -67 97 -92q16 -19 10 -26q-5 -6 -16 -6t-21 6q-60 29 -137 80q-21 15 -21 24q0 10 20 27q18 15 27 15z" />
    <glyph glyph-name="Iacute" unicode="&#xcd;" horiz-adv-x="345" 
d="M127 328q0 162 -3 213q-2 28 -4.5 38.5t-14 19.5t-38.5 14q-29 6 -29 18q0 13 27 13q12 0 52.5 -1.5t57.5 -1.5q26 0 59.5 1.5t49.5 1.5q26 0 26 -13q0 -12 -26 -17q-20 -4 -32.5 -10t-18 -16.5t-6.5 -16.5t-3 -20q-6 -48 -6 -282q0 -110 3 -158q3 -45 14.5 -61t56.5 -25
q27 -6 27 -18q0 -13 -28 -13q-27 0 -81.5 3t-67.5 3q-14 0 -37.5 -1t-42.5 -1q-27 0 -27 15q0 11 30 17q35 8 44.5 22t12.5 51q5 60 5 225zM261 837q13 10 32 6q12 -6 23.5 -17t11.5 -20q0 -16 -23 -29q-71 -46 -149 -80q-25 -12 -37 0q-1 1 -1.5 4.5t3.5 10.5t11 13
q58 56 129 112z" />
    <glyph glyph-name="Icircumflex" unicode="&#xce;" horiz-adv-x="345" 
d="M127 328q0 162 -3 213q-2 28 -4.5 38.5t-14 19.5t-38.5 14q-29 6 -29 18q0 13 27 13q12 0 52.5 -1.5t57.5 -1.5q26 0 59.5 1.5t49.5 1.5q26 0 26 -13q0 -12 -26 -17q-20 -4 -32.5 -10t-18 -16.5t-6.5 -16.5t-3 -20q-6 -48 -6 -282q0 -110 3 -158q3 -45 14.5 -61t56.5 -25
q27 -6 27 -18q0 -13 -28 -13q-27 0 -81.5 3t-67.5 3q-14 0 -37.5 -1t-42.5 -1q-27 0 -27 15q0 11 30 17q35 8 44.5 22t12.5 51q5 60 5 225zM180 828q9 0 42 -26q20 -18 91 -79q7 -5 11 -12t1.5 -12.5t-11.5 -5.5q-8 0 -31 10q-34 15 -98 48q-8 3 -19 -1l-95 -46
q-29 -11 -31 -11q-26 0 -2 26l6 6q11 9 45.5 38.5t49.5 41.5q27 23 41 23z" />
    <glyph glyph-name="Idieresis" unicode="&#xcf;" horiz-adv-x="345" 
d="M127 328q0 162 -3 213q-2 28 -4.5 38.5t-14 19.5t-38.5 14q-29 6 -29 18q0 13 27 13q12 0 52.5 -1.5t57.5 -1.5q26 0 59.5 1.5t49.5 1.5q26 0 26 -13q0 -12 -26 -17q-20 -4 -32.5 -10t-18 -16.5t-6.5 -16.5t-3 -20q-6 -48 -6 -282q0 -110 3 -158q3 -45 14.5 -61t56.5 -25
q27 -6 27 -18q0 -13 -28 -13q-27 0 -81.5 3t-67.5 3q-14 0 -37.5 -1t-42.5 -1q-27 0 -27 15q0 11 30 17q35 8 44.5 22t12.5 51q5 60 5 225zM76 793q18 0 31 -15.5t13 -34.5q0 -22 -14 -34t-34 -12q-17 0 -30 12.5t-13 34.5q0 20 13.5 34.5t33.5 14.5zM278 792q18 0 31 -15
t13 -34t-14.5 -32.5t-33.5 -13.5q-17 0 -30.5 12.5t-13.5 33.5t14 35t34 14z" />
    <glyph glyph-name="Eth" unicode="&#xd0;" horiz-adv-x="756" 
d="M45 349l74 1q8 0 8 10l-4 165q-2 51 -11 65.5t-52 21.5q-23 4 -23 15q0 14 25 14h33q21 0 110.5 4t135.5 4q93 0 164.5 -30t111.5 -67q40 -39 65.5 -100t25.5 -120q0 -99 -49 -175.5t-110 -111.5q-95 -55 -236 -55q-84 0 -198 7q-21 1 -56 1q-32 0 -32 16q0 12 21 14
q50 6 63.5 25.5t13.5 82.5q0 29 1 81.5t1 82.5q0 10 -6 10l-73 1q-1 0 -4 1.5t-5.5 5.5t-2.5 9q0 4 2.5 13t6.5 9zM394 312l-169 -2q-7 0 -7 -9q3 -182 4 -204q4 -38 22 -50q13 -11 37.5 -18.5t42.5 -7.5q40 0 89.5 15.5t87.5 47.5q102 85 102 248q0 63 -28 125.5t-74 99.5
q-35 29 -91 45t-113 16q-51 0 -64 -8q-9 -6 -10 -15q-2 -5 -2.5 -45t-1 -101t-1.5 -89q0 -10 8 -10h166q15 0 15 -9q0 -10 -4 -19.5t-9 -9.5z" />
    <glyph glyph-name="Ntilde" unicode="&#xd1;" horiz-adv-x="771" 
d="M17 631q0 13 31 13q8 0 54 -1.5t75 -1.5q9 0 22 -13q28 -33 79 -99q21 -27 325 -359q4 -4 7 -0.5t3 7.5q2 12 2 272q0 26 -5 101q-2 43 -63 60q-28 8 -28 22q0 10 27 10q12 0 39 -0.5t43 -0.5q20 0 53 2t45 2q23 0 23 -11q0 -15 -24 -20q-35 -10 -48 -23.5t-15 -50.5
q-11 -128 -11 -398q0 -24 3.5 -78t3.5 -60q0 -8 -4.5 -14.5t-10.5 -6.5q-19 0 -47 34q-42 54 -63 80q-48 57 -179 207.5t-175 202.5q-3 3 -7.5 2t-4.5 -4q0 -7 -2 -47.5t-2 -85.5q0 -34 -1 -102t-1 -111t2 -59q2 -33 14.5 -48t48.5 -25q25 -6 25 -18q0 -14 -32 -14
q-14 0 -49 2.5t-54 2.5q-12 0 -37.5 -1t-33.5 -1q-26 0 -26 11q0 12 20 18q23 7 31 10.5t19.5 13.5t15.5 26t5 44q19 331 19 398q0 42 -8 50q-19 22 -32.5 30t-49.5 16q-22 6 -22 16zM267 724q18 31 38 54q8 10 28 10q147 0 157 2q9 2 15.5 7.5t14.5 15.5l7 10q6 8 10 8
q3 0 8.5 -5.5t7.5 -9.5q4 -9 -4 -17q-6 -7 -28.5 -36t-28.5 -34q-8 -7 -17 -7q-8 0 -49.5 1t-73.5 1t-39 -2q-13 -3 -33 -31q-4 -9 -9 -9q-8 0 -12.5 5.5t-4.5 9.5q0 7 13 27z" />
    <glyph glyph-name="Ograve" unicode="&#xd2;" horiz-adv-x="782" 
d="M386 658q148 0 247.5 -95t99.5 -234q0 -97 -39 -169.5t-100 -116.5q-42 -31 -98 -46t-103 -15q-76 0 -145 30.5t-115 82.5q-84 90 -84 227q0 160 130 266q37 30 95 50t112 20zM363 625q-33 0 -70.5 -15.5t-61.5 -39.5q-76 -72 -76 -234q0 -76 32 -148.5t93.5 -121.5
t136.5 -49q35 0 64.5 9.5t42 18.5t19.5 18q35 32 59.5 93.5t24.5 142.5q0 78 -31.5 152.5t-86.5 119.5q-29 24 -70 39t-76 15zM310 855q10 0 41 -28q72 -67 97 -92q16 -19 10 -26q-5 -6 -16 -6t-21 6q-60 29 -137 80q-21 15 -21 24q0 10 20 27q17 15 27 15z" />
    <glyph glyph-name="Oacute" unicode="&#xd3;" horiz-adv-x="782" 
d="M386 658q148 0 247.5 -95t99.5 -234q0 -97 -39 -169.5t-100 -116.5q-42 -31 -98 -46t-103 -15q-76 0 -145 30.5t-115 82.5q-84 90 -84 227q0 160 130 266q37 30 95 50t112 20zM363 625q-33 0 -70.5 -15.5t-61.5 -39.5q-76 -72 -76 -234q0 -76 32 -148.5t93.5 -121.5
t136.5 -49q35 0 64.5 9.5t42 18.5t19.5 18q35 32 59.5 93.5t24.5 142.5q0 78 -31.5 152.5t-86.5 119.5q-29 24 -70 39t-76 15zM459 848q13 10 32 6q35 -18 35 -37q0 -16 -23 -29q-71 -46 -149 -80q-25 -12 -37 0q-1 1 -1.5 4.5t3.5 10.5t11 13q58 56 129 112z" />
    <glyph glyph-name="Ocircumflex" unicode="&#xd4;" horiz-adv-x="782" 
d="M386 658q148 0 247.5 -95t99.5 -234q0 -97 -39 -169.5t-100 -116.5q-42 -31 -98 -46t-103 -15q-76 0 -145 30.5t-115 82.5q-84 90 -84 227q0 160 130 266q37 30 95 50t112 20zM363 625q-33 0 -70.5 -15.5t-61.5 -39.5q-76 -72 -76 -234q0 -76 32 -148.5t93.5 -121.5
t136.5 -49q35 0 64.5 9.5t42 18.5t19.5 18q35 32 59.5 93.5t24.5 142.5q0 78 -31.5 152.5t-86.5 119.5q-29 24 -70 39t-76 15zM396 835q9 0 42 -26q20 -18 91 -79q7 -5 11 -12t1.5 -12.5t-11.5 -5.5q-8 0 -31 10q-34 15 -98 48q-8 3 -19 -1l-95 -46q-29 -11 -31 -11
q-26 0 -2 26l6 6q11 9 45.5 38.5t49.5 41.5q27 23 41 23z" />
    <glyph glyph-name="Otilde" unicode="&#xd5;" horiz-adv-x="782" 
d="M386 658q148 0 247.5 -95t99.5 -234q0 -97 -39 -169.5t-100 -116.5q-42 -31 -98 -46t-103 -15q-76 0 -145 30.5t-115 82.5q-84 90 -84 227q0 160 130 266q37 30 95 50t112 20zM363 625q-33 0 -70.5 -15.5t-61.5 -39.5q-76 -72 -76 -234q0 -76 32 -148.5t93.5 -121.5
t136.5 -49q35 0 64.5 9.5t42 18.5t19.5 18q35 32 59.5 93.5t24.5 142.5q0 78 -31.5 152.5t-86.5 119.5q-29 24 -70 39t-76 15zM253 742q18 31 38 54q8 10 28 10q147 0 157 2q9 2 15.5 7.5t14.5 15.5l7 10q6 8 10 8q3 0 8.5 -5.5t7.5 -9.5q4 -9 -4 -17q-6 -7 -28.5 -36
t-28.5 -34q-8 -7 -17 -7q-8 0 -49.5 1t-73.5 1t-39 -2q-13 -3 -33 -31q-4 -9 -9 -9q-8 0 -12.5 5.5t-4.5 9.5q0 7 13 27z" />
    <glyph glyph-name="Odieresis" unicode="&#xd6;" horiz-adv-x="782" 
d="M386 658q148 0 247.5 -95t99.5 -234q0 -97 -39 -169.5t-100 -116.5q-42 -31 -98 -46t-103 -15q-76 0 -145 30.5t-115 82.5q-84 90 -84 227q0 160 130 266q37 30 95 50t112 20zM363 625q-33 0 -70.5 -15.5t-61.5 -39.5q-76 -72 -76 -234q0 -76 32 -148.5t93.5 -121.5
t136.5 -49q35 0 64.5 9.5t42 18.5t19.5 18q35 32 59.5 93.5t24.5 142.5q0 78 -31.5 152.5t-86.5 119.5q-29 24 -70 39t-76 15zM293 803q18 0 31 -15.5t13 -34.5q0 -22 -14 -34t-34 -12q-17 0 -30 12.5t-13 34.5q0 20 13.5 34.5t33.5 14.5zM495 802q18 0 31 -15t13 -34
t-14.5 -32.5t-33.5 -13.5q-17 0 -30.5 12.5t-13.5 33.5t14 35t34 14z" />
    <glyph glyph-name="multiply" unicode="&#xd7;" horiz-adv-x="624" 
d="M92 428q-8 6 22 36q13 13 27 0l164 -165q9 -8 17 0l165 170q10 9 18 1q28 -28 19 -37l-168 -172q-9 -7 2 -18l168 -168q6 -11 0.5 -23t-17.5 -23q-9 -9 -19 2l-173 173q-8 7 -11.5 7t-9.5 -7l-159 -160q-15 -15 -25 -5q-8 7 -14 20t-2 17l165 167q8 8 0 15z" />
    <glyph glyph-name="Oslash" unicode="&#xd8;" horiz-adv-x="782" 
d="M386 658q106 0 194 -54q4 -2 10 4q18 24 30 38t16 14q9 0 18 -12q2 -2 2 -6t-2 -5q-5 -7 -19.5 -26t-18.5 -25q-3 -4 0 -7q56 -46 86.5 -113t30.5 -138q0 -96 -39.5 -168.5t-101.5 -117.5q-85 -60 -201 -60q-99 0 -185 52q-7 5 -12 0q-11 -15 -26.5 -34t-22.5 -28
q-2 -4 -11.5 -3t-13.5 5t-5.5 10.5t0.5 8.5q30 38 48 64q3 5 -2 10q-112 99 -112 253q0 164 128 266q37 30 96.5 51t112.5 21zM361 624q-32 0 -68 -15t-60 -39q-77 -73 -77 -235q0 -109 62 -201q4 -4 8 1q59 77 176 228.5t138 178.5q1 1 0.5 4.5t-1.5 4.5q-75 73 -178 73z
M416 16q76 0 124 44q35 33 61 96t26 144q0 109 -60 210q-4 7 -8 1q-171 -230 -311 -406q-5 -7 0 -10q32 -34 78.5 -56.5t89.5 -22.5z" />
    <glyph glyph-name="Ugrave" unicode="&#xd9;" horiz-adv-x="762" 
d="M37 632q0 12 28 12q22 0 55.5 -1.5t51.5 -1.5q20 0 55.5 1t44.5 1q30 0 30 -12t-29 -18t-42.5 -17.5t-17.5 -40.5q-4 -33 -4 -277q0 -78 14.5 -118.5t42.5 -71.5q19 -22 61 -37t78 -15q38 0 72.5 10.5t67.5 43t45 84.5q21 93 21 255q0 101 -4 123q-2 29 -14.5 42
t-51.5 22q-23 5 -23 17q0 11 25 11q11 0 40 -1.5t46 -1.5q22 0 50.5 1t40.5 1q25 0 25 -12q0 -9 -23 -17q-35 -10 -49.5 -29t-15.5 -63q-1 -26 -4.5 -109.5t-4.5 -99.5q-8 -230 -125 -298q-55 -31 -143 -31q-61 0 -110 18.5t-72 40.5q-43 41 -62 105t-19 185q0 199 -3 238
q-3 32 -54 43q-23 6 -23 18zM309 841q9 0 41 -28q72 -67 97 -92q16 -19 10 -26q-5 -6 -16 -6t-21 6q-60 29 -137 80q-21 15 -21 24q0 10 20 27q17 15 27 15z" />
    <glyph glyph-name="Uacute" unicode="&#xda;" horiz-adv-x="762" 
d="M37 632q0 12 28 12q22 0 55.5 -1.5t51.5 -1.5q20 0 55.5 1t44.5 1q30 0 30 -12t-29 -18t-42.5 -17.5t-17.5 -40.5q-4 -33 -4 -277q0 -78 14.5 -118.5t42.5 -71.5q19 -22 61 -37t78 -15q38 0 72.5 10.5t67.5 43t45 84.5q21 93 21 255q0 101 -4 123q-2 29 -14.5 42
t-51.5 22q-23 5 -23 17q0 11 25 11q11 0 40 -1.5t46 -1.5q22 0 50.5 1t40.5 1q25 0 25 -12q0 -9 -23 -17q-35 -10 -49.5 -29t-15.5 -63q-1 -26 -4.5 -109.5t-4.5 -99.5q-8 -230 -125 -298q-55 -31 -143 -31q-61 0 -110 18.5t-72 40.5q-43 41 -62 105t-19 185q0 199 -3 238
q-3 32 -54 43q-23 6 -23 18zM482 830q13 10 32 6q35 -18 35 -37q0 -16 -23 -29q-71 -46 -149 -80q-25 -12 -37 0q-1 1 -1.5 4.5t3.5 10.5t11 13q58 56 129 112z" />
    <glyph glyph-name="Ucircumflex" unicode="&#xdb;" horiz-adv-x="762" 
d="M37 632q0 12 28 12q22 0 55.5 -1.5t51.5 -1.5q20 0 55.5 1t44.5 1q30 0 30 -12t-29 -18t-42.5 -17.5t-17.5 -40.5q-4 -33 -4 -277q0 -78 14.5 -118.5t42.5 -71.5q19 -22 61 -37t78 -15q38 0 72.5 10.5t67.5 43t45 84.5q21 93 21 255q0 101 -4 123q-2 29 -14.5 42
t-51.5 22q-23 5 -23 17q0 11 25 11q11 0 40 -1.5t46 -1.5q22 0 50.5 1t40.5 1q25 0 25 -12q0 -9 -23 -17q-35 -10 -49.5 -29t-15.5 -63q-1 -26 -4.5 -109.5t-4.5 -99.5q-8 -230 -125 -298q-55 -31 -143 -31q-61 0 -110 18.5t-72 40.5q-43 41 -62 105t-19 185q0 199 -3 238
q-3 32 -54 43q-23 6 -23 18zM406 829q9 0 42 -26q20 -18 91 -79q7 -5 11 -12t1.5 -12.5t-11.5 -5.5q-8 0 -31 10q-34 15 -98 48q-8 3 -19 -1l-95 -46q-29 -11 -31 -11q-26 0 -2 26l6 6q11 9 45.5 38.5t49.5 41.5q27 23 41 23z" />
    <glyph glyph-name="Udieresis" unicode="&#xdc;" horiz-adv-x="762" 
d="M37 632q0 12 28 12q22 0 55.5 -1.5t51.5 -1.5q20 0 55.5 1t44.5 1q30 0 30 -12t-29 -18t-42.5 -17.5t-17.5 -40.5q-4 -33 -4 -277q0 -78 14.5 -118.5t42.5 -71.5q19 -22 61 -37t78 -15q38 0 72.5 10.5t67.5 43t45 84.5q21 93 21 255q0 101 -4 123q-2 29 -14.5 42
t-51.5 22q-23 5 -23 17q0 11 25 11q11 0 40 -1.5t46 -1.5q22 0 50.5 1t40.5 1q25 0 25 -12q0 -9 -23 -17q-35 -10 -49.5 -29t-15.5 -63q-1 -26 -4.5 -109.5t-4.5 -99.5q-8 -230 -125 -298q-55 -31 -143 -31q-61 0 -110 18.5t-72 40.5q-43 41 -62 105t-19 185q0 199 -3 238
q-3 32 -54 43q-23 6 -23 18zM309 793q18 0 31 -15.5t13 -34.5q0 -22 -14 -34t-34 -12q-17 0 -30 12.5t-13 34.5q0 20 13.5 34.5t33.5 14.5zM511 792q18 0 31 -15t13 -34t-14.5 -32.5t-33.5 -13.5q-17 0 -30.5 12.5t-13.5 33.5t14 35t34 14z" />
    <glyph glyph-name="Yacute" unicode="&#xdd;" horiz-adv-x="626" 
d="M4 635q0 11 27 11q5 0 47.5 -2.5t69.5 -2.5q12 0 35.5 1t45.5 1t22 -11q0 -15 -22 -19q-24 -6 -26.5 -17t9.5 -30q10 -20 128 -215q1 -2 5.5 -1.5t5.5 3.5q54 80 125 202q15 26 8.5 38t-37.5 20q-23 6 -23 20q0 9 23 9q14 0 34.5 -0.5t31.5 -0.5q20 0 63.5 2t49.5 2
q21 0 21 -10q0 -11 -26 -19q-58 -15 -108 -77q-21 -26 -45 -62t-51.5 -78.5t-36.5 -55.5q-22 -37 -22 -59q0 -172 6 -210q3 -18 16.5 -28t53.5 -20q26 -7 26 -18q0 -12 -30 -12q-6 0 -43 2t-49 2q-36 0 -88 -3t-53 -3q-25 0 -25 11q0 14 28 19q63 14 65 47q2 28 2 204
q0 23 -9 39q-25 53 -124 208q-36 53 -54 70t-48 24q-28 6 -28 19zM422 828q13 10 32 6q35 -18 35 -37q0 -16 -23 -29q-71 -46 -149 -80q-25 -12 -37 0q-1 1 -1.5 4.5t3.5 10.5t11 13q58 56 129 112z" />
    <glyph glyph-name="Thorn" unicode="&#xde;" horiz-adv-x="554" 
d="M121 137q4 52 4 395q0 46 -8 58t-38 21q-6 2 -10 3q-22 7 -22 17q0 12 25 12q13 0 48 -1t50 -1q12 0 49 1t54 1q25 0 25 -13q0 -12 -26 -17q-41 -10 -48.5 -22.5t-7.5 -74.5q0 -3 2.5 -6t4.5 -3t32.5 1.5t51.5 1.5q85 0 146.5 -44t61.5 -133q0 -87 -60.5 -138.5
t-150.5 -51.5q-51 0 -80 11q-8 2 -8 -5q0 -63 6 -81t21 -25q22 -9 50 -14q23 -5 23 -17q0 -15 -32 -15q-8 0 -53 1.5t-70 1.5q-18 0 -53 -1.5t-49 -1.5q-24 0 -24 14q0 11 23 18q42 12 51 27.5t12 80.5zM418 325q0 79 -44.5 116t-108.5 37q-38 0 -44 -15q-5 -15 -5 -34v-225
q0 -4 4 -10t7 -7q26 -8 50 -8q54 0 97.5 40t43.5 106z" />
    <glyph glyph-name="germandbls" unicode="&#xdf;" horiz-adv-x="506" 
d="M317 712q38 0 67 -14.5t44.5 -36.5t23.5 -45.5t8 -45.5q0 -29 -8 -50.5t-13 -27.5t-22 -25q-6 -7 -62 -58l-20 -20t-11.5 -16.5t-6.5 -22.5q0 -23 24 -40q34 -20 83 -63q18 -16 26.5 -26t16.5 -30.5t8 -46.5q0 -45 -30.5 -82.5t-76.5 -57.5q-34 -16 -62 -16
q-19 0 -37.5 9t-18.5 32q0 8 6 20.5t11 17.5q2 2 8 4t11 0q41 -30 71 -30t45 15.5t15 38.5q0 18 -5.5 31.5t-25 31t-30 24.5t-46.5 32q-63 41 -63 103q0 23 20 46l62 59q70 66 70 144q0 39 -28 74t-79 35q-48 0 -71 -29t-37 -91q-12 -54 -12 -293q0 -159 4 -203
q3 -24 31 -33q23 -7 23 -15q0 -13 -27 -13q-4 0 -28 1t-44 1q-11 0 -42.5 -2t-38.5 -2q-25 0 -25 11q0 8 26 17q31 10 37 35q4 20 4 169q0 30 -0.5 62.5t-0.5 34.5q0 15 -13 17l-33 5q-4 1 -5 9t3 12q3 3 37 27q12 10 12 20q0 59 18.5 121.5t59.5 107.5q64 68 147 68z" />
    <glyph glyph-name="agrave" unicode="&#xe0;" horiz-adv-x="401" 
d="M210 405q60 0 93 -49q21 -30 21 -84q0 -23 -2 -97.5t-2 -76.5q0 -27 13 -37.5t26 -10.5q12 0 38 15q3 1 6 -3q2 -3 2 -11q0 -17 -30 -40t-63 -23q-49 0 -65 49q-3 6 -7 4q-40 -28 -88 -45q-16 -6 -41 -6q-27 0 -49 28t-22 66q0 28 19 52q8 10 40 24q7 3 31.5 10.5
t52.5 15.5t36 10q27 9 27 18q1 8 2 40.5t0 40.5q0 22 -21 44t-55 22q-25 0 -39 -10q-9 -5 -7 -42q0 -5 -5 -10q-7 -6 -36.5 -20.5t-33.5 -14.5t-8 4.5t-4 9.5q0 38 77 89q22 16 51 27t43 11zM180 44q24 0 51 16q5 2 12 24q2 42 2 80q0 8 -7 8q-45 0 -99 -30q-19 -10 -19 -38
q0 -29 20 -44.5t40 -15.5zM140 655q11 0 27 -35q31 -69 57 -148q9 -26 -4 -26t-24 16q-22 28 -54 77t-40 64q-8 14 -8 26q2 10 18 18q19 8 28 8z" />
    <glyph glyph-name="aacute" unicode="&#xe1;" horiz-adv-x="401" 
d="M210 405q60 0 93 -49q21 -30 21 -84q0 -23 -2 -97.5t-2 -76.5q0 -27 13 -37.5t26 -10.5q12 0 38 15q3 1 6 -3q2 -3 2 -11q0 -17 -30 -40t-63 -23q-49 0 -65 49q-3 6 -7 4q-40 -28 -88 -45q-16 -6 -41 -6q-27 0 -49 28t-22 66q0 28 19 52q8 10 40 24q7 3 31.5 10.5
t52.5 15.5t36 10q27 9 27 18q1 8 2 40.5t0 40.5q0 22 -21 44t-55 22q-25 0 -39 -10q-9 -5 -7 -42q0 -5 -5 -10q-7 -6 -36.5 -20.5t-33.5 -14.5t-8 4.5t-4 9.5q0 38 77 89q22 16 51 27t43 11zM180 44q24 0 51 16q5 2 12 24q2 42 2 80q0 8 -7 8q-45 0 -99 -30q-19 -10 -19 -38
q0 -29 20 -44.5t40 -15.5zM236 628q9 20 25 20q37 0 44 -11q5 -8 -5 -27q-15 -28 -46 -76.5t-49 -71.5q-16 -18 -27 -18q-6 0 -6.5 10t2.5 18q28 85 62 156z" />
    <glyph glyph-name="acircumflex" unicode="&#xe2;" horiz-adv-x="401" 
d="M210 405q60 0 93 -49q21 -30 21 -84q0 -23 -2 -97.5t-2 -76.5q0 -27 13 -37.5t26 -10.5q12 0 38 15q3 1 6 -3q2 -3 2 -11q0 -17 -30 -40t-63 -23q-49 0 -65 49q-3 6 -7 4q-40 -28 -88 -45q-16 -6 -41 -6q-27 0 -49 28t-22 66q0 28 19 52q8 10 40 24q7 3 31.5 10.5
t52.5 15.5t36 10q27 9 27 18q1 8 2 40.5t0 40.5q0 22 -21 44t-55 22q-25 0 -39 -10q-9 -5 -7 -42q0 -5 -5 -10q-7 -6 -36.5 -20.5t-33.5 -14.5t-8 4.5t-4 9.5q0 38 77 89q22 16 51 27t43 11zM180 44q24 0 51 16q5 2 12 24q2 42 2 80q0 8 -7 8q-45 0 -99 -30q-19 -10 -19 -38
q0 -29 20 -44.5t40 -15.5zM192 640q10 0 29 -38q25 -45 66 -126q15 -34 -3 -34q-5 0 -14 6t-13 12l-63 89q-4 7 -10 1q-42 -64 -63 -91q-10 -15 -22 -15q-6 0 -8.5 7.5t0.5 15.5q8 21 72 140q18 33 29 33z" />
    <glyph glyph-name="atilde" unicode="&#xe3;" horiz-adv-x="401" 
d="M210 405q60 0 93 -49q21 -30 21 -84q0 -23 -2 -97.5t-2 -76.5q0 -27 13 -37.5t26 -10.5q12 0 38 15q3 1 6 -3q2 -3 2 -11q0 -17 -30 -40t-63 -23q-49 0 -65 49q-3 6 -7 4q-40 -28 -88 -45q-16 -6 -41 -6q-27 0 -49 28t-22 66q0 28 19 52q8 10 40 24q7 3 31.5 10.5
t52.5 15.5t36 10q27 9 27 18q1 8 2 40.5t0 40.5q0 22 -21 44t-55 22q-25 0 -39 -10q-9 -5 -7 -42q0 -5 -5 -10q-7 -6 -36.5 -20.5t-33.5 -14.5t-8 4.5t-4 9.5q0 38 77 89q22 16 51 27t43 11zM180 44q24 0 51 16q5 2 12 24q2 42 2 80q0 8 -7 8q-45 0 -99 -30q-19 -10 -19 -38
q0 -29 20 -44.5t40 -15.5zM123 511q-11 0 -33 -25q-5 -5 -10 -5q-2 0 -8.5 7.5t-6.5 9.5q0 1 9.5 13t27 30t33.5 28q8 6 15 4q43 -10 102 -10q20 0 30 6l9 9l10.5 10.5l7.5 7.5q3 3 12 -4t9 -11t-4 -6q-5 -6 -32.5 -35t-31.5 -32q-6 -7 -11 -7t-55 5t-73 5z" />
    <glyph glyph-name="adieresis" unicode="&#xe4;" horiz-adv-x="401" 
d="M210 405q60 0 93 -49q21 -30 21 -84q0 -23 -2 -97.5t-2 -76.5q0 -27 13 -37.5t26 -10.5q12 0 38 15q3 1 6 -3q2 -3 2 -11q0 -17 -30 -40t-63 -23q-49 0 -65 49q-3 6 -7 4q-40 -28 -88 -45q-16 -6 -41 -6q-27 0 -49 28t-22 66q0 28 19 52q8 10 40 24q7 3 31.5 10.5
t52.5 15.5t36 10q27 9 27 18q1 8 2 40.5t0 40.5q0 22 -21 44t-55 22q-25 0 -39 -10q-9 -5 -7 -42q0 -5 -5 -10q-7 -6 -36.5 -20.5t-33.5 -14.5t-8 4.5t-4 9.5q0 38 77 89q22 16 51 27t43 11zM180 44q24 0 51 16q5 2 12 24q2 42 2 80q0 8 -7 8q-45 0 -99 -30q-19 -10 -19 -38
q0 -29 20 -44.5t40 -15.5zM108 601q18 0 30.5 -15t12.5 -33q0 -22 -14.5 -34.5t-32.5 -12.5q-15 0 -29 12.5t-14 33.5q0 20 13 34.5t34 14.5zM280 600q18 0 31.5 -14.5t13.5 -32.5q0 -19 -14.5 -33t-32.5 -14t-31.5 13t-13.5 33q0 21 14.5 34.5t32.5 13.5z" />
    <glyph glyph-name="aring" unicode="&#xe5;" horiz-adv-x="401" 
d="M210 405q60 0 93 -49q21 -30 21 -84q0 -23 -2 -97.5t-2 -76.5q0 -27 13 -37.5t26 -10.5q12 0 38 15q3 1 6 -3q2 -3 2 -11q0 -17 -30 -40t-63 -23q-49 0 -65 49q-3 6 -7 4q-40 -28 -88 -45q-16 -6 -41 -6q-27 0 -49 28t-22 66q0 28 19 52q8 10 40 24q7 3 31.5 10.5
t52.5 15.5t36 10q27 9 27 18q1 8 2 40.5t0 40.5q0 22 -21 44t-55 22q-25 0 -39 -10q-9 -5 -7 -42q0 -5 -5 -10q-7 -6 -36.5 -20.5t-33.5 -14.5t-8 4.5t-4 9.5q0 38 77 89q22 16 51 27t43 11zM180 44q24 0 51 16q5 2 12 24q2 42 2 80q0 8 -7 8q-45 0 -99 -30q-19 -10 -19 -38
q0 -29 20 -44.5t40 -15.5zM191 630q36 0 59.5 -24.5t23.5 -58.5t-23.5 -58.5t-59.5 -24.5t-59.5 24.5t-23.5 58.5t23.5 58.5t59.5 24.5zM190 599q-19 0 -31.5 -15t-12.5 -37q0 -24 13 -38t32 -14q20 0 32.5 14t12.5 40q0 20 -13.5 35t-32.5 15z" />
    <glyph glyph-name="ae" unicode="&#xe6;" horiz-adv-x="567" 
d="M38 278q0 22 32 51q43 36 100 66q24 12 46 12q53 0 91 -52q4 -4 9 0q68 52 118 52q53 0 81.5 -36t28.5 -77q0 -6 -5.5 -13.5t-12.5 -9.5q-12 -3 -54.5 -15.5t-81 -23.5t-55.5 -16q-11 -3 -11 -13q0 -66 3 -86t16 -36q24 -30 83 -30q19 0 38 6t29 11.5t23.5 15t14.5 10.5
q5 3 9.5 2t4.5 -5q0 -15 -7 -25q-21 -32 -63 -55t-89 -23q-83 0 -122 58q-6 6 -10 3q-85 -61 -122 -61q-32 0 -61.5 28.5t-29.5 71.5q0 54 64 76q11 4 56.5 20.5t63.5 22.5q14 4 18 8t4 11q2 53 1 76.5t-10 33.5q-25 25 -62 25q-23 0 -36 -13q-10 -6 -7 -21q1 -19 -4 -24
q-62 -38 -78 -38q-5 0 -9 4.5t-4 8.5zM180 44q15 0 35 9.5t28 23.5q4 9 4 27v72q0 1 -1.5 3t-4.5 2.5t-7 -0.5q-62 -20 -87 -35t-25 -43q0 -26 17 -42.5t41 -16.5zM397 364q-35 0 -63 -28q-11 -11 -11 -31q1 -9 1 -59q0 -2 3 -3.5t5 -0.5q61 15 108 34q25 10 25 33
q0 9 -4 19.5t-20.5 23t-43.5 12.5z" />
    <glyph glyph-name="ccedilla" unicode="&#xe7;" horiz-adv-x="397" 
d="M259 405q71 0 105 -25q15 -11 15 -32q0 -10 -13 -24t-24 -14q-4 0 -7 1t-7 4t-7 5t-10.5 8l-12.5 10q-25 17 -40.5 23t-37.5 6q-35 0 -63 -32q-40 -49 -40 -119q0 -76 43 -120t108 -44q54 0 94 33q4 4 8.5 2.5t4.5 -8.5q0 -18 -14 -30q-38 -41 -96 -55l-32 -42
q-5 -8 6 -12q32 -16 47.5 -32t15.5 -45q0 -42 -52 -83q-40 -30 -68 -30q-17 0 -24 13q-9 17 1 31q5 9 14 8q28 -6 39 -6q17 0 26 11t9 27q0 20 -17 33.5t-39 13.5q-10 0 -17 -1q-4 0 -10 6t-6 10q0 5 6 13l65 79h-10q-101 0 -157 81q-30 51 -30 115q0 112 100 179
q27 19 63.5 30.5t63.5 11.5z" />
    <glyph glyph-name="egrave" unicode="&#xe8;" horiz-adv-x="397" 
d="M232 403q61 0 101 -38q35 -35 35 -85q0 -5 -6 -12t-14 -7q-180 0 -226 1q-7 0 -9 -8q-4 -11 -4 -35q0 -61 36 -109q41 -54 113 -54q66 0 90 36q10 12 13 12q9 0 9 -12q0 -9 -8 -25q-52 -77 -149 -77q-81 0 -130.5 55.5t-49.5 143.5q0 62 32 116t89 81q37 17 78 17z
M222 378q-33 0 -59.5 -21t-39.5 -56q-1 -4 1 -7.5t4 -3.5q42 -2 124 0q34 0 34 27q0 22 -19.5 41.5t-44.5 19.5zM163 655q11 0 27 -35q31 -69 57 -148q9 -26 -4 -26t-24 16q-22 28 -54 77t-40 64q-8 14 -8 26q2 10 18 18q19 8 28 8z" />
    <glyph glyph-name="eacute" unicode="&#xe9;" horiz-adv-x="397" 
d="M232 403q61 0 101 -38q35 -35 35 -85q0 -5 -6 -12t-14 -7q-180 0 -226 1q-7 0 -9 -8q-4 -11 -4 -35q0 -61 36 -109q41 -54 113 -54q66 0 90 36q10 12 13 12q9 0 9 -12q0 -9 -8 -25q-52 -77 -149 -77q-81 0 -130.5 55.5t-49.5 143.5q0 62 32 116t89 81q37 17 78 17z
M222 378q-33 0 -59.5 -21t-39.5 -56q-1 -4 1 -7.5t4 -3.5q42 -2 124 0q34 0 34 27q0 22 -19.5 41.5t-44.5 19.5zM254 628q9 20 25 20q37 0 44 -11q5 -8 -5 -27q-15 -28 -46 -76.5t-49 -71.5q-16 -18 -27 -18q-6 0 -6.5 10t2.5 18q28 85 62 156z" />
    <glyph glyph-name="ecircumflex" unicode="&#xea;" horiz-adv-x="397" 
d="M232 403q61 0 101 -38q35 -35 35 -85q0 -5 -6 -12t-14 -7q-180 0 -226 1q-7 0 -9 -8q-4 -11 -4 -35q0 -61 36 -109q41 -54 113 -54q66 0 90 36q10 12 13 12q9 0 9 -12q0 -9 -8 -25q-52 -77 -149 -77q-81 0 -130.5 55.5t-49.5 143.5q0 62 32 116t89 81q37 17 78 17z
M222 378q-33 0 -59.5 -21t-39.5 -56q-1 -4 1 -7.5t4 -3.5q42 -2 124 0q34 0 34 27q0 22 -19.5 41.5t-44.5 19.5zM214 643q10 0 29 -38q25 -45 66 -126q15 -34 -3 -34q-5 0 -14 6t-13 12l-63 89q-4 7 -10 1q-42 -64 -63 -91q-10 -15 -22 -15q-6 0 -8.5 7.5t0.5 15.5
q8 21 72 140q18 33 29 33z" />
    <glyph glyph-name="edieresis" unicode="&#xeb;" horiz-adv-x="397" 
d="M232 403q61 0 101 -38q35 -35 35 -85q0 -5 -6 -12t-14 -7q-180 0 -226 1q-7 0 -9 -8q-4 -11 -4 -35q0 -61 36 -109q41 -54 113 -54q66 0 90 36q10 12 13 12q9 0 9 -12q0 -9 -8 -25q-52 -77 -149 -77q-81 0 -130.5 55.5t-49.5 143.5q0 62 32 116t89 81q37 17 78 17z
M222 378q-33 0 -59.5 -21t-39.5 -56q-1 -4 1 -7.5t4 -3.5q42 -2 124 0q34 0 34 27q0 22 -19.5 41.5t-44.5 19.5zM130 601q18 0 30.5 -15t12.5 -33q0 -22 -14.5 -34.5t-32.5 -12.5q-15 0 -29 12.5t-14 33.5q0 20 13 34.5t34 14.5zM302 600q18 0 31.5 -14.5t13.5 -32.5
q0 -19 -14.5 -33t-32.5 -14t-31.5 13t-13.5 33q0 21 14.5 34.5t32.5 13.5z" />
    <glyph glyph-name="igrave" unicode="&#xec;" horiz-adv-x="257" 
d="M44 358q0 10 21 16q23 5 63 19.5t41 14.5q3 0 6.5 -4.5t3.5 -6.5q-6 -90 -6 -204q0 -56 2 -126q0 -6 1.5 -10.5t2.5 -8t4.5 -6.5t5 -4.5t7.5 -4t7.5 -3l9 -3t8.5 -2.5q22 -7 22 -17q0 -11 -25 -11q-2 0 -34 1.5t-44 1.5q-18 0 -49.5 -2t-38.5 -2q-26 0 -26 12q0 9 24 15
q34 10 40 29q4 19 4 114q0 136 -1 142q-1 9 -38 36q-11 8 -11 14zM67 655q11 0 27 -35q31 -69 57 -148q9 -26 -4 -26t-24 16q-22 28 -54 77t-40 64q-8 14 -8 26q2 10 18 18q19 8 28 8z" />
    <glyph glyph-name="iacute" unicode="&#xed;" horiz-adv-x="257" 
d="M44 358q0 10 21 16q23 5 63 19.5t41 14.5q3 0 6.5 -4.5t3.5 -6.5q-6 -90 -6 -204q0 -56 2 -126q0 -6 1.5 -10.5t2.5 -8t4.5 -6.5t5 -4.5t7.5 -4t7.5 -3l9 -3t8.5 -2.5q22 -7 22 -17q0 -11 -25 -11q-2 0 -34 1.5t-44 1.5q-18 0 -49.5 -2t-38.5 -2q-26 0 -26 12q0 9 24 15
q34 10 40 29q4 19 4 114q0 136 -1 142q-1 9 -38 36q-11 8 -11 14zM164 628q9 20 25 20q37 0 44 -11q5 -8 -5 -27q-15 -28 -46 -76.5t-49 -71.5q-16 -18 -27 -18q-6 0 -6.5 10t2.5 18q28 85 62 156z" />
    <glyph glyph-name="icircumflex" unicode="&#xee;" horiz-adv-x="257" 
d="M44 358q0 10 21 16q23 5 63 19.5t41 14.5q3 0 6.5 -4.5t3.5 -6.5q-6 -90 -6 -204q0 -56 2 -126q0 -6 1.5 -10.5t2.5 -8t4.5 -6.5t5 -4.5t7.5 -4t7.5 -3l9 -3t8.5 -2.5q22 -7 22 -17q0 -11 -25 -11q-2 0 -34 1.5t-44 1.5q-18 0 -49.5 -2t-38.5 -2q-26 0 -26 12q0 9 24 15
q34 10 40 29q4 19 4 114q0 136 -1 142q-1 9 -38 36q-11 8 -11 14zM131 643q10 0 29 -38q25 -45 66 -126q15 -34 -3 -34q-5 0 -14 6t-13 12l-63 89q-4 7 -10 1q-42 -64 -63 -91q-10 -15 -22 -15q-6 0 -8.5 7.5t0.5 15.5q8 21 72 140q18 33 29 33z" />
    <glyph glyph-name="idieresis" unicode="&#xef;" horiz-adv-x="257" 
d="M44 358q0 10 21 16q23 5 63 19.5t41 14.5q3 0 6.5 -4.5t3.5 -6.5q-6 -90 -6 -204q0 -56 2 -126q0 -6 1.5 -10.5t2.5 -8t4.5 -6.5t5 -4.5t7.5 -4t7.5 -3l9 -3t8.5 -2.5q22 -7 22 -17q0 -11 -25 -11q-2 0 -34 1.5t-44 1.5q-18 0 -49.5 -2t-38.5 -2q-26 0 -26 12q0 9 24 15
q34 10 40 29q4 19 4 114q0 136 -1 142q-1 9 -38 36q-11 8 -11 14zM47 601q18 0 30.5 -15t12.5 -33q0 -22 -14.5 -34.5t-32.5 -12.5q-15 0 -29 12.5t-14 33.5q0 20 13 34.5t34 14.5zM219 600q18 0 31.5 -14.5t13.5 -32.5q0 -19 -14.5 -33t-32.5 -14t-31.5 13t-13.5 33
q0 21 14.5 34.5t32.5 13.5z" />
    <glyph glyph-name="eth" unicode="&#xf0;" horiz-adv-x="484" 
d="M64 697q0 6 6 10.5t14 4.5q43 0 104 -29t110 -68q2 -2 7 -2.5t7 1.5l101 53q2 2 6 0t4 -6q2 -15 0 -21q-2 -9 -14 -16q-58 -30 -70 -37q-2 -2 -2.5 -5t1.5 -5q107 -130 107 -318q0 -164 -97 -234q-50 -37 -108 -37q-89 0 -148.5 58.5t-59.5 148.5q0 60 35 117
q28 41 80 67.5t114 26.5q38 0 71 -14q4 -2 7 0t2 6q-13 81 -62 146q-7 7 -12 3q-68 -30 -125 -59q-4 -1 -8.5 0.5t-5.5 4.5q0 2 -1 8t0 9q2 6 8 10q42 23 107 54q5 5 2 9q-81 79 -163 101q-17 3 -17 13zM243 372q-52 0 -82 -46q-36 -52 -36 -128q0 -64 37 -120.5t93 -56.5
q24 0 41 13t34 44q28 52 28 142q0 77 -26 107q-43 45 -89 45z" />
    <glyph glyph-name="ntilde" unicode="&#xf1;" horiz-adv-x="523" 
d="M53 355q0 5 5.5 11.5t11.5 8.5q52 17 70 29q19 12 27 12q3 0 6 -6t3 -9q0 -8 -1.5 -26.5t-1.5 -22.5q0 -3 6 -3q79 55 133 55q58 0 91 -38q35 -40 35 -122q0 -140 3 -182q3 -26 37 -35q25 -7 25 -17q0 -12 -29 -12q-12 0 -38 1t-40 1t-40 -1t-31 -1q-25 0 -25 12
q0 10 24 17q17 7 23.5 16.5t7.5 34.5q2 33 2 183q0 22 -9 42.5t-18 28.5q-23 19 -63 19q-51 0 -84 -29q-10 -8 -10 -24q-1 -10 -0.5 -120.5t1.5 -119.5q1 -12 7.5 -18.5t28.5 -12.5q18 -5 18 -16q0 -12 -26 -12q-6 0 -29 0.5t-35 0.5q-21 0 -50 -1.5t-35 -1.5q-26 0 -26 14
q0 9 21 15q24 7 31.5 17.5t9.5 38.5q6 60 6 217q0 18 -25 39q-17 13 -17 17zM188 512q-10 0 -33 -25q-5 -5 -10 -5q-2 0 -8.5 7.5t-6.5 9.5q0 1 9.5 13t27 30t33.5 28q8 6 15 4q43 -10 102 -10q20 0 30 6l27 27q3 3 12 -4t9 -11t-4 -6q-5 -6 -32.5 -35t-31.5 -32
q-6 -7 -11 -7t-55 5t-73 5z" />
    <glyph glyph-name="ograve" unicode="&#xf2;" horiz-adv-x="487" 
d="M252 405q79 0 141 -57t62 -148q0 -57 -27 -104t-60 -68q-57 -40 -128 -40q-72 0 -134 52q-32 26 -53 70t-21 83q0 97 70 156q62 56 150 56zM233 374q-29 0 -62 -27q-20 -19 -33 -54.5t-13 -75.5q0 -57 12 -90q16 -52 51.5 -80.5t73.5 -28.5q26 0 57 31q18 20 30.5 59
t12.5 74q0 96 -47 153q-36 39 -82 39zM190 657q11 0 27 -35q31 -69 57 -148q9 -26 -4 -26t-24 16q-22 28 -54 77t-40 64q-8 14 -8 26q2 10 18 18q19 8 28 8z" />
    <glyph glyph-name="oacute" unicode="&#xf3;" horiz-adv-x="487" 
d="M252 405q79 0 141 -57t62 -148q0 -57 -27 -104t-60 -68q-57 -40 -128 -40q-72 0 -134 52q-32 26 -53 70t-21 83q0 97 70 156q62 56 150 56zM233 374q-29 0 -62 -27q-20 -19 -33 -54.5t-13 -75.5q0 -57 12 -90q16 -52 51.5 -80.5t73.5 -28.5q26 0 57 31q18 20 30.5 59
t12.5 74q0 96 -47 153q-36 39 -82 39zM277 628q9 20 25 20q37 0 44 -11q5 -8 -5 -27q-15 -28 -46 -76.5t-49 -71.5q-16 -18 -27 -18q-6 0 -6.5 10t2.5 18q28 85 62 156z" />
    <glyph glyph-name="ocircumflex" unicode="&#xf4;" horiz-adv-x="487" 
d="M252 405q79 0 141 -57t62 -148q0 -57 -27 -104t-60 -68q-57 -40 -128 -40q-72 0 -134 52q-32 26 -53 70t-21 83q0 97 70 156q62 56 150 56zM233 374q-29 0 -62 -27q-20 -19 -33 -54.5t-13 -75.5q0 -57 12 -90q16 -52 51.5 -80.5t73.5 -28.5q26 0 57 31q18 20 30.5 59
t12.5 74q0 96 -47 153q-36 39 -82 39zM242 643q10 0 29 -38q25 -45 66 -126q15 -34 -3 -34q-5 0 -14 6t-13 12l-63 89q-4 7 -10 1q-42 -64 -63 -91q-10 -15 -22 -15q-6 0 -8.5 7.5t0.5 15.5q8 21 72 140q18 33 29 33z" />
    <glyph glyph-name="otilde" unicode="&#xf5;" horiz-adv-x="487" 
d="M252 405q79 0 141 -57t62 -148q0 -57 -27 -104t-60 -68q-57 -40 -128 -40q-72 0 -134 52q-32 26 -53 70t-21 83q0 97 70 156q62 56 150 56zM233 374q-29 0 -62 -27q-20 -19 -33 -54.5t-13 -75.5q0 -57 12 -90q16 -52 51.5 -80.5t73.5 -28.5q26 0 57 31q18 20 30.5 59
t12.5 74q0 96 -47 153q-36 39 -82 39zM168 506q-10 0 -33 -25q-5 -5 -10 -5q-2 0 -8.5 7.5t-6.5 9.5q0 1 9.5 13t27 30t33.5 28q8 6 15 4q43 -10 102 -10q20 0 30 6l27 27q3 3 12 -4t9 -11t-4 -6q-5 -6 -32.5 -35t-31.5 -32q-6 -7 -11 -7t-55 5t-73 5z" />
    <glyph glyph-name="odieresis" unicode="&#xf6;" horiz-adv-x="487" 
d="M252 405q79 0 141 -57t62 -148q0 -57 -27 -104t-60 -68q-57 -40 -128 -40q-72 0 -134 52q-32 26 -53 70t-21 83q0 97 70 156q62 56 150 56zM233 374q-29 0 -62 -27q-20 -19 -33 -54.5t-13 -75.5q0 -57 12 -90q16 -52 51.5 -80.5t73.5 -28.5q26 0 57 31q18 20 30.5 59
t12.5 74q0 96 -47 153q-36 39 -82 39zM159 601q18 0 30.5 -15t12.5 -33q0 -22 -14.5 -34.5t-32.5 -12.5q-15 0 -29 12.5t-14 33.5q0 20 13 34.5t34 14.5zM331 600q18 0 31.5 -14.5t13.5 -32.5q0 -19 -14.5 -33t-32.5 -14t-31.5 13t-13.5 33q0 21 14.5 34.5t32.5 13.5z" />
    <glyph glyph-name="divide" unicode="&#xf7;" horiz-adv-x="624" 
d="M311 141q22 0 37 -16t15 -36q0 -24 -15 -40.5t-37 -16.5q-23 0 -38.5 16.5t-15.5 40.5q0 20 15.5 36t38.5 16zM311 363q-21 0 -36.5 15.5t-15.5 37.5t16 38t36 16q23 0 38.5 -16t15.5 -38t-15 -37.5t-39 -15.5zM549 281q8 0 11 -2.5t3 -9.5q0 -17 -4.5 -29.5t-9.5 -12.5
h-469q-13 0 -16.5 3t-3.5 12q0 11 4 25t10 14h475z" />
    <glyph glyph-name="oslash" unicode="&#xf8;" horiz-adv-x="488" 
d="M254 405q51 0 96 -25q6 -6 9 -1l24 30q10 10 15 10q7 0 13 -8t3 -11q-5 -7 -13 -17.5t-15 -20.5q-2 -5 2 -9q68 -63 68 -159q0 -51 -28 -98.5t-60 -68.5q-54 -39 -127 -39q-48 0 -103 30q-7 4 -11 0l-34 -41q-3 -4 -9 -1q-17 12 -11 21l30 39q3 3 -3 9q-30 27 -49 66
t-19 80q0 99 69 157q65 57 153 57zM173 64q41 -46 85 -46q33 0 65 32q18 21 30 61t12 75q0 61 -20 105q-1 2 -3 3.5t-3.5 1.5t-2.5 -1q-21 -27 -77.5 -102t-87.5 -115q-5 -7 2 -14zM232 374q-32 0 -61 -25q-19 -18 -34 -55.5t-15 -76.5q0 -68 23 -109q1 -2 4.5 -3.5t5.5 0.5
l164 219q1 2 -3 11q-41 39 -84 39z" />
    <glyph glyph-name="ugrave" unicode="&#xf9;" horiz-adv-x="501" 
d="M248 40q34 0 73 34q4 3 9 11.5t5 11.5l1 229q0 5 -5.5 12.5t-10.5 9.5q-8 2 -24 7t-21 6q-19 5 -19 16q0 3 7 6.5t14 3.5q69 0 113 11q13 4 24 4q7 0 7 -15q-8 -120 -8 -330q0 -15 11 -15q3 0 23 3t27 3q5 0 12 -21q0 -2 -4 -6t-8 -4q-24 -2 -93 -20q-34 -10 -38 -10
q-3 0 -7 4.5t-4 9.5q0 3 1.5 18.5t2.5 24.5q0 3 -2 5t-4 1q-52 -39 -79 -49q-32 -13 -67 -13q-60 0 -90 48q-14 22 -14 49q0 181 -2 234q0 6 -1 10.5t-4 8.5t-4 6t-6 4.5t-6 3.5t-7.5 3.5t-7.5 2.5q-18 8 -18 19q0 10 17 10q12 0 39.5 2.5t50 5.5t23.5 3q3 0 5.5 -5.5
t2.5 -9.5q0 -21 -1.5 -133.5t-1.5 -135.5q0 -34 24 -54q28 -20 65 -20zM183 655q11 0 27 -35q31 -69 57 -148q9 -26 -4 -26t-24 16q-22 28 -54 77t-40 64q-8 14 -8 26q2 10 18 18q19 8 28 8z" />
    <glyph glyph-name="uacute" unicode="&#xfa;" horiz-adv-x="501" 
d="M248 40q34 0 73 34q4 3 9 11.5t5 11.5l1 229q0 5 -5.5 12.5t-10.5 9.5q-8 2 -24 7t-21 6q-19 5 -19 16q0 3 7 6.5t14 3.5q69 0 113 11q13 4 24 4q7 0 7 -15q-8 -120 -8 -330q0 -15 11 -15q3 0 23 3t27 3q5 0 12 -21q0 -2 -4 -6t-8 -4q-24 -2 -93 -20q-34 -10 -38 -10
q-3 0 -7 4.5t-4 9.5q0 3 1.5 18.5t2.5 24.5q0 3 -2 5t-4 1q-52 -39 -79 -49q-32 -13 -67 -13q-60 0 -90 48q-14 22 -14 49q0 181 -2 234q0 6 -1 10.5t-4 8.5t-4 6t-6 4.5t-6 3.5t-7.5 3.5t-7.5 2.5q-18 8 -18 19q0 10 17 10q12 0 39.5 2.5t50 5.5t23.5 3q3 0 5.5 -5.5
t2.5 -9.5q0 -21 -1.5 -133.5t-1.5 -135.5q0 -34 24 -54q28 -20 65 -20zM275 627q9 20 25 20q37 0 44 -11q5 -8 -5 -27q-15 -28 -46 -76.5t-49 -71.5q-16 -18 -27 -18q-6 0 -6.5 10t2.5 18q28 85 62 156z" />
    <glyph glyph-name="ucircumflex" unicode="&#xfb;" horiz-adv-x="501" 
d="M248 40q34 0 73 34q4 3 9 11.5t5 11.5l1 229q0 5 -5.5 12.5t-10.5 9.5q-8 2 -24 7t-21 6q-19 5 -19 16q0 3 7 6.5t14 3.5q69 0 113 11q13 4 24 4q7 0 7 -15q-8 -120 -8 -330q0 -15 11 -15q3 0 23 3t27 3q5 0 12 -21q0 -2 -4 -6t-8 -4q-24 -2 -93 -20q-34 -10 -38 -10
q-3 0 -7 4.5t-4 9.5q0 3 1.5 18.5t2.5 24.5q0 3 -2 5t-4 1q-52 -39 -79 -49q-32 -13 -67 -13q-60 0 -90 48q-14 22 -14 49q0 181 -2 234q0 6 -1 10.5t-4 8.5t-4 6t-6 4.5t-6 3.5t-7.5 3.5t-7.5 2.5q-18 8 -18 19q0 10 17 10q12 0 39.5 2.5t50 5.5t23.5 3q3 0 5.5 -5.5
t2.5 -9.5q0 -21 -1.5 -133.5t-1.5 -135.5q0 -34 24 -54q28 -20 65 -20zM242 643q10 0 29 -38q25 -45 66 -126q15 -34 -3 -34q-5 0 -14 6t-13 12l-63 89q-4 7 -10 1q-42 -64 -63 -91q-10 -15 -22 -15q-6 0 -8.5 7.5t0.5 15.5q8 21 72 140q18 33 29 33z" />
    <glyph glyph-name="udieresis" unicode="&#xfc;" horiz-adv-x="501" 
d="M248 40q34 0 73 34q4 3 9 11.5t5 11.5l1 229q0 5 -5.5 12.5t-10.5 9.5q-8 2 -24 7t-21 6q-19 5 -19 16q0 3 7 6.5t14 3.5q69 0 113 11q13 4 24 4q7 0 7 -15q-8 -120 -8 -330q0 -15 11 -15q3 0 23 3t27 3q5 0 12 -21q0 -2 -4 -6t-8 -4q-24 -2 -93 -20q-34 -10 -38 -10
q-3 0 -7 4.5t-4 9.5q0 3 1.5 18.5t2.5 24.5q0 3 -2 5t-4 1q-52 -39 -79 -49q-32 -13 -67 -13q-60 0 -90 48q-14 22 -14 49q0 181 -2 234q0 6 -1 10.5t-4 8.5t-4 6t-6 4.5t-6 3.5t-7.5 3.5t-7.5 2.5q-18 8 -18 19q0 10 17 10q12 0 39.5 2.5t50 5.5t23.5 3q3 0 5.5 -5.5
t2.5 -9.5q0 -21 -1.5 -133.5t-1.5 -135.5q0 -34 24 -54q28 -20 65 -20zM153 601q18 0 30.5 -15t12.5 -33q0 -22 -14.5 -34.5t-32.5 -12.5q-15 0 -29 12.5t-14 33.5q0 20 13 34.5t34 14.5zM325 600q18 0 31.5 -14.5t13.5 -32.5q0 -19 -14.5 -33t-32.5 -14t-31.5 13t-13.5 33
q0 21 14.5 34.5t32.5 13.5z" />
    <glyph glyph-name="yacute" unicode="&#xfd;" horiz-adv-x="416" 
d="M-7 383q0 12 24 12q14 0 41 -2t41 -2q17 0 43 1t30 1q23 0 23 -11t-24 -18q-20 -6 -24 -12.5t3 -26.5q12 -36 45 -118t41 -94q1 0 2 -0.5t3 1t3 4.5q8 19 40.5 102t37.5 98q6 21 -2 31t-36 17q-22 6 -22 15q0 11 26 11q10 0 31 -0.5t27 -0.5t28.5 2t36.5 2q21 0 21 -10
q0 -9 -23 -17q-16 -5 -27 -16.5t-23 -34.5q-49 -112 -110 -268q-21 -52 -60 -156t-45 -121q-5 -12 -19.5 -20.5t-33.5 -8.5q-24 0 -35.5 15t-11.5 35q0 14 12.5 29.5t31.5 15.5q2 0 17 -1t21 -1q9 0 16 17q20 38 47 126q6 25 3 33q-9 21 -16 42q-60 164 -116 274
q-5 11 -9 16.5t-12.5 11.5t-24.5 11q-21 6 -21 16zM266 628q9 20 25 20q37 0 44 -11q5 -8 -5 -27q-15 -28 -46 -76.5t-49 -71.5q-16 -18 -27 -18q-6 0 -6.5 10t2.5 18q28 85 62 156z" />
    <glyph glyph-name="thorn" unicode="&#xfe;" horiz-adv-x="483" 
d="M72 75v208q0 217 -5 325q0 16 -7 21q-10 8 -20.5 15.5t-15 10.5t-4.5 6t7.5 9.5t11.5 7.5q73 19 82 24q22 10 23 10q3 0 7.5 -4.5t4.5 -7.5q-3 -51 -3 -332q0 -8 8 -6q11 7 63 30q28 10 69 10q28 0 59 -15.5t53 -39.5q48 -54 48 -131q0 -46 -21.5 -93t-64.5 -80
q-64 -50 -154 -50q-34 0 -52 3q-2 0 -5.5 -4.5t-3.5 -8.5q-1 -123 3 -163q2 -21 11 -32t36 -19q29 -7 29 -18q0 -13 -27 -13q-10 0 -55.5 2.5t-66.5 2.5q-11 0 -30.5 -1t-37.5 -1q-29 0 -29 14q0 4 7 9t18 7q39 9 47.5 22t11.5 66q3 96 3 216zM239 352q-56 0 -73 -12
q-8 -6 -12 -29q-4 -25 -4.5 -87t2.5 -95q2 -30 11 -44q18 -27 46.5 -43t48.5 -16q25 0 43 15q34 28 49.5 73t15.5 75q0 75 -41 120q-18 18 -44 30.5t-42 12.5z" />
    <glyph glyph-name="ydieresis" unicode="&#xff;" horiz-adv-x="416" 
d="M-7 383q0 12 24 12q14 0 41 -2t41 -2q17 0 43 1t30 1q23 0 23 -11t-24 -18q-20 -6 -24 -12.5t3 -26.5q12 -36 45 -118t41 -94q1 0 2 -0.5t3 1t3 4.5q8 19 40.5 102t37.5 98q6 21 -2 31t-36 17q-22 6 -22 15q0 11 26 11q10 0 31 -0.5t27 -0.5t28.5 2t36.5 2q21 0 21 -10
q0 -9 -23 -17q-16 -5 -27 -16.5t-23 -34.5q-49 -112 -110 -268q-21 -52 -60 -156t-45 -121q-5 -12 -19.5 -20.5t-33.5 -8.5q-24 0 -35.5 15t-11.5 35q0 14 12.5 29.5t31.5 15.5q2 0 17 -1t21 -1q9 0 16 17q20 38 47 126q6 25 3 33q-9 21 -16 42q-60 164 -116 274
q-5 11 -9 16.5t-12.5 11.5t-24.5 11q-21 6 -21 16zM138 601q18 0 30.5 -15t12.5 -33q0 -22 -14.5 -34.5t-32.5 -12.5q-15 0 -29 12.5t-14 33.5q0 20 13 34.5t34 14.5zM310 600q18 0 31.5 -14.5t13.5 -32.5q0 -19 -14.5 -33t-32.5 -14t-31.5 13t-13.5 33q0 21 14.5 34.5
t32.5 13.5z" />
    <glyph glyph-name="Amacron" unicode="&#x100;" horiz-adv-x="676" 
d="M354 658q7 0 15 -24t44 -122q83 -231 144 -386q23 -57 40.5 -74t52.5 -27q25 -6 25 -16q0 -14 -33 -14q-14 0 -59.5 2.5t-67.5 2.5q-17 0 -41 -1t-36 -1q-31 0 -31 13q0 12 25 16q21 4 31 12t10 17t-1 20q-5 27 -55 166q-3 11 -31 11q-125 0 -165 -4q-5 0 -11 -9
q-51 -124 -51 -168q0 -28 50 -43q27 -8 27 -19q0 -13 -29 -13q-6 0 -32 1.5t-47 1.5t-59.5 -2.5t-43.5 -2.5q-24 0 -24 11q0 13 23 20q40 13 55.5 26.5t35.5 58.5q13 27 86 215.5t92 234.5l9 25q3 9 7 16l28 43q10 13 17 13zM393 298q4 0 2 9q-60 182 -76 212q-5 9 -9 -1
q-68 -182 -77 -215q-2 -7 6 -7q14 0 74.5 0.5t79.5 1.5zM231 775l239 6q3 0 6.5 -8t3.5 -17q0 -15 -7 -27.5t-14 -12.5l-235 -1q-10 0 -10 17q0 11 6.5 27t10.5 16z" />
    <glyph glyph-name="amacron" unicode="&#x101;" horiz-adv-x="401" 
d="M210 405q60 0 93 -49q21 -30 21 -84q0 -23 -2 -97.5t-2 -76.5q0 -27 13 -37.5t26 -10.5q12 0 38 15q3 1 6 -3q2 -3 2 -11q0 -17 -30 -40t-63 -23q-49 0 -65 49q-3 6 -7 4q-40 -28 -88 -45q-16 -6 -41 -6q-27 0 -49 28t-22 66q0 28 19 52q8 10 40 24q7 3 31.5 10.5
t52.5 15.5t36 10q27 9 27 18q1 8 2 40.5t0 40.5q0 22 -21 44t-55 22q-25 0 -39 -10q-9 -5 -7 -42q0 -5 -5 -10q-7 -6 -36.5 -20.5t-33.5 -14.5t-8 4.5t-4 9.5q0 38 77 89q22 16 51 27t43 11zM180 44q24 0 51 16q5 2 12 24q2 42 2 80q0 8 -7 8q-45 0 -99 -30q-19 -10 -19 -38
q0 -29 20 -44.5t40 -15.5zM93 571l212 4q3 0 5.5 -9t2.5 -14q0 -15 -6 -26.5t-14 -11.5h-207q-8 0 -8 13q0 15 5 29.5t10 14.5z" />
    <glyph glyph-name="Abreve" unicode="&#x102;" horiz-adv-x="676" 
d="M354 658q7 0 15 -24t44 -122q83 -231 144 -386q23 -57 40.5 -74t52.5 -27q25 -6 25 -16q0 -14 -33 -14q-14 0 -59.5 2.5t-67.5 2.5q-17 0 -41 -1t-36 -1q-31 0 -31 13q0 12 25 16q21 4 31 12t10 17t-1 20q-5 27 -55 166q-3 11 -31 11q-125 0 -165 -4q-5 0 -11 -9
q-51 -124 -51 -168q0 -28 50 -43q27 -8 27 -19q0 -13 -29 -13q-6 0 -32 1.5t-47 1.5t-59.5 -2.5t-43.5 -2.5q-24 0 -24 11q0 13 23 20q40 13 55.5 26.5t35.5 58.5q13 27 86 215.5t92 234.5l9 25q3 9 7 16l28 43q10 13 17 13zM393 298q4 0 2 9q-60 182 -76 212q-5 9 -9 -1
q-68 -182 -77 -215q-2 -7 6 -7q14 0 74.5 0.5t79.5 1.5zM341 689q-51 0 -87.5 30t-42.5 78q-1 7 2 15t9 8q8 0 19 -16q41 -50 106 -50q70 0 110 47q10 15 21 15q9 0 7 -16q-7 -40 -42 -75.5t-102 -35.5z" />
    <glyph glyph-name="abreve" unicode="&#x103;" horiz-adv-x="401" 
d="M210 405q60 0 93 -49q21 -30 21 -84q0 -23 -2 -97.5t-2 -76.5q0 -27 13 -37.5t26 -10.5q12 0 38 15q3 1 6 -3q2 -3 2 -11q0 -17 -30 -40t-63 -23q-49 0 -65 49q-3 6 -7 4q-40 -28 -88 -45q-16 -6 -41 -6q-27 0 -49 28t-22 66q0 28 19 52q8 10 40 24q7 3 31.5 10.5
t52.5 15.5t36 10q27 9 27 18q1 8 2 40.5t0 40.5q0 22 -21 44t-55 22q-25 0 -39 -10q-9 -5 -7 -42q0 -5 -5 -10q-7 -6 -36.5 -20.5t-33.5 -14.5t-8 4.5t-4 9.5q0 38 77 89q22 16 51 27t43 11zM180 44q24 0 51 16q5 2 12 24q2 42 2 80q0 8 -7 8q-45 0 -99 -30q-19 -10 -19 -38
q0 -29 20 -44.5t40 -15.5zM188 474q-38 0 -67 25t-34 81q-1 15 5 22.5t12 7.5q9 0 15 -21q17 -60 75 -60q59 0 82 60q6 19 22 19q6 0 6 -23q-4 -41 -33.5 -76t-82.5 -35z" />
    <glyph glyph-name="Aogonek" unicode="&#x104;" horiz-adv-x="676" 
d="M354 658q7 0 15 -24t44 -122q83 -231 144 -386q23 -58 40.5 -75.5t52.5 -26.5q25 -6 25 -17q0 -13 -33 -13q-24 0 -59 3q-41 -38 -63.5 -77.5t-22.5 -69.5q0 -22 15 -36t36 -14q32 0 59 15q11 5 11 -8q0 -8 -7 -22q-33 -50 -101 -50q-44 0 -67.5 26t-23.5 64q0 39 37 87
t95 87q-13 1 -36 1q-17 0 -41 -1t-36 -1q-31 0 -31 13q0 12 25 16q21 4 31 12t10 17t-1 20q-5 27 -55 166q-3 11 -37 11q-119 0 -159 -4q-5 0 -12 -11q-50 -126 -50 -166q0 -29 50 -44q27 -8 27 -19q0 -13 -29 -13q-6 0 -32 2t-47 2t-59.5 -3t-43.5 -3q-24 0 -24 11
q0 13 23 20q40 13 55.5 26.5t35.5 59.5q13 27 86.5 216.5t93.5 238.5q6 16 6 21t2 8q7 8 34 51q11 12 17 12zM390 298q1 0 3.5 3t1.5 6q-60 182 -76 212q-5 9 -9 -1q-66 -177 -76 -213q-1 -9 8 -9q13 0 71 0.5t77 1.5z" />
    <glyph glyph-name="aogonek" unicode="&#x105;" horiz-adv-x="401" 
d="M215 405q63 0 94 -46q22 -31 22 -84q0 -23 -2 -98t-2 -77q0 -50 39 -50q18 0 34 13q6 4 10 -1q3 -3 3 -11q0 -16 -38 -46q-42 -32 -65.5 -70t-23.5 -69q0 -21 13 -34.5t33 -13.5q36 0 57 19q4 3 7.5 2t3.5 -6q0 -8 -7 -22q-13 -21 -38 -38t-59 -17q-40 0 -62.5 25
t-22.5 60q0 65 107 147q-46 2 -63 46q-5 10 -11 5q-31 -17 -82 -40q-22 -10 -43 -10q-27 0 -51.5 30.5t-24.5 67.5q0 33 13 51q12 13 42 24q8 4 62 17t62 16q30 11 31 19q1 9 1 84q0 22 -20 41.5t-53 19.5q-27 0 -47 -10q-3 -3 -3 -37q0 -5 -4 -9q-3 -3 -36.5 -18.5
t-36.5 -15.5q-4 0 -9.5 5.5t-5.5 10.5q0 33 85 88q49 32 91 32zM179 45q28 0 57 18q12 7 13 24q2 26 2 78q0 8 -10 6q-26 -3 -84 -20q-34 -10 -34 -48q0 -24 19 -41t37 -17z" />
    <glyph glyph-name="Cacute" unicode="&#x106;" horiz-adv-x="715" 
d="M430 658q50 0 121 -15q13 -2 40 -9.5t35 -8.5q15 -3 15 -30q0 -19 6 -88q2 -34 -15 -34q-9 0 -16 27q-17 55 -42 73q-68 54 -158 54q-116 0 -186.5 -82.5t-70.5 -200.5q0 -98 34 -166q40 -79 109.5 -118t138.5 -39q63 0 106 25q54 30 92 96q15 27 22 27q15 0 9 -33
q-7 -44 -38 -99q-6 -13 -32 -27q-75 -28 -181 -28q-96 0 -172.5 36.5t-113.5 79.5q-84 97 -84 229q0 77 35 142t76 98q110 91 270 91zM466 847q13 10 32 6q12 -6 23.5 -17t11.5 -20q0 -16 -23 -29q-71 -46 -149 -80q-25 -12 -37 0q-1 1 -1.5 4.5t3.5 10.5t11 13
q58 56 129 112z" />
    <glyph glyph-name="cacute" unicode="&#x107;" horiz-adv-x="397" 
d="M262 401q65 0 95 -22q15 -12 15 -32q0 -11 -15 -26t-19 -15q-15 0 -40 20q-4 3 -12.5 9.5t-12.5 9t-11 7t-11 6.5t-10.5 4t-13 3t-13.5 1q-12 0 -29.5 -9t-28.5 -22q-41 -47 -41 -118q0 -66 28 -100q17 -29 50 -46.5t72 -17.5q45 0 90 30q5 3 9 4t6.5 -0.5t2.5 -4.5
q0 -16 -14 -30q-25 -28 -65 -45.5t-81 -17.5q-47 0 -86.5 22t-62.5 58q-32 52 -32 117q0 108 98 173q26 19 66.5 30.5t65.5 11.5zM257 628q9 20 25 20q37 0 44 -11q5 -8 -5 -27q-15 -28 -46 -76.5t-49 -71.5q-16 -18 -27 -18q-6 0 -6.5 10t2.5 18q28 85 62 156z" />
    <glyph glyph-name="Ccircumflex" unicode="&#x108;" horiz-adv-x="715" 
d="M430 658q50 0 121 -15q13 -2 40 -9.5t35 -8.5q15 -3 15 -30q0 -19 6 -88q2 -34 -15 -34q-9 0 -16 27q-17 55 -42 73q-68 54 -158 54q-116 0 -186.5 -82.5t-70.5 -200.5q0 -98 34 -166q40 -79 109.5 -118t138.5 -39q63 0 106 25q54 30 92 96q15 27 22 27q15 0 9 -33
q-7 -44 -38 -99q-6 -13 -32 -27q-75 -28 -181 -28q-96 0 -172.5 36.5t-113.5 79.5q-84 97 -84 229q0 77 35 142t76 98q110 91 270 91zM407 836q9 0 42 -26q20 -18 91 -79q7 -5 11 -12t1.5 -12.5t-11.5 -5.5q-8 0 -31 10q-34 15 -98 48q-8 3 -19 -1l-95 -46q-29 -11 -31 -11
q-26 0 -2 26l6 6q11 9 45.5 38.5t49.5 41.5q27 23 41 23z" />
    <glyph glyph-name="ccircumflex" unicode="&#x109;" horiz-adv-x="397" 
d="M262 401q65 0 95 -22q15 -12 15 -32q0 -11 -15 -26t-19 -15q-15 0 -40 20q-4 3 -12.5 9.5t-12.5 9t-11 7t-11 6.5t-10.5 4t-13 3t-13.5 1q-12 0 -29.5 -9t-28.5 -22q-41 -47 -41 -118q0 -66 28 -100q17 -29 50 -46.5t72 -17.5q45 0 90 30q5 3 9 4t6.5 -0.5t2.5 -4.5
q0 -16 -14 -30q-25 -28 -65 -45.5t-81 -17.5q-47 0 -86.5 22t-62.5 58q-32 52 -32 117q0 108 98 173q26 19 66.5 30.5t65.5 11.5zM222 643q10 0 29 -38q25 -45 66 -126q15 -34 -3 -34q-5 0 -14 6t-13 12l-63 89q-4 7 -10 1q-42 -64 -63 -91q-10 -15 -22 -15q-6 0 -8.5 7.5
t0.5 15.5q8 21 72 140q18 33 29 33z" />
    <glyph glyph-name="Cdotaccent" unicode="&#x10a;" horiz-adv-x="715" 
d="M430 658q50 0 121 -15q13 -2 40 -9.5t35 -8.5q15 -3 15 -30q0 -19 6 -88q2 -34 -15 -34q-9 0 -16 27q-17 55 -42 73q-68 54 -158 54q-116 0 -186.5 -82.5t-70.5 -200.5q0 -98 34 -166q40 -79 109.5 -118t138.5 -39q63 0 106 25q54 30 92 96q15 27 22 27q15 0 9 -33
q-7 -44 -38 -99q-6 -13 -32 -27q-75 -28 -181 -28q-96 0 -172.5 36.5t-113.5 79.5q-84 97 -84 229q0 77 35 142t76 98q110 91 270 91zM419 818q22 0 35.5 -18.5t13.5 -38.5q0 -23 -17 -38t-36 -15q-18 0 -34.5 14.5t-16.5 40.5q0 21 16 38t39 17z" />
    <glyph glyph-name="cdotaccent" unicode="&#x10b;" horiz-adv-x="397" 
d="M262 401q65 0 95 -22q15 -12 15 -32q0 -11 -15 -26t-19 -15q-15 0 -40 20q-4 3 -12.5 9.5t-12.5 9t-11 7t-11 6.5t-10.5 4t-13 3t-13.5 1q-12 0 -29.5 -9t-28.5 -22q-41 -47 -41 -118q0 -66 28 -100q17 -29 50 -46.5t72 -17.5q45 0 90 30q5 3 9 4t6.5 -0.5t2.5 -4.5
q0 -16 -14 -30q-25 -28 -65 -45.5t-81 -17.5q-47 0 -86.5 22t-62.5 58q-32 52 -32 117q0 108 98 173q26 19 66.5 30.5t65.5 11.5zM233 608q22 0 35 -17t13 -38t-16.5 -35.5t-33.5 -14.5q-19 0 -34.5 13.5t-15.5 38.5q0 21 15 37t37 16z" />
    <glyph glyph-name="Ccaron" unicode="&#x10c;" horiz-adv-x="715" 
d="M430 658q50 0 121 -15q13 -2 40 -9.5t35 -8.5q15 -3 15 -30q0 -19 6 -88q2 -34 -15 -34q-9 0 -16 27q-17 55 -42 73q-68 54 -158 54q-116 0 -186.5 -82.5t-70.5 -200.5q0 -98 34 -166q40 -79 109.5 -118t138.5 -39q63 0 106 25q54 30 92 96q15 27 22 27q15 0 9 -33
q-7 -44 -38 -99q-6 -13 -32 -27q-75 -28 -181 -28q-96 0 -172.5 36.5t-113.5 79.5q-84 97 -84 229q0 77 35 142t76 98q110 91 270 91zM404 704q-12 0 -42 24q-7 6 -39 33.5t-54 47.5q-7 4 -10.5 11t-0.5 12.5t12 5.5q4 0 9.5 -1.5t12.5 -4t9 -3.5q48 -23 98 -50q10 -4 19 1
q14 7 47.5 23.5t47.5 23.5q27 10 31 10q21 0 10 -17q-4 -6 -12 -14q-70 -59 -97 -80q-25 -22 -41 -22z" />
    <glyph glyph-name="ccaron" unicode="&#x10d;" horiz-adv-x="397" 
d="M262 401q65 0 95 -22q15 -12 15 -32q0 -11 -15 -26t-19 -15q-15 0 -40 20q-4 3 -12.5 9.5t-12.5 9t-11 7t-11 6.5t-10.5 4t-13 3t-13.5 1q-12 0 -29.5 -9t-28.5 -22q-41 -47 -41 -118q0 -66 28 -100q17 -29 50 -46.5t72 -17.5q45 0 90 30q5 3 9 4t6.5 -0.5t2.5 -4.5
q0 -16 -14 -30q-25 -28 -65 -45.5t-81 -17.5q-47 0 -86.5 22t-62.5 58q-32 52 -32 117q0 108 98 173q26 19 66.5 30.5t65.5 11.5zM222 444q-10 0 -29 38q-60 114 -66 127q-3 4 -5.5 11.5t-1.5 15t9 7.5q5 0 14.5 -6.5t13.5 -12.5q53 -75 61 -88q7 -7 11 -1q12 18 35 50
t28 40q11 16 25 16q5 0 7 -7.5t-1 -16.5q-7 -19 -19.5 -43t-29 -53.5t-23.5 -43.5q-18 -33 -29 -33z" />
    <glyph glyph-name="Dcaron" unicode="&#x10e;" horiz-adv-x="756" 
d="M341 649q94 0 165 -29.5t110 -66.5q41 -39 66.5 -100t25.5 -120q0 -99 -49 -176t-110 -112q-95 -55 -237 -55q-83 0 -197 7q-21 1 -56 1q-32 0 -32 15q0 13 23 15q49 6 61 25t14 83q3 72 3 136q0 153 -5 252q-2 52 -11 67t-52 21q-23 4 -23 15q0 14 25 14h33
q21 0 110.5 4t135.5 4zM297 618q-51 0 -65 -9q-9 -6 -10 -13q-4 -30 -4 -187v-145q0 -113 4 -172q3 -27 22 -46q13 -10 38 -18t41 -8q39 0 90 16t89 48q46 39 73.5 104t27.5 144q0 63 -28 125.5t-74 99.5q-35 28 -91.5 44.5t-112.5 16.5zM336 696q-12 0 -42 24
q-7 6 -39 33.5t-54 47.5q-7 4 -10.5 11t-0.5 12.5t12 5.5q4 0 9.5 -1.5t12.5 -4t9 -3.5q48 -23 98 -50q10 -4 19 1q14 7 47.5 23.5t47.5 23.5q27 10 31 10q21 0 10 -17q-4 -6 -12 -14q-70 -59 -97 -80q-25 -22 -41 -22z" />
    <glyph glyph-name="dcaron" unicode="&#x10f;" horiz-adv-x="504" 
d="M271 404q43 0 62 -3q5 -1 8 10q3 24 2.5 102t-3.5 99q-3 19 -46 41q-11 6 -11 10q0 3 6.5 9t10.5 7q54 9 108 29q8 3 14 3q2 0 5 -5.5t2 -10.5q-9 -112 -9 -392q0 -164 3 -221q2 -47 16 -47q6 0 28.5 3.5t24.5 3.5q6 0 6 -6t-7 -15t-11 -11q-65 -10 -93 -20
q-29 -10 -38 -10q-3 0 -7 4.5t-4 8.5t1 18t1 22q0 7 -6 7q-57 -49 -128 -49q-74 0 -124 53t-50 138q0 121 107 184q60 38 132 38zM234 370q-41 0 -74 -33q-16 -16 -28.5 -52t-12.5 -73q0 -65 40 -118t100 -53q39 0 68 22q1 1 4.5 10t7.5 24t4 28q2 112 -3 167q-2 19 -21 39
q-39 39 -85 39zM529 704q12 0 12 -19q1 -26 -10 -88.5t-22 -93.5q-9 -27 -22 -27q-12 0 -12 22q-8 151 -9 161q0 7 6 13q36 32 57 32z" />
    <glyph glyph-name="Dcroat" unicode="&#x110;" horiz-adv-x="756" 
d="M45 349l74 1q8 0 8 10l-4 165q-2 51 -11 65.5t-52 21.5q-23 4 -23 15q0 14 25 14h33q21 0 110.5 4t135.5 4q93 0 164.5 -30t111.5 -67q40 -39 65.5 -100t25.5 -120q0 -99 -49 -175.5t-110 -111.5q-95 -55 -236 -55q-84 0 -198 7q-21 1 -56 1q-32 0 -32 16q0 12 21 14
q50 6 63.5 25.5t13.5 82.5q0 29 1 81.5t1 82.5q0 10 -6 10l-73 1q-1 0 -4 1.5t-5.5 5.5t-2.5 9q0 4 2.5 13t6.5 9zM394 312l-169 -2q-7 0 -7 -9q3 -182 4 -204q4 -38 22 -50q13 -11 37.5 -18.5t42.5 -7.5q40 0 89.5 15.5t87.5 47.5q102 85 102 248q0 63 -28 125.5t-74 99.5
q-35 29 -91 45t-113 16q-51 0 -64 -8q-9 -6 -10 -15q-2 -5 -2.5 -45t-1 -101t-1.5 -89q0 -10 8 -10h166q15 0 15 -9q0 -10 -4 -19.5t-9 -9.5z" />
    <glyph glyph-name="dcroat" unicode="&#x111;" horiz-adv-x="504" 
d="M421 303q0 -198 3 -230q1 -35 18 -35q6 0 21 3t18 3q15 3 15 -7q0 -7 -6.5 -16.5t-12.5 -10.5q-56 -6 -90 -18q-30 -11 -37 -11q-11 0 -11 13q0 4 1 15t1 19q0 3 -3 5t-4 2q-81 -46 -128 -46q-71 0 -121 53q-53 55 -53 138q0 122 107 185q63 39 132 39q35 0 63 -7
q3 -1 5.5 3t2.5 9q4 90 1 116q0 10 -5 10q-9 0 -51 0.5t-53 0.5q-8 0 -8 11q0 7 4 15t8 8q22 0 54.5 0.5t46.5 0.5q5 0 5 10q0 7 -0.5 20t-0.5 14q0 16 -7.5 23.5t-29.5 14.5q-9 3 -13.5 10t-4.5 11q0 3 5.5 7t13.5 5q61 9 78 16q27 10 34 10q10 0 8 -20q0 -1 -0.5 -17
t-1 -42t-0.5 -53q0 -8 5 -8h65q3 0 4.5 -5.5t0.5 -12.5q-1 -18 -15 -18q-9 0 -27 -0.5t-29 -0.5q-5 0 -5 -11q-3 -150 -3 -221zM231 367q-46 0 -75 -35q-36 -45 -36 -120q0 -67 38.5 -118t99.5 -51q46 0 73 21q11 9 12 44q2 94 0 179q0 19 -19 43q-32 37 -93 37z" />
    <glyph glyph-name="Emacron" unicode="&#x112;" horiz-adv-x="568" 
d="M228 641h148q71 0 92 4q2 1 5 -3.5t4 -8.5q0 -23 1 -56t1 -41q0 -11 -4.5 -19t-11.5 -8q-11 0 -16 25q-9 37 -24.5 51t-41.5 18q-42 7 -142 5q-2 0 -4.5 -2t-6 -9t-3.5 -18q-1 -18 -3 -113t-1 -113q2 -9 9 -9h67q48 0 66 3.5t26 11.5t18 34q9 22 19 22q12 0 9 -24
q-3 -41 -3 -71q0 -12 0.5 -22.5t1.5 -21.5t1 -19q0 -28 -12 -28q-11 0 -17 21q-10 34 -22 42.5t-54 10.5q-32 2 -100 2q-3 0 -6 -3.5t-3 -5.5q-3 -17 -3 -154q0 -56 8 -82q8 -20 20 -23q40 -7 89 -7q69 0 95 8q51 15 81 74q15 29 25 29q6 0 8 -9.5t0 -18.5q0 -6 -15.5 -53.5
t-20.5 -55.5q-8 -11 -19 -11q-1 0 -53.5 1.5t-131 3.5t-142.5 2q-30 0 -63 -2.5t-49 -2.5q-31 0 -31 13q0 10 28 17q41 9 55.5 22t17.5 52q7 96 7 274q0 47 0.5 89t0.5 57.5t-1 28.5q-2 32 -13 45t-43 20q-30 7 -30 17q0 14 29 14q22 0 73 -1.5t85 -1.5zM174 786l239 6
q3 0 6.5 -8t3.5 -17q0 -15 -7 -27.5t-14 -12.5l-235 -1q-10 0 -10 17q0 11 6.5 27t10.5 16z" />
    <glyph glyph-name="emacron" unicode="&#x113;" horiz-adv-x="397" 
d="M232 403q61 0 101 -38q35 -35 35 -85q0 -5 -6 -12t-14 -7q-180 0 -226 1q-7 0 -9 -8q-4 -11 -4 -35q0 -61 36 -109q41 -54 113 -54q66 0 90 36q10 12 13 12q9 0 9 -12q0 -9 -8 -25q-52 -77 -149 -77q-81 0 -130.5 55.5t-49.5 143.5q0 62 32 116t89 81q37 17 78 17z
M222 378q-33 0 -59.5 -21t-39.5 -56q-1 -4 1 -7.5t4 -3.5q42 -2 124 0q34 0 34 27q0 22 -19.5 41.5t-44.5 19.5zM115 571l212 4q3 0 5.5 -9t2.5 -14q0 -15 -6 -26.5t-14 -11.5h-207q-8 0 -8 13q0 15 5 29.5t10 14.5z" />
    <glyph glyph-name="Ebreve" unicode="&#x114;" horiz-adv-x="568" 
d="M228 641h148q71 0 92 4q2 1 5 -3.5t4 -8.5q0 -23 1 -56t1 -41q0 -11 -4.5 -19t-11.5 -8q-11 0 -16 25q-9 37 -24.5 51t-41.5 18q-42 7 -142 5q-2 0 -4.5 -2t-6 -9t-3.5 -18q-1 -18 -3 -113t-1 -113q2 -9 9 -9h67q48 0 66 3.5t26 11.5t18 34q9 22 19 22q12 0 9 -24
q-3 -41 -3 -71q0 -12 0.5 -22.5t1.5 -21.5t1 -19q0 -28 -12 -28q-11 0 -17 21q-10 34 -22 42.5t-54 10.5q-32 2 -100 2q-3 0 -6 -3.5t-3 -5.5q-3 -17 -3 -154q0 -56 8 -82q8 -20 20 -23q40 -7 89 -7q69 0 95 8q51 15 81 74q15 29 25 29q6 0 8 -9.5t0 -18.5q0 -6 -15.5 -53.5
t-20.5 -55.5q-8 -11 -19 -11q-1 0 -53.5 1.5t-131 3.5t-142.5 2q-30 0 -63 -2.5t-49 -2.5q-31 0 -31 13q0 10 28 17q41 9 55.5 22t17.5 52q7 96 7 274q0 47 0.5 89t0.5 57.5t-1 28.5q-2 32 -13 45t-43 20q-30 7 -30 17q0 14 29 14q22 0 73 -1.5t85 -1.5zM280 690
q-51 0 -87.5 30t-42.5 78q-1 7 2 15t9 8q8 0 19 -16q41 -50 106 -50q70 0 110 47q10 15 21 15q9 0 7 -16q-7 -40 -42 -75.5t-102 -35.5z" />
    <glyph glyph-name="ebreve" unicode="&#x115;" horiz-adv-x="397" 
d="M232 403q61 0 101 -38q35 -35 35 -85q0 -5 -6 -12t-14 -7q-180 0 -226 1q-7 0 -9 -8q-4 -11 -4 -35q0 -61 36 -109q41 -54 113 -54q66 0 90 36q10 12 13 12q9 0 9 -12q0 -9 -8 -25q-52 -77 -149 -77q-81 0 -130.5 55.5t-49.5 143.5q0 62 32 116t89 81q37 17 78 17z
M222 378q-33 0 -59.5 -21t-39.5 -56q-1 -4 1 -7.5t4 -3.5q42 -2 124 0q34 0 34 27q0 22 -19.5 41.5t-44.5 19.5zM212 474q-38 0 -67 25t-34 81q-1 15 5 22.5t12 7.5q9 0 15 -21q17 -60 75 -60q59 0 82 60q6 19 22 19q6 0 6 -23q-4 -41 -33.5 -76t-82.5 -35z" />
    <glyph glyph-name="Edotaccent" unicode="&#x116;" horiz-adv-x="568" 
d="M228 641h148q71 0 92 4q2 1 5 -3.5t4 -8.5q0 -23 1 -56t1 -41q0 -11 -4.5 -19t-11.5 -8q-11 0 -16 25q-9 37 -24.5 51t-41.5 18q-42 7 -142 5q-2 0 -4.5 -2t-6 -9t-3.5 -18q-1 -18 -3 -113t-1 -113q2 -9 9 -9h67q48 0 66 3.5t26 11.5t18 34q9 22 19 22q12 0 9 -24
q-3 -41 -3 -71q0 -12 0.5 -22.5t1.5 -21.5t1 -19q0 -28 -12 -28q-11 0 -17 21q-10 34 -22 42.5t-54 10.5q-32 2 -100 2q-3 0 -6 -3.5t-3 -5.5q-3 -17 -3 -154q0 -56 8 -82q8 -20 20 -23q40 -7 89 -7q69 0 95 8q51 15 81 74q15 29 25 29q6 0 8 -9.5t0 -18.5q0 -6 -15.5 -53.5
t-20.5 -55.5q-8 -11 -19 -11q-1 0 -53.5 1.5t-131 3.5t-142.5 2q-30 0 -63 -2.5t-49 -2.5q-31 0 -31 13q0 10 28 17q41 9 55.5 22t17.5 52q7 96 7 274q0 47 0.5 89t0.5 57.5t-1 28.5q-2 32 -13 45t-43 20q-30 7 -30 17q0 14 29 14q22 0 73 -1.5t85 -1.5zM292 799
q22 0 35.5 -18.5t13.5 -38.5q0 -23 -17 -38t-36 -15q-18 0 -34.5 14.5t-16.5 40.5q0 21 16 38t39 17z" />
    <glyph glyph-name="edotaccent" unicode="&#x117;" horiz-adv-x="397" 
d="M232 403q61 0 101 -38q35 -35 35 -85q0 -5 -6 -12t-14 -7q-180 0 -226 1q-7 0 -9 -8q-4 -11 -4 -35q0 -61 36 -109q41 -54 113 -54q66 0 90 36q10 12 13 12q9 0 9 -12q0 -9 -8 -25q-52 -77 -149 -77q-81 0 -130.5 55.5t-49.5 143.5q0 62 32 116t89 81q37 17 78 17z
M222 378q-33 0 -59.5 -21t-39.5 -56q-1 -4 1 -7.5t4 -3.5q42 -2 124 0q34 0 34 27q0 22 -19.5 41.5t-44.5 19.5zM225 608q22 0 35 -17t13 -38t-16.5 -35.5t-33.5 -14.5q-19 0 -34.5 13.5t-15.5 38.5q0 21 15 37t37 16z" />
    <glyph glyph-name="Eogonek" unicode="&#x118;" horiz-adv-x="568" 
d="M228 641h148q69 0 89 4q3 1 7 -3.5t5 -8.5q0 -23 1 -56t1 -41q0 -11 -4.5 -19t-11.5 -8q-11 0 -16 25q-9 37 -24.5 51t-41.5 18q-42 7 -142 5q-2 0 -4.5 -2t-6 -9t-3.5 -18q-1 -18 -3 -112t-1 -112q3 -11 10 -11h66q48 0 66 3.5t26 11.5t18 34q9 22 19 22q12 0 9 -24
q-3 -41 -3 -71q0 -12 0.5 -22.5t1.5 -21.5t1 -19q0 -28 -12 -28q-11 0 -17 21q-10 34 -22 42.5t-54 10.5q-32 2 -98 2q-3 0 -7 -3.5t-4 -5.5q-3 -17 -3 -154q0 -53 9 -82q8 -20 20 -23q40 -7 88 -7q69 0 95 8q51 15 82 75q14 26 25 26q8 0 8 -24q0 -6 -16 -54.5t-21 -56.5
q-8 -11 -19 -11l-11 1h-22q-40 -38 -62 -76.5t-22 -67.5q0 -22 15 -36t37 -14q31 0 58 15q4 2 7.5 0t3.5 -8q0 -8 -7 -22q-33 -50 -101 -50q-43 0 -67 26t-24 64q0 39 35.5 85.5t92.5 84.5q-110 5 -260 5q-30 0 -63 -2.5t-49 -2.5q-31 0 -31 13q0 10 28 17q41 9 55.5 22
t17.5 52q7 96 7 274q0 47 0.5 89t0.5 57.5t-1 28.5q-2 32 -13 45t-43 20q-30 7 -30 17q0 14 29 14q22 0 73 -1.5t85 -1.5z" />
    <glyph glyph-name="eogonek" unicode="&#x119;" horiz-adv-x="397" 
d="M231 405q61 0 101.5 -36.5t40.5 -91.5q0 -6 -10.5 -13.5t-18.5 -7.5q-164 0 -215 1q-7 0 -12 -10q-3 -9 -3 -34q0 -71 38.5 -115t106.5 -44q59 0 94 33q7 6 11 6q6 0 6 -9t-7 -21q-18 -22 -53 -48q-95 -77 -95 -149q0 -21 13.5 -34.5t32.5 -13.5q37 0 59 19q2 3 5.5 1.5
t3.5 -5.5q0 -15 -7 -22q-13 -21 -38.5 -38t-58.5 -17q-40 0 -62 25t-22 60q0 69 107 150q-16 -3 -33 -3q-80 0 -131 59t-51 143q0 62 32 116.5t90 81.5q37 17 76 17zM228 378q-35 0 -62 -23t-40 -60q-1 -3 0.5 -6.5t3.5 -3.5q41 -2 120 0q40 2 40 36q0 19 -15.5 38t-46.5 19
z" />
    <glyph glyph-name="Ecaron" unicode="&#x11a;" horiz-adv-x="568" 
d="M228 641h148q71 0 92 4q2 1 5 -3.5t4 -8.5q0 -23 1 -56t1 -41q0 -11 -4.5 -19t-11.5 -8q-11 0 -16 25q-9 37 -24.5 51t-41.5 18q-42 7 -142 5q-2 0 -4.5 -2t-6 -9t-3.5 -18q-1 -18 -3 -113t-1 -113q2 -9 9 -9h67q48 0 66 3.5t26 11.5t18 34q9 22 19 22q12 0 9 -24
q-3 -41 -3 -71q0 -12 0.5 -22.5t1.5 -21.5t1 -19q0 -28 -12 -28q-11 0 -17 21q-10 34 -22 42.5t-54 10.5q-32 2 -100 2q-3 0 -6 -3.5t-3 -5.5q-3 -17 -3 -154q0 -56 8 -82q8 -20 20 -23q40 -7 89 -7q69 0 95 8q51 15 81 74q15 29 25 29q6 0 8 -9.5t0 -18.5q0 -6 -15.5 -53.5
t-20.5 -55.5q-8 -11 -19 -11q-1 0 -53.5 1.5t-131 3.5t-142.5 2q-30 0 -63 -2.5t-49 -2.5q-31 0 -31 13q0 10 28 17q41 9 55.5 22t17.5 52q7 96 7 274q0 47 0.5 89t0.5 57.5t-1 28.5q-2 32 -13 45t-43 20q-30 7 -30 17q0 14 29 14q22 0 73 -1.5t85 -1.5zM288 684
q-12 0 -42 24q-7 6 -39 33.5t-54 47.5q-7 4 -10.5 11t-0.5 12.5t12 5.5q4 0 9.5 -1.5t12.5 -4t9 -3.5q48 -23 98 -50q10 -4 19 1q14 7 47.5 23.5t47.5 23.5q27 10 31 10q21 0 10 -17q-4 -6 -12 -14q-70 -59 -97 -80q-25 -22 -41 -22z" />
    <glyph glyph-name="ecaron" unicode="&#x11b;" horiz-adv-x="397" 
d="M232 403q61 0 101 -38q35 -35 35 -85q0 -5 -6 -12t-14 -7q-180 0 -226 1q-7 0 -9 -8q-4 -11 -4 -35q0 -61 36 -109q41 -54 113 -54q66 0 90 36q10 12 13 12q9 0 9 -12q0 -9 -8 -25q-52 -77 -149 -77q-81 0 -130.5 55.5t-49.5 143.5q0 62 32 116t89 81q37 17 78 17z
M222 378q-33 0 -59.5 -21t-39.5 -56q-1 -4 1 -7.5t4 -3.5q42 -2 124 0q34 0 34 27q0 22 -19.5 41.5t-44.5 19.5zM212 444q-10 0 -29 38q-60 114 -66 127q-3 4 -5.5 11.5t-1.5 15t9 7.5q5 0 14.5 -6.5t13.5 -12.5q53 -75 61 -88q7 -7 11 -1q12 18 35 50t28 40q11 16 25 16
q5 0 7 -7.5t-1 -16.5q-7 -19 -19.5 -43t-29 -53.5t-23.5 -43.5q-18 -33 -29 -33z" />
    <glyph glyph-name="Gcircumflex" unicode="&#x11c;" horiz-adv-x="728" 
d="M417 658q69 0 167 -21l40 -8q2 0 4.5 -2.5t5 -8.5t2.5 -13q0 -11 6.5 -51t6.5 -61q0 -23 -13 -23q-10 0 -18 24q-15 40 -39 70q-20 24 -63 43.5t-97 19.5q-121 0 -193 -86.5t-72 -209.5q0 -109 44 -182q38 -64 102 -100t134 -36q48 0 85 23q6 5 13 24t7 32q0 83 -3 101
q-4 14 -9.5 21.5t-24.5 15t-53 10.5q-11 1 -19 6t-8 11t8.5 10.5t22.5 4.5q10 0 57 -2t62 -2q11 0 44.5 2t51.5 2q27 0 27 -14q0 -9 -23 -17q-14 -4 -22 -10.5t-9.5 -9t-4.5 -12.5q-5 -18 -5 -124q0 -18 15 -29q16 -10 16 -18q0 -10 -15 -14l-91 -23q-70 -19 -141 -19
q-168 0 -266 90q-103 99 -103 247q0 151 112 249q47 42 116 66t143 24zM409 831q9 0 42 -26q20 -18 91 -79q7 -5 11 -12t1.5 -12.5t-11.5 -5.5q-8 0 -31 10q-34 15 -98 48q-8 3 -19 -1l-95 -46q-29 -11 -31 -11q-26 0 -2 26l6 6q11 9 45.5 38.5t49.5 41.5q27 23 41 23z" />
    <glyph glyph-name="gcircumflex" unicode="&#x11d;" horiz-adv-x="424" 
d="M210 409q34 0 88 -13q4 -1 13.5 -3.5t13.5 -2.5t54 -3t62 -5q9 -2 9 -11q0 -10 -7.5 -22t-11.5 -12q-40 0 -65 2q-3 0 -5 -3t-1 -5q8 -22 8 -48q0 -82 -56 -126q-51 -38 -112 -38q-22 0 -36 2q-10 2 -14 -2q-8 -4 -19 -15t-11 -17q0 -17 14.5 -29.5t25.5 -13.5
q178 -8 185 -9q22 -2 48 -24q43 -36 43 -89q0 -91 -96 -155q-66 -43 -145 -43q-75 0 -126 37q-47 36 -47 87q0 42 29 62q13 11 38 29t30 23q2 2 -2 7q-27 10 -40 20q-35 23 -35 74q0 5 5 10q3 2 35 22.5t41 30.5q3 3 -3 9q-77 42 -77 127q0 68 60 113q45 34 107 34zM201 384
q-30 0 -48 -24q-25 -28 -25 -89q0 -44 26 -84.5t69 -40.5q11 0 33 14q16 11 25.5 41t9.5 64q0 44 -22 76q-30 43 -68 43zM233 -232q49 0 79 17q53 33 53 90q0 32 -15 51q-16 22 -53 30q-29 6 -102 6q-37 0 -53 -11q-42 -30 -42 -79q0 -43 36 -74q37 -30 97 -30zM221 643
q10 0 29 -38q25 -45 66 -126q15 -34 -3 -34q-5 0 -14 6t-13 12l-63 89q-4 7 -10 1q-42 -64 -63 -91q-10 -15 -22 -15q-6 0 -8.5 7.5t0.5 15.5q8 21 72 140q18 33 29 33z" />
    <glyph glyph-name="Gbreve" unicode="&#x11e;" horiz-adv-x="728" 
d="M417 658q69 0 167 -21l40 -8q2 0 4.5 -2.5t5 -8.5t2.5 -13q0 -11 6.5 -51t6.5 -61q0 -23 -13 -23q-10 0 -18 24q-15 40 -39 70q-20 24 -63 43.5t-97 19.5q-121 0 -193 -86.5t-72 -209.5q0 -109 44 -182q38 -64 102 -100t134 -36q48 0 85 23q6 5 13 24t7 32q0 83 -3 101
q-4 14 -9.5 21.5t-24.5 15t-53 10.5q-11 1 -19 6t-8 11t8.5 10.5t22.5 4.5q10 0 57 -2t62 -2q11 0 44.5 2t51.5 2q27 0 27 -14q0 -9 -23 -17q-14 -4 -22 -10.5t-9.5 -9t-4.5 -12.5q-5 -18 -5 -124q0 -18 15 -29q16 -10 16 -18q0 -10 -15 -14l-91 -23q-70 -19 -141 -19
q-168 0 -266 90q-103 99 -103 247q0 151 112 249q47 42 116 66t143 24zM401 709q-51 0 -87.5 30t-42.5 78q-1 7 2 15t9 8q8 0 19 -16q41 -50 106 -50q70 0 110 47q10 15 21 15q9 0 7 -16q-7 -40 -42 -75.5t-102 -35.5z" />
    <glyph glyph-name="gbreve" unicode="&#x11f;" horiz-adv-x="424" 
d="M210 409q34 0 88 -13q4 -1 13.5 -3.5t13.5 -2.5t54 -3t62 -5q9 -2 9 -11q0 -10 -7.5 -22t-11.5 -12q-40 0 -65 2q-3 0 -5 -3t-1 -5q8 -22 8 -48q0 -82 -56 -126q-51 -38 -112 -38q-22 0 -36 2q-10 2 -14 -2q-8 -4 -19 -15t-11 -17q0 -17 14.5 -29.5t25.5 -13.5
q178 -8 185 -9q22 -2 48 -24q43 -36 43 -89q0 -91 -96 -155q-66 -43 -145 -43q-75 0 -126 37q-47 36 -47 87q0 42 29 62q13 11 38 29t30 23q2 2 -2 7q-27 10 -40 20q-35 23 -35 74q0 5 5 10q3 2 35 22.5t41 30.5q3 3 -3 9q-77 42 -77 127q0 68 60 113q45 34 107 34zM201 384
q-30 0 -48 -24q-25 -28 -25 -89q0 -44 26 -84.5t69 -40.5q11 0 33 14q16 11 25.5 41t9.5 64q0 44 -22 76q-30 43 -68 43zM233 -232q49 0 79 17q53 33 53 90q0 32 -15 51q-16 22 -53 30q-29 6 -102 6q-37 0 -53 -11q-42 -30 -42 -79q0 -43 36 -74q37 -30 97 -30zM212 474
q-38 0 -67 25t-34 81q-1 15 5 22.5t12 7.5q9 0 15 -21q17 -60 75 -60q59 0 82 60q6 19 22 19q6 0 6 -23q-4 -41 -33.5 -76t-82.5 -35z" />
    <glyph glyph-name="Gdotaccent" unicode="&#x120;" horiz-adv-x="728" 
d="M417 658q69 0 167 -21l40 -8q2 0 4.5 -2.5t5 -8.5t2.5 -13q0 -11 6.5 -51t6.5 -61q0 -23 -13 -23q-10 0 -18 24q-15 40 -39 70q-20 24 -63 43.5t-97 19.5q-121 0 -193 -86.5t-72 -209.5q0 -109 44 -182q38 -64 102 -100t134 -36q48 0 85 23q6 5 13 24t7 32q0 83 -3 101
q-4 14 -9.5 21.5t-24.5 15t-53 10.5q-11 1 -19 6t-8 11t8.5 10.5t22.5 4.5q10 0 57 -2t62 -2q11 0 44.5 2t51.5 2q27 0 27 -14q0 -9 -23 -17q-14 -4 -22 -10.5t-9.5 -9t-4.5 -12.5q-5 -18 -5 -124q0 -18 15 -29q16 -10 16 -18q0 -10 -15 -14l-91 -23q-70 -19 -141 -19
q-168 0 -266 90q-103 99 -103 247q0 151 112 249q47 42 116 66t143 24zM412 823q22 0 35.5 -18.5t13.5 -38.5q0 -23 -17 -38t-36 -15q-18 0 -34.5 14.5t-16.5 40.5q0 21 16 38t39 17z" />
    <glyph glyph-name="gdotaccent" unicode="&#x121;" horiz-adv-x="424" 
d="M210 409q34 0 88 -13q4 -1 13.5 -3.5t13.5 -2.5t54 -3t62 -5q9 -2 9 -11q0 -10 -7.5 -22t-11.5 -12q-40 0 -65 2q-3 0 -5 -3t-1 -5q8 -22 8 -48q0 -82 -56 -126q-51 -38 -112 -38q-22 0 -36 2q-10 2 -14 -2q-8 -4 -19 -15t-11 -17q0 -17 14.5 -29.5t25.5 -13.5
q178 -8 185 -9q22 -2 48 -24q43 -36 43 -89q0 -91 -96 -155q-66 -43 -145 -43q-75 0 -126 37q-47 36 -47 87q0 42 29 62q13 11 38 29t30 23q2 2 -2 7q-27 10 -40 20q-35 23 -35 74q0 5 5 10q3 2 35 22.5t41 30.5q3 3 -3 9q-77 42 -77 127q0 68 60 113q45 34 107 34zM201 384
q-30 0 -48 -24q-25 -28 -25 -89q0 -44 26 -84.5t69 -40.5q11 0 33 14q16 11 25.5 41t9.5 64q0 44 -22 76q-30 43 -68 43zM233 -232q49 0 79 17q53 33 53 90q0 32 -15 51q-16 22 -53 30q-29 6 -102 6q-37 0 -53 -11q-42 -30 -42 -79q0 -43 36 -74q37 -30 97 -30zM213 608
q22 0 35 -17t13 -38t-16.5 -35.5t-33.5 -14.5q-19 0 -34.5 13.5t-15.5 38.5q0 21 15 37t37 16z" />
    <glyph glyph-name="Gcommaaccent" unicode="&#x122;" horiz-adv-x="728" 
d="M417 658q69 0 167 -21l40 -8q2 0 4.5 -2.5t5 -8.5t2.5 -13q0 -11 6.5 -51t6.5 -61q0 -23 -13 -23q-10 0 -18 24q-15 40 -39 70q-20 24 -63 43.5t-97 19.5q-121 0 -193 -86.5t-72 -209.5q0 -109 44 -182q38 -64 102 -100t134 -36q48 0 85 23q6 5 13 24t7 32q0 83 -3 101
q-4 14 -9.5 21.5t-24.5 15t-53 10.5q-11 1 -19 6t-8 11t8.5 10.5t22.5 4.5q10 0 57 -2t62 -2q11 0 44.5 2t51.5 2q27 0 27 -14q0 -9 -23 -17q-14 -4 -22 -10.5t-9.5 -9t-4.5 -12.5q-5 -18 -5 -124q0 -18 15 -29q16 -10 16 -18q0 -10 -15 -14l-91 -23q-70 -19 -141 -19
q-168 0 -266 90q-103 99 -103 247q0 151 112 249q47 42 116 66t143 24zM395 -65q31 0 53 -24t22 -65q0 -55 -41 -84.5t-68 -29.5q-16 0 -16 9t13 15q22 9 40.5 27t18.5 39q0 14 -6.5 20.5t-21.5 11.5q-1 0 -4.5 1t-5.5 2t-6 2.5t-6.5 3t-5.5 3.5t-5 4.5t-4 5.5t-3 7t-1 9
q0 22 15 32.5t32 10.5z" />
    <glyph glyph-name="gcommaaccent" unicode="&#x123;" horiz-adv-x="424" 
d="M221 463q-29 0 -50.5 23t-21.5 62q0 38 23.5 64.5t45.5 35t36 8.5t14 -8q0 -10 -12 -14q-55 -24 -55 -65q0 -27 28 -30q12 -1 24 -9.5t12 -25.5q0 -21 -14 -31t-30 -10zM210 409q34 0 88 -13q4 -1 13.5 -3.5t13.5 -2.5t54 -3t62 -5q9 -2 9 -11q0 -10 -7.5 -22t-11.5 -12
q-40 0 -65 2q-3 0 -5 -3t-1 -5q8 -22 8 -48q0 -82 -56 -126q-51 -38 -112 -38q-22 0 -36 2q-10 2 -14 -2q-8 -4 -19 -15t-11 -17q0 -17 14.5 -29.5t25.5 -13.5q178 -8 185 -9q22 -2 48 -24q43 -36 43 -89q0 -91 -96 -155q-66 -43 -145 -43q-75 0 -126 37q-47 36 -47 87
q0 42 29 62q13 11 38 29t30 23q2 2 -2 7q-27 10 -40 20q-35 23 -35 74q0 5 5 10q3 2 35 22.5t41 30.5q3 3 -3 9q-77 42 -77 127q0 68 60 113q45 34 107 34zM201 384q-30 0 -48 -24q-25 -28 -25 -89q0 -44 26 -84.5t69 -40.5q11 0 33 14q16 11 25.5 41t9.5 64q0 44 -22 76
q-30 43 -68 43zM233 -232q49 0 79 17q53 33 53 90q0 32 -15 51q-16 22 -53 30q-29 6 -102 6q-37 0 -53 -11q-42 -30 -42 -79q0 -43 36 -74q37 -30 97 -30z" />
    <glyph glyph-name="Hcircumflex" unicode="&#x124;" horiz-adv-x="816" 
d="M219 366q1 -19 11 -19q18 0 141.5 2t216.5 2q8 0 11 25q1 7 0.5 80.5t-2.5 99.5q-3 28 -12 38t-41 19q-27 7 -27 19q0 11 32 11q5 0 47.5 -1t56.5 -1q20 0 55.5 1.5t38.5 1.5q29 0 29 -12q0 -11 -30 -18q-28 -7 -38 -20t-12 -36q-8 -82 -8 -319q0 -76 4 -156
q1 -28 10.5 -36.5t45.5 -18.5q23 -8 23 -19q0 -12 -28 -12q-6 0 -38 1.5t-49 1.5q-11 0 -59.5 -3t-58.5 -3q-27 0 -27 12t24 18q38 11 47.5 27t12.5 70q4 96 3 161q0 20 -11 20q-56 0 -150.5 1t-137 1.5t-70.5 -0.5q-3 -1 -6.5 -7t-3.5 -11v-181q0 -36 10.5 -51.5
t41.5 -25.5q31 -8 32 -21q0 -11 -31 -11q-2 0 -22 1t-45 2t-41 1q-10 0 -46.5 -2t-54.5 -2q-31 0 -31 11t24 19q37 10 48 21.5t14 41.5q9 123 9 319q0 5 0.5 37.5t1 57t-0.5 53.5q-2 26 -11 38t-38 18q-29 7 -29 19t28 12q14 0 48 -1t47 -1q23 0 56 1t42 1q33 0 33 -12
q0 -13 -31 -19q-32 -6 -40.5 -19t-10.5 -48q-1 -25 -2.5 -95.5t-0.5 -83.5zM426 834q9 0 42 -26q20 -18 91 -79q7 -5 11 -12t1.5 -12.5t-11.5 -5.5q-8 0 -31 10q-34 15 -98 48q-8 3 -19 -1l-95 -46q-29 -11 -31 -11q-26 0 -2 26l6 6q11 9 45.5 38.5t49.5 41.5q27 23 41 23z
" />
    <glyph glyph-name="hcircumflex" unicode="&#x125;" horiz-adv-x="515" 
d="M294 405q72 0 106 -47q29 -39 29 -108l4 -184q0 -18 9 -26t30 -13q28 -7 28 -17q0 -13 -28 -13q-17 0 -40 1.5t-39 1.5q-13 0 -37 -1t-39 -1q-22 0 -22 12q0 8 21 15q19 5 24.5 13t8.5 36q1 8 1 40.5t-0.5 69.5t-0.5 39q0 76 -18 97q-29 31 -77 31q-46 0 -75 -22
q-14 -14 -16 -46q-2 -34 -2 -108.5t1 -100.5q1 -24 9.5 -33t28.5 -15q22 -6 22 -15q0 -13 -25 -13q-1 0 -34 1t-50 1q-15 0 -43.5 -1.5t-35.5 -1.5q-23 0 -23 13q0 10 28 18q20 7 28.5 18.5t10.5 36.5q10 133 10 280q0 207 -3 235q-2 18 -7.5 24.5t-27.5 20.5q-10 5 -10 20
q0 4 4 6q81 20 107 35q9 7 18 7q7 0 7 -11q-13 -95 -13 -346q0 -3 2.5 -5t4.5 -1q62 57 124 57zM129 828q7 0 36 -20q1 -1 78 -62q17 -11 11 -20q-4 -3 -9 -3q-7 0 -28 8q-30 11 -84 37q-7 4 -16 -1l-82 -36q-19 -8 -27 -8q-20 0 -6 15q3 4 9 9q73 56 82 62q25 19 36 19z
" />
    <glyph glyph-name="Hbar" unicode="&#x126;" horiz-adv-x="816" 
d="M743 450h-44q-9 -2 -9 -11q-2 -106 -2 -203q0 -33 2 -92.5t2 -60.5q1 -27 11.5 -36t45.5 -20q22 -6 22 -17q0 -13 -27 -13q-6 0 -39.5 1.5t-50.5 1.5q-11 0 -59 -3t-58 -3q-26 0 -26 13q0 11 23 17q39 13 49.5 29t11.5 68q0 22 2 69.5t2 68.5q0 14 -2.5 18t-9.5 4
q-49 0 -144 0.5t-150 0.5t-64 -1q-3 0 -7 -6t-4 -12q-2 -59 1 -158q0 -36 10.5 -51.5t41.5 -25.5q30 -8 30 -20q1 -6 -8 -9t-21 -3l-42 2q-43 2 -64 2q-11 0 -48 -2t-55 -2q-31 0 -31 11t23 19q37 9 48.5 20.5t13.5 42.5q12 154 11 355q0 6 -6 6h-56q-7 1 -9 2t-2 7
q0 8 4.5 18t9.5 10h53q7 0 7 7q0 48 -1 62q-1 24 -12 36.5t-38 20.5q-28 8 -28 19t27 11q14 0 48.5 -1t47.5 -1q23 0 57 1t43 1q30 0 30 -12q0 -13 -30 -19q-31 -6 -40 -19t-11 -47q-2 -18 -2 -52q0 -6 6 -7h364q9 0 9 9q0 13 -1 33.5t-1 26.5q-1 28 -11 38.5t-43 19.5
q-26 7 -26 19q0 11 31 11q5 0 47.5 -1.5t57.5 -1.5q19 0 56 1.5t40 1.5q27 0 27 -12q0 -11 -28 -18q-30 -7 -40 -19t-12 -36q-2 -18 -4 -64q0 -8 7 -8h50q7 1 7 -10q1 -10 -3 -18.5t-10 -8.5zM219 346q1 -22 11 -22q18 0 144.5 1.5t213.5 1.5q8 0 11 27q0 13 0.5 44t0.5 42
q0 8 -8 10h-367q-6 0 -6 -6q-2 -77 0 -98z" />
    <glyph glyph-name="hbar" unicode="&#x127;" horiz-adv-x="515" 
d="M27 566l55 2q4 0 4 9v29q0 14 -6 20.5t-30 22.5q-6 4 -6 13q0 7 9 11q61 17 81 28t27 11q4 0 7.5 -4t3.5 -7q-5 -99 -6 -126q0 -7 5 -7l114 -1q5 0 5 -11q0 -6 -4 -14.5t-7 -8.5l-108 -1q-3 0 -5 -11q-2 -15 -2 -81t1 -80q0 -2 2 -3.5t4 -0.5q26 19 61.5 34t63.5 15
q72 0 106 -47q28 -38 28 -108q2 -126 2 -184q0 -17 9.5 -25t31.5 -14q27 -5 27 -16q0 -14 -27 -14q-17 0 -41 1.5t-40 1.5q-12 0 -36 -1.5t-40 -1.5q-22 0 -22 15q0 9 20 14q18 5 25 14.5t9 33.5q3 28 3 157q0 68 -22 92q-25 28 -76 28q-35 0 -77 -18q-11 -7 -11 -18
q-2 -43 -2 -129t1 -112q1 -24 8 -32t26 -14q24 -7 24 -16q0 -15 -24 -15q-1 0 -34 1.5t-50 1.5q-15 0 -42 -1.5t-34 -1.5q-23 0 -23 13q0 11 28 20q20 6 28 17t10 36q6 80 6 266q0 25 0.5 86t0.5 85q-2 12 -6 12l-56 1q-2 0 -5 2.5t-3 5.5q0 23 9 25z" />
    <glyph glyph-name="Itilde" unicode="&#x128;" horiz-adv-x="345" 
d="M127 328q0 162 -3 213q-2 28 -4.5 38.5t-14 19.5t-38.5 14q-29 6 -29 18q0 13 27 13q12 0 52.5 -1.5t57.5 -1.5q26 0 59.5 1.5t49.5 1.5q26 0 26 -13q0 -12 -26 -17q-20 -4 -32.5 -10t-18 -16.5t-6.5 -16.5t-3 -20q-6 -48 -6 -282q0 -110 3 -158q3 -45 14.5 -61t56.5 -25
q27 -6 27 -18q0 -13 -28 -13q-27 0 -81.5 3t-67.5 3q-14 0 -37.5 -1t-42.5 -1q-27 0 -27 15q0 11 30 17q35 8 44.5 22t12.5 51q5 60 5 225zM51 726q18 31 38 54q8 10 28 10q147 0 157 2q9 2 15.5 7.5t14.5 15.5l7 10q6 8 10 8q3 0 8.5 -5.5t7.5 -9.5q4 -9 -4 -17
q-6 -7 -28.5 -36t-28.5 -34q-8 -7 -17 -7q-8 0 -49.5 1t-73.5 1t-39 -2q-13 -3 -33 -31q-4 -9 -9 -9q-8 0 -12.5 5.5t-4.5 9.5q0 7 13 27z" />
    <glyph glyph-name="itilde" unicode="&#x129;" horiz-adv-x="257" 
d="M44 358q0 10 21 16q23 5 63 19.5t41 14.5q3 0 6.5 -4.5t3.5 -6.5q-6 -90 -6 -204q0 -56 2 -126q0 -6 1.5 -10.5t2.5 -8t4.5 -6.5t5 -4.5t7.5 -4t7.5 -3l9 -3t8.5 -2.5q22 -7 22 -17q0 -11 -25 -11q-2 0 -34 1.5t-44 1.5q-18 0 -49.5 -2t-38.5 -2q-26 0 -26 12q0 9 24 15
q34 10 40 29q4 19 4 114q0 136 -1 142q-1 9 -38 36q-11 8 -11 14zM57 514q-11 0 -33 -25q-5 -5 -10 -5q-2 0 -8.5 7.5t-6.5 9.5q0 1 9.5 13t27 30t33.5 28q8 6 15 4q43 -10 102 -10q20 0 30 6l9 9l10.5 10.5l7.5 7.5q3 3 12 -4t9 -11t-4 -6q-5 -6 -32.5 -35t-31.5 -32
q-6 -7 -11 -7t-55 5t-73 5z" />
    <glyph glyph-name="Imacron" unicode="&#x12a;" horiz-adv-x="345" 
d="M127 328q0 162 -3 213q-2 28 -4.5 38.5t-14 19.5t-38.5 14q-29 6 -29 18q0 13 27 13q12 0 52.5 -1.5t57.5 -1.5q26 0 59.5 1.5t49.5 1.5q26 0 26 -13q0 -12 -26 -17q-20 -4 -32.5 -10t-18 -16.5t-6.5 -16.5t-3 -20q-6 -48 -6 -282q0 -110 3 -158q3 -45 14.5 -61t56.5 -25
q27 -6 27 -18q0 -13 -28 -13q-27 0 -81.5 3t-67.5 3q-14 0 -37.5 -1t-42.5 -1q-27 0 -27 15q0 11 30 17q35 8 44.5 22t12.5 51q5 60 5 225zM57 788l239 6q3 0 6.5 -8t3.5 -17q0 -15 -7 -27.5t-14 -12.5l-235 -1q-10 0 -10 17q0 11 6.5 27t10.5 16z" />
    <glyph glyph-name="imacron" unicode="&#x12b;" horiz-adv-x="257" 
d="M44 358q0 10 21 16q23 5 63 19.5t41 14.5q3 0 6.5 -4.5t3.5 -6.5q-6 -90 -6 -204q0 -56 2 -126q0 -6 1.5 -10.5t2.5 -8t4.5 -6.5t5 -4.5t7.5 -4t7.5 -3l9 -3t8.5 -2.5q22 -7 22 -17q0 -11 -25 -11q-2 0 -34 1.5t-44 1.5q-18 0 -49.5 -2t-38.5 -2q-26 0 -26 12q0 9 24 15
q34 10 40 29q4 19 4 114q0 136 -1 142q-1 9 -38 36q-11 8 -11 14zM24 571l212 4q3 0 5.5 -9t2.5 -14q0 -15 -6 -26.5t-14 -11.5h-207q-8 0 -8 13q0 15 5 29.5t10 14.5z" />
    <glyph glyph-name="Ibreve" unicode="&#x12c;" horiz-adv-x="345" 
d="M127 328q0 162 -3 213q-2 28 -4.5 38.5t-14 19.5t-38.5 14q-29 6 -29 18q0 13 27 13q12 0 52.5 -1.5t57.5 -1.5q26 0 59.5 1.5t49.5 1.5q26 0 26 -13q0 -12 -26 -17q-20 -4 -32.5 -10t-18 -16.5t-6.5 -16.5t-3 -20q-6 -48 -6 -282q0 -110 3 -158q3 -45 14.5 -61t56.5 -25
q27 -6 27 -18q0 -13 -28 -13q-27 0 -81.5 3t-67.5 3q-14 0 -37.5 -1t-42.5 -1q-27 0 -27 15q0 11 30 17q35 8 44.5 22t12.5 51q5 60 5 225zM169 696q-51 0 -87.5 30t-42.5 78q-1 7 2 15t9 8q8 0 19 -16q41 -50 106 -50q70 0 110 47q10 15 21 15q9 0 7 -16q-7 -40 -42 -75.5
t-102 -35.5z" />
    <glyph glyph-name="ibreve" unicode="&#x12d;" horiz-adv-x="257" 
d="M44 358q0 10 21 16q23 5 63 19.5t41 14.5q3 0 6.5 -4.5t3.5 -6.5q-6 -90 -6 -204q0 -56 2 -126q0 -6 1.5 -10.5t2.5 -8t4.5 -6.5t5 -4.5t7.5 -4t7.5 -3l9 -3t8.5 -2.5q22 -7 22 -17q0 -11 -25 -11q-2 0 -34 1.5t-44 1.5q-18 0 -49.5 -2t-38.5 -2q-26 0 -26 12q0 9 24 15
q34 10 40 29q4 19 4 114q0 136 -1 142q-1 9 -38 36q-11 8 -11 14zM122 474q-38 0 -67 25t-34 81q-1 15 5 22.5t12 7.5q9 0 15 -21q17 -60 75 -60q59 0 82 60q6 19 22 19q6 0 6 -23q-4 -41 -33.5 -76t-82.5 -35z" />
    <glyph glyph-name="Iogonek" unicode="&#x12e;" horiz-adv-x="345" 
d="M127 328q0 162 -3 213q-2 29 -4 39t-13.5 19t-38.5 14q-29 6 -29 19q0 12 26 12q12 0 52.5 -1.5t57.5 -1.5q26 0 59.5 1.5t49.5 1.5q26 0 26 -13q0 -12 -26 -17q-20 -4 -32.5 -10t-18 -16.5t-6.5 -16.5t-3 -20q-6 -48 -6 -282q0 -110 3 -158q3 -45 14.5 -61t56.5 -25
q27 -6 27 -18q0 -13 -28 -13q-23 0 -77 4q-67 -79 -67 -147q0 -24 14 -39t35 -15q31 0 60 18q4 2 8 -1t4 -8q0 -3 -1.5 -8t-4 -9.5t-2.5 -5.5q-12 -20 -39 -35t-63 -15q-43 0 -66.5 26t-23.5 63q0 40 32 88t83 88q-34 2 -41 2q-14 0 -37.5 -1t-42.5 -1q-27 0 -27 15
q0 9 30 16q35 8 44.5 22t12.5 52q5 60 5 225z" />
    <glyph glyph-name="iogonek" unicode="&#x12f;" horiz-adv-x="257" 
d="M49 361q0 12 24 16q52 10 94 28q4 1 6.5 -2.5t2.5 -8.5q0 -2 -1 -38.5t-1.5 -83t-0.5 -71.5q0 -64 2 -134q0 -15 5.5 -23.5t11.5 -11.5t19 -7q21 -6 21 -17t-20 -11q-3 0 -49 2q-56 -66 -56 -131q0 -22 13.5 -36t33.5 -14q31 0 56 19q2 2 4.5 2t4 -1.5t1.5 -4.5
q0 -10 -6 -22q-36 -55 -97 -55q-41 0 -63.5 25t-22.5 60q0 33 29.5 78t72.5 81h-11q-18 0 -42 -1.5t-31 -1.5q-23 0 -23 12q0 10 23 16q37 10 41 26q5 16 5 145q0 106 -3 124q-3 16 -28 25q-15 6 -15 16zM139 609q19 0 31 -17t12 -36q0 -21 -16 -34.5t-35 -13.5
q-17 0 -31.5 13t-14.5 37q0 19 15 35t39 16z" />
    <glyph glyph-name="Idotaccent" unicode="&#x130;" horiz-adv-x="345" 
d="M127 328q0 162 -3 213q-2 28 -4.5 38.5t-14 19.5t-38.5 14q-29 6 -29 18q0 13 27 13q12 0 52.5 -1.5t57.5 -1.5q26 0 59.5 1.5t49.5 1.5q26 0 26 -13q0 -12 -26 -17q-20 -4 -32.5 -10t-18 -16.5t-6.5 -16.5t-3 -20q-6 -48 -6 -282q0 -110 3 -158q3 -45 14.5 -61t56.5 -25
q27 -6 27 -18q0 -13 -28 -13q-27 0 -81.5 3t-67.5 3q-14 0 -37.5 -1t-42.5 -1q-27 0 -27 15q0 11 30 17q35 8 44.5 22t12.5 51q5 60 5 225zM174 806q22 0 35.5 -18.5t13.5 -38.5q0 -23 -17 -38t-36 -15q-18 0 -34.5 14.5t-16.5 40.5q0 21 16 38t39 17z" />
    <glyph glyph-name="dotlessi" unicode="&#x131;" horiz-adv-x="257" 
d="M44 358q0 10 21 16q23 5 63 19.5t41 14.5q3 0 6.5 -4.5t3.5 -6.5q-6 -90 -6 -204q0 -56 2 -126q0 -6 1.5 -10.5t2.5 -8t4.5 -6.5t5 -4.5t7.5 -4t7.5 -3l9 -3t8.5 -2.5q22 -7 22 -17q0 -11 -25 -11q-2 0 -34 1.5t-44 1.5q-18 0 -49.5 -2t-38.5 -2q-26 0 -26 12q0 9 24 15
q34 10 40 29q4 19 4 114q0 136 -1 142q-1 9 -38 36q-11 8 -11 14z" />
    <glyph glyph-name="IJ" unicode="&#x132;" horiz-adv-x="681" 
d="M127 328q0 162 -3 213q-2 28 -4.5 38.5t-14 19.5t-38.5 14q-29 6 -29 18q0 13 27 13q12 0 52.5 -1.5t57.5 -1.5q26 0 59.5 1.5t49.5 1.5q26 0 26 -13q0 -12 -26 -17q-20 -4 -32.5 -10t-18 -16.5t-6.5 -16.5t-3 -20q-6 -48 -6 -282q0 -110 3 -158q3 -45 14.5 -61t56.5 -25
q27 -6 27 -18q0 -13 -28 -13q-27 0 -81.5 3t-67.5 3q-14 0 -37.5 -1t-42.5 -1q-27 0 -27 15q0 11 30 17q35 8 44.5 22t12.5 51q5 60 5 225zM271 -167q0 15 24 42q3 3 12.5 8t13.5 5q13 0 31 -11q33 -23 54 -23q23 0 38 17q22 25 26 80q6 90 6 315q0 212 -7 292
q-1 13 -4.5 21.5t-17 18.5t-36.5 14q-31 7 -31 20q0 12 28 12q14 0 50.5 -1.5t60.5 -1.5q21 0 58 1.5t51 1.5q27 0 27 -11q0 -13 -30 -20q-31 -6 -43 -20.5t-12 -51.5q0 -18 -5 -448q-1 -85 -33.5 -152t-77.5 -99q-67 -50 -116 -50q-25 0 -46 12.5t-21 28.5z" />
    <glyph glyph-name="ij" unicode="&#x133;" horiz-adv-x="497" 
d="M140 0q-18 0 -49.5 -2t-38.5 -2q-26 0 -26 12q0 9 24 15q34 10 40 29q4 19 4 114q0 136 -1 142q-1 8 -40 36q-9 8 -9 12q0 12 21 18q23 5 63 19.5t41 14.5q3 0 6.5 -4.5t3.5 -6.5q-6 -90 -6 -204q0 -56 2 -126q0 -6 1.5 -10.5t2.5 -8t4.5 -6.5t5 -4.5t7.5 -4t7.5 -3l9 -3
t8.5 -2.5q22 -7 22 -17q0 -11 -25 -11q-2 0 -34 1.5t-44 1.5zM139 609q20 0 32.5 -17.5t12.5 -34.5q0 -20 -16.5 -35.5t-33.5 -15.5q-20 0 -34 13q-16 18 -16 38q0 23 13 37q17 15 42 15zM290 354q0 9 16 14q69 19 99 35q9 5 17 5q2 0 5 -4.5t3 -6.5q0 -24 -1.5 -185
t-2.5 -175q-3 -113 -44 -182q-35 -61 -92 -103q-29 -23 -42 -23q-15 0 -22 7q-2 1 -1.5 5t2.5 5q50 33 64 50q53 67 53 248q0 231 -4 260q-1 8 -8.5 16t-32.5 23q-9 5 -9 11zM376 615q29 0 43 -18t14 -34q0 -26 -17 -39t-35 -13q-15 0 -32 15.5t-18 35.5q0 26 20 43
q9 10 25 10z" />
    <glyph glyph-name="Jcircumflex" unicode="&#x134;" horiz-adv-x="336" 
d="M-74 -167q0 15 24 42q3 3 12.5 8t13.5 5q13 0 31 -11q33 -23 54 -23q23 0 38 17q22 25 26 80q6 90 6 315q0 212 -7 292q-1 13 -4.5 21.5t-17 18.5t-36.5 14q-31 7 -31 20q0 12 28 12q14 0 50.5 -1.5t60.5 -1.5q21 0 58 1.5t51 1.5q27 0 27 -11q0 -13 -30 -20
q-31 -6 -43 -20.5t-12 -51.5q0 -18 -5 -448q-1 -85 -33.5 -152t-77.5 -99q-67 -50 -116 -50q-25 0 -46 12.5t-21 28.5zM177 828q9 0 42 -26q20 -18 91 -79q7 -5 11 -12t1.5 -12.5t-11.5 -5.5q-8 0 -31 10q-34 15 -98 48q-8 3 -19 -1l-95 -46q-29 -11 -31 -11q-26 0 -2 26
l6 6q11 9 45.5 38.5t49.5 41.5q27 23 41 23z" />
    <glyph glyph-name="jcircumflex" unicode="&#x135;" horiz-adv-x="240" 
d="M33 355q0 8 16 13q69 19 99 35q9 5 17 5q2 0 5 -4.5t3 -6.5q-4 -224 -4 -360q-2 -112 -44 -183q-33 -56 -92 -102q-30 -24 -43 -24t-21 8q-2 1 -1.5 5t2.5 5q44 26 65 52q52 63 52 239q0 238 -4 267q-1 8 -8.5 16t-32.5 23q-9 5 -9 12zM120 643q10 0 29 -38
q25 -45 66 -126q15 -34 -3 -34q-5 0 -14 6t-13 12l-63 89q-4 7 -10 1q-42 -64 -63 -91q-10 -15 -22 -15q-6 0 -8.5 7.5t0.5 15.5q8 21 72 140q18 33 29 33z" />
    <glyph glyph-name="Kcommaaccent" unicode="&#x136;" horiz-adv-x="688" 
d="M43 631q0 13 28 13q11 0 47 -1.5t53 -1.5q16 0 50.5 1t45.5 1q27 0 27 -12q0 -11 -28 -17q-27 -6 -37 -17t-11 -40q-2 -27 -2.5 -113t1.5 -100q0 -7 7 -7q2 0 8 3l7 4q24 19 109.5 102.5t110.5 113.5q20 21 17 33.5t-29 19.5q-23 7 -23 16q0 12 25 12h39q16 0 77 2.5
t74 2.5q26 0 26 -12q0 -11 -29 -18q-40 -9 -67 -24.5t-77 -53.5q-33 -25 -100 -88t-82 -82q-3 -8 0 -10q32 -44 265 -283q21 -21 38.5 -32t29 -14.5t34.5 -7.5q8 -1 14 -6t6 -8q0 -15 -26 -15q-13 0 -74.5 4t-75.5 4q-20 0 -41.5 -0.5t-31.5 -0.5t-15.5 5.5t-5.5 11.5
q0 9 43 19q3 1 4.5 4.5t-0.5 5.5q-47 64 -208 232q-37 40 -44 40q-5 0 -5 -21q-3 -44 2 -215q1 -20 13 -32t45 -20q24 -7 24 -18q0 -14 -27 -14q-10 0 -58 1.5t-65 1.5q-16 0 -50.5 -1.5t-50.5 -1.5q-9 0 -16.5 4t-7.5 9q0 11 29 18q38 8 53 24t16 59q3 105 3 234
q0 162 -4 210q-1 27 -12 38.5t-41 19.5q-27 8 -27 18zM352 -47q31 0 53 -24t22 -65q0 -55 -41 -84.5t-68 -29.5q-16 0 -16 9t13 15q22 9 40.5 27t18.5 39q0 14 -6.5 20.5t-21.5 11.5q-1 0 -4.5 1t-5.5 2t-6 2.5t-6.5 3t-5.5 3.5t-5 4.5t-4 5.5t-3 7t-1 9q0 22 15 32.5
t32 10.5z" />
    <glyph glyph-name="kcommaaccent" unicode="&#x137;" horiz-adv-x="485" 
d="M268 391h46q36 0 81 6t57 6q6 0 6 -8t-7 -14.5t-12 -7.5q-40 -9 -61.5 -19.5t-56.5 -34.5q-20 -14 -47 -39.5t-30 -32.5q-3 -5 -1 -9q23 -29 79 -92.5t80 -87.5q29 -28 66 -36q25 -7 25 -16q0 -13 -26 -13q-9 0 -54 3t-75 3h-46q-25 0 -25 13q0 9 22 14q28 7 13 27
q-6 8 -22 26.5t-42 47.5t-46 53q-18 23 -24 23q-1 0 -5 -8q-3 -9 -3 -62.5t4 -73.5q3 -15 10 -22t27 -12q22 -5 22 -15q0 -12 -25 -12q-12 0 -42 1t-43 1q-19 0 -48 -2t-37 -2q-25 0 -25 12q0 7 25 15q28 7 37 16t12 28q7 33 7 336q0 159 -6 213q0 8 -30 26q-13 10 -13 16
q0 7 13 12q74 20 94 32q17 10 20 10q2 0 5.5 -5.5t2.5 -8.5q-9 -43 -9 -368q0 -90 3 -100q3 -9 7 -9q6 0 20 14q77 68 106 108q9 11 -17 18l-18 4q-11 3 -11 8q0 4 6 11t11 7zM227 -45q31 0 53 -24t22 -65q0 -55 -41 -84.5t-68 -29.5q-16 0 -16 9t13 15q22 9 40.5 27
t18.5 39q0 14 -6.5 20.5t-21.5 11.5q-1 0 -4.5 1t-5.5 2t-6 2.5t-6.5 3t-5.5 3.5t-5 4.5t-4 5.5t-3 7t-1 9q0 22 15 32.5t32 10.5z" />
    <glyph glyph-name="kgreenlandic" unicode="&#x138;" horiz-adv-x="481" 
d="M490 11q0 -14 -26 -14q-8 0 -45.5 1.5t-68.5 1.5q-16 0 -35.5 -1t-25.5 -1q-9 0 -17.5 4t-8.5 11q0 11 23 16q17 4 21 9t-4 15q-48 63 -98 119q-16 19 -27 19q-7 0 -7 -8q0 -106 2 -125q2 -15 10.5 -20.5t31.5 -11.5q14 -6 14 -13q0 -16 -27 -16q-12 0 -38 1.5t-40 1.5
q-19 0 -42 -1.5t-32 -1.5q-26 0 -26 13q0 11 21 17q27 7 35 14t9 23q4 73 5 140q0 123 -2 132q-4 16 -35 26q-19 6 -19 15q0 14 31 14q51 0 100 9q4 1 6 -3t2 -9q-6 -96 -6 -165q0 -9 6 -9q10 0 26 12q56 45 112 119q12 12 -15 18t-27 16q0 14 28 14q6 0 50 -2q26 -1 48 2
t37 3q25 0 25 -12q0 -10 -23 -17q-36 -8 -56 -19.5t-50 -39.5q-40 -35 -72 -69q-5 -5 0 -14q58 -80 144 -168q20 -20 62 -29q24 -5 24 -17z" />
    <glyph glyph-name="Lacute" unicode="&#x139;" horiz-adv-x="567" 
d="M45 630q0 13 30 13q13 0 39 -1t41 -1q21 0 71 1.5t60 1.5q26 0 26 -11q0 -12 -23 -17q-38 -9 -50.5 -18t-14.5 -21q-7 -55 -7 -296q0 -144 7 -202q1 -11 14.5 -24t20.5 -14q24 -5 92 -5q48 0 72 3q21 3 37 18q39 39 59 70q14 21 25 21t4 -27q-24 -78 -30 -110
q-1 -7 -10.5 -12t-14.5 -5q-2 0 -16 0.5t-39 1.5t-58 2t-84.5 1.5t-108.5 0.5q-38 0 -84 -2.5t-49 -2.5q-29 0 -29 11q0 14 24 19q40 7 54.5 22t18.5 47q5 42 5 317q0 115 -1 148q0 21 -10.5 33.5t-42.5 19.5q-28 6 -28 18zM270 838q13 10 32 6q35 -18 35 -37q0 -16 -23 -29
q-71 -46 -149 -80q-25 -12 -37 0q-1 1 -1.5 4.5t3.5 10.5t11 13q58 56 129 112z" />
    <glyph glyph-name="lacute" unicode="&#x13a;" horiz-adv-x="249" 
d="M39 657q0 9 15 15q12 4 31 10t30 9t24.5 9t23.5 12q2 1 6 -3t4 -7q-9 -81 -9 -296q0 -321 3 -338q2 -12 5 -18.5t13.5 -13.5t31.5 -12q22 -8 22 -16q0 -11 -26 -11q-13 0 -46.5 1.5t-41.5 1.5q-12 0 -45.5 -1.5t-43.5 -1.5q-28 0 -28 11t22 15q30 7 38.5 21.5t11.5 55.5
q6 84 6 307q0 174 -3 202q0 13 -24 29q-20 14 -20 19zM204 881q13 10 32 6q12 -6 23.5 -17t11.5 -20q0 -16 -23 -29q-71 -46 -149 -80q-25 -12 -37 0q-1 1 -1.5 4.5t3.5 10.5t11 13q58 56 129 112z" />
    <glyph glyph-name="Lcommaaccent" unicode="&#x13b;" horiz-adv-x="567" 
d="M45 630q0 13 30 13q13 0 39 -1t41 -1q21 0 71 1.5t60 1.5q26 0 26 -11q0 -12 -23 -17q-38 -9 -50.5 -18t-14.5 -21q-7 -55 -7 -296q0 -144 7 -202q1 -11 14.5 -24t20.5 -14q24 -5 92 -5q48 0 72 3q21 3 37 18q39 39 59 70q14 21 25 21t4 -27q-24 -78 -30 -110
q-1 -7 -10.5 -12t-14.5 -5q-2 0 -16 0.5t-39 1.5t-58 2t-84.5 1.5t-108.5 0.5q-38 0 -84 -2.5t-49 -2.5q-29 0 -29 11q0 14 24 19q40 7 54.5 22t18.5 47q5 42 5 317q0 115 -1 148q0 21 -10.5 33.5t-42.5 19.5q-28 6 -28 18zM286 -51q31 0 53 -24t22 -65q0 -55 -41 -84.5
t-68 -29.5q-16 0 -16 9t13 15q22 9 40.5 27t18.5 39q0 14 -6.5 20.5t-21.5 11.5q-1 0 -4.5 1t-5.5 2t-6 2.5t-6.5 3t-5.5 3.5t-5 4.5t-4 5.5t-3 7t-1 9q0 22 15 32.5t32 10.5z" />
    <glyph glyph-name="lcommaaccent" unicode="&#x13c;" horiz-adv-x="249" 
d="M39 657q0 9 15 15q12 4 31 10t30 9t24.5 9t23.5 12q2 1 6 -3t4 -7q-9 -81 -9 -296q0 -321 3 -338q2 -12 5 -18.5t13.5 -13.5t31.5 -12q22 -8 22 -16q0 -11 -26 -11q-13 0 -46.5 1.5t-41.5 1.5q-12 0 -45.5 -1.5t-43.5 -1.5q-28 0 -28 11t22 15q30 7 38.5 21.5t11.5 55.5
q6 84 6 307q0 174 -3 202q0 13 -24 29q-20 14 -20 19zM114 -45q31 0 53 -24t22 -65q0 -55 -41 -84.5t-68 -29.5q-16 0 -16 9t13 15q22 9 40.5 27t18.5 39q0 14 -6.5 20.5t-21.5 11.5q-1 0 -4.5 1t-5.5 2t-6 2.5t-6.5 3t-5.5 3.5t-5 4.5t-4 5.5t-3 7t-1 9q0 22 15 32.5
t32 10.5z" />
    <glyph glyph-name="Lcaron" unicode="&#x13d;" horiz-adv-x="567" 
d="M45 630q0 13 30 13q13 0 39 -1t41 -1q21 0 71 1.5t60 1.5q26 0 26 -11q0 -12 -23 -17q-38 -9 -50.5 -18t-14.5 -21q-7 -55 -7 -296q0 -144 7 -202q1 -11 14.5 -24t20.5 -14q24 -5 92 -5q48 0 72 3q21 3 37 18q39 39 59 70q14 21 25 21t4 -27q-24 -78 -30 -110
q-1 -7 -10.5 -12t-14.5 -5q-2 0 -16 0.5t-39 1.5t-58 2t-84.5 1.5t-108.5 0.5q-38 0 -84 -2.5t-49 -2.5q-29 0 -29 11q0 14 24 19q40 7 54.5 22t18.5 47q5 42 5 317q0 115 -1 148q0 21 -10.5 33.5t-42.5 19.5q-28 6 -28 18zM436 664q12 0 12 -19q1 -26 -10 -88.5t-22 -93.5
q-9 -27 -22 -27q-12 0 -12 22q-8 151 -9 161q0 7 6 13q36 32 57 32z" />
    <glyph glyph-name="lcaron" unicode="&#x13e;" horiz-adv-x="249" 
d="M39 657q0 9 15 15q12 4 31 10t30 9t24.5 9t23.5 12q2 1 6 -3t4 -7q-9 -81 -9 -296q0 -321 3 -338q2 -12 5 -18.5t13.5 -13.5t31.5 -12q22 -8 22 -16q0 -11 -26 -11q-13 0 -46.5 1.5t-41.5 1.5q-12 0 -45.5 -1.5t-43.5 -1.5q-28 0 -28 11t22 15q30 7 38.5 21.5t11.5 55.5
q6 84 6 307q0 174 -3 202q0 13 -24 29q-20 14 -20 19zM275 704q12 0 12 -19q1 -26 -10 -88.5t-22 -93.5q-9 -27 -22 -27q-12 0 -12 22q-8 151 -9 161q0 7 6 13q36 32 57 32z" />
    <glyph glyph-name="Ldot" unicode="&#x13f;" horiz-adv-x="567" 
d="M45 630q0 13 30 13q13 0 39 -1t41 -1q21 0 71 1.5t60 1.5q26 0 26 -11q0 -12 -23 -17q-38 -9 -50.5 -18t-14.5 -21q-7 -55 -7 -296q0 -144 7 -202q1 -11 14.5 -24t20.5 -14q24 -5 92 -5q48 0 72 3q21 3 37 18q39 39 59 70q14 21 25 21t4 -27q-24 -78 -30 -110
q-1 -7 -10.5 -12t-14.5 -5q-2 0 -16 0.5t-39 1.5t-58 2t-84.5 1.5t-108.5 0.5q-38 0 -84 -2.5t-49 -2.5q-29 0 -29 11q0 14 24 19q40 7 54.5 22t18.5 47q5 42 5 317q0 115 -1 148q0 21 -10.5 33.5t-42.5 19.5q-28 6 -28 18zM418 412q22 0 35.5 -18.5t13.5 -38.5
q0 -23 -17 -38t-36 -15q-18 0 -34.5 14.5t-16.5 40.5q0 21 16 38t39 17z" />
    <glyph glyph-name="ldot" unicode="&#x140;" horiz-adv-x="249" 
d="M39 657q0 9 15 15q12 4 31 10t30 9t24.5 9t23.5 12q2 1 6 -3t4 -7q-9 -81 -9 -296q0 -321 3 -338q2 -12 5 -18.5t13.5 -13.5t31.5 -12q22 -8 22 -16q0 -11 -26 -11q-13 0 -46.5 1.5t-41.5 1.5q-12 0 -45.5 -1.5t-43.5 -1.5q-28 0 -28 11t22 15q30 7 38.5 21.5t11.5 55.5
q6 84 6 307q0 174 -3 202q0 13 -24 29q-20 14 -20 19zM256 406q22 0 35 -17t13 -38t-16.5 -35.5t-33.5 -14.5q-19 0 -34.5 13.5t-15.5 38.5q0 21 15 37t37 16z" />
    <glyph glyph-name="Lslash" unicode="&#x141;" horiz-adv-x="567" 
d="M127 322q0 192 -1 225q-1 31 -11 44.5t-40 20.5q-30 6 -30 18t27 12q13 0 48.5 -0.5t50.5 -0.5q21 0 63 1.5t52 1.5q24 0 24 -12q0 -11 -23 -17q-39 -9 -50.5 -18t-15.5 -35q-3 -34 -3 -207q0 -2 2 -4.5t4 -1.5l147 52q6 4 11 -4q7 -9 7 -15q0 -9 -21 -18
q-56 -24 -145 -55q-5 0 -5 -9q0 -132 5 -215q1 -19 15.5 -32t31.5 -14q92 -6 138 -2q11 1 20 2.5t17 6.5t13.5 8.5t14 13.5t13.5 16t17 22t20 26q11 16 18 16q6 0 8.5 -7t0.5 -14q-15 -42 -36 -122q-2 -10 -23 -10q-2 0 -35.5 1t-104 2.5t-160.5 1.5q-19 0 -70 -2.5
t-70 -2.5q-27 0 -27 13q0 11 24 17q23 6 32.5 9t20 10t14.5 18t6 29q3 23 5 174q0 4 -2 6t-5 1t-63 -20q-5 -3 -11 3q-7 8 -7 19q0 7 8 9q17 7 40.5 16t33.5 13q7 4 7 10z" />
    <glyph glyph-name="lslash" unicode="&#x142;" horiz-adv-x="266" 
d="M39 324q5 3 28 15t29 16q5 3 5 13q0 93 -3 240q0 16 -25 31q-19 12 -19 21q0 8 16 13q76 21 108 40q3 1 6.5 -2.5t3.5 -6.5q-9 -72 -9 -303q0 -3 0.5 -4.5t2 -2t3.5 0.5l57 28q1 1 8 -3q6 -9 6 -17t-8 -13q-7 -4 -32 -17t-32 -17q-5 -2 -5 -9q-1 -44 -0.5 -148t2.5 -128
q2 -18 11 -28t38 -19q24 -7 24 -16q0 -11 -27 -11q-13 0 -49.5 1.5t-44.5 1.5q-12 0 -41.5 -1.5t-40.5 -1.5q-29 0 -29 11t24 16q30 6 37.5 18.5t10.5 52.5q4 46 7 216q0 4 -1.5 5.5t-3.5 -0.5l-46 -22q-4 -2 -11 1q-2 1 -5 7.5t-3 8.5q0 9 8 13z" />
    <glyph glyph-name="Nacute" unicode="&#x143;" horiz-adv-x="771" 
d="M17 631q0 13 31 13q8 0 54 -1.5t75 -1.5q9 0 22 -13q28 -33 79 -99q21 -27 325 -359q4 -4 7 -0.5t3 7.5q2 12 2 272q0 26 -5 101q-2 43 -63 60q-28 8 -28 22q0 10 27 10q12 0 39 -0.5t43 -0.5q20 0 53 2t45 2q23 0 23 -11q0 -15 -24 -20q-35 -10 -48 -23.5t-15 -50.5
q-11 -128 -11 -398q0 -24 3.5 -78t3.5 -60q0 -8 -4.5 -14.5t-10.5 -6.5q-19 0 -47 34q-42 54 -63 80q-48 57 -179 207.5t-175 202.5q-3 3 -7.5 2t-4.5 -4q0 -7 -2 -47.5t-2 -85.5q0 -34 -1 -102t-1 -111t2 -59q2 -33 14.5 -48t48.5 -25q25 -6 25 -18q0 -14 -32 -14
q-14 0 -49 2.5t-54 2.5q-12 0 -37.5 -1t-33.5 -1q-26 0 -26 11q0 12 20 18q23 7 31 10.5t19.5 13.5t15.5 26t5 44q19 331 19 398q0 42 -8 50q-19 22 -32.5 30t-49.5 16q-22 6 -22 16zM454 836q13 10 32 6q35 -18 35 -37q0 -16 -23 -29q-71 -46 -149 -80q-25 -12 -37 0
q-1 1 -1.5 4.5t3.5 10.5t11 13q58 56 129 112z" />
    <glyph glyph-name="nacute" unicode="&#x144;" horiz-adv-x="523" 
d="M53 355q0 5 5.5 11.5t11.5 8.5q52 17 70 29q19 12 27 12q3 0 6 -6t3 -9q0 -8 -1.5 -26.5t-1.5 -22.5q0 -3 6 -3q79 55 133 55q58 0 91 -38q35 -40 35 -122q0 -140 3 -182q3 -26 37 -35q25 -7 25 -17q0 -12 -29 -12q-12 0 -38 1t-40 1t-40 -1t-31 -1q-25 0 -25 12
q0 10 24 17q17 7 23.5 16.5t7.5 34.5q2 33 2 183q0 22 -9 42.5t-18 28.5q-23 19 -63 19q-51 0 -84 -29q-10 -8 -10 -24q-1 -10 -0.5 -120.5t1.5 -119.5q1 -12 7.5 -18.5t28.5 -12.5q18 -5 18 -16q0 -12 -26 -12q-6 0 -29 0.5t-35 0.5q-21 0 -50 -1.5t-35 -1.5q-26 0 -26 14
q0 9 21 15q24 7 31.5 17.5t9.5 38.5q6 60 6 217q0 18 -25 39q-17 13 -17 17zM304 628q9 20 25 20q37 0 44 -11q5 -8 -5 -27q-15 -28 -46 -76.5t-49 -71.5q-16 -18 -27 -18q-6 0 -6.5 10t2.5 18q28 85 62 156z" />
    <glyph glyph-name="Ncommaaccent" unicode="&#x145;" horiz-adv-x="771" 
d="M17 631q0 13 31 13q8 0 54 -1.5t75 -1.5q9 0 22 -13q28 -33 79 -99q21 -27 325 -359q4 -4 7 -0.5t3 7.5q2 12 2 272q0 26 -5 101q-2 43 -63 60q-28 8 -28 22q0 10 27 10q12 0 39 -0.5t43 -0.5q20 0 53 2t45 2q23 0 23 -11q0 -15 -24 -20q-35 -10 -48 -23.5t-15 -50.5
q-11 -128 -11 -398q0 -24 3.5 -78t3.5 -60q0 -8 -4.5 -14.5t-10.5 -6.5q-19 0 -47 34q-42 54 -63 80q-48 57 -179 207.5t-175 202.5q-3 3 -7.5 2t-4.5 -4q0 -7 -2 -47.5t-2 -85.5q0 -34 -1 -102t-1 -111t2 -59q2 -33 14.5 -48t48.5 -25q25 -6 25 -18q0 -14 -32 -14
q-14 0 -49 2.5t-54 2.5q-12 0 -37.5 -1t-33.5 -1q-26 0 -26 11q0 12 20 18q23 7 31 10.5t19.5 13.5t15.5 26t5 44q19 331 19 398q0 42 -8 50q-19 22 -32.5 30t-49.5 16q-22 6 -22 16zM381 -37q31 0 53 -24t22 -65q0 -55 -41 -84.5t-68 -29.5q-16 0 -16 9t13 15q22 9 40.5 27
t18.5 39q0 14 -6.5 20.5t-21.5 11.5q-1 0 -4.5 1t-5.5 2t-6 2.5t-6.5 3t-5.5 3.5t-5 4.5t-4 5.5t-3 7t-1 9q0 22 15 32.5t32 10.5z" />
    <glyph glyph-name="ncommaaccent" unicode="&#x146;" horiz-adv-x="523" 
d="M53 355q0 5 5.5 11.5t11.5 8.5q52 17 70 29q19 12 27 12q3 0 6 -6t3 -9q0 -8 -1.5 -26.5t-1.5 -22.5q0 -3 6 -3q79 55 133 55q58 0 91 -38q35 -40 35 -122q0 -140 3 -182q3 -26 37 -35q25 -7 25 -17q0 -12 -29 -12q-12 0 -38 1t-40 1t-40 -1t-31 -1q-25 0 -25 12
q0 10 24 17q17 7 23.5 16.5t7.5 34.5q2 33 2 183q0 22 -9 42.5t-18 28.5q-23 19 -63 19q-51 0 -84 -29q-10 -8 -10 -24q-1 -10 -0.5 -120.5t1.5 -119.5q1 -12 7.5 -18.5t28.5 -12.5q18 -5 18 -16q0 -12 -26 -12q-6 0 -29 0.5t-35 0.5q-21 0 -50 -1.5t-35 -1.5q-26 0 -26 14
q0 9 21 15q24 7 31.5 17.5t9.5 38.5q6 60 6 217q0 18 -25 39q-17 13 -17 17zM253 -45q31 0 53 -24t22 -65q0 -55 -41 -84.5t-68 -29.5q-16 0 -16 9t13 15q22 9 40.5 27t18.5 39q0 14 -6.5 20.5t-21.5 11.5q-1 0 -4.5 1t-5.5 2t-6 2.5t-6.5 3t-5.5 3.5t-5 4.5t-4 5.5t-3 7
t-1 9q0 22 15 32.5t32 10.5z" />
    <glyph glyph-name="Ncaron" unicode="&#x147;" horiz-adv-x="771" 
d="M17 631q0 13 31 13q8 0 54 -1.5t75 -1.5q9 0 22 -13q28 -33 79 -99q21 -27 325 -359q4 -4 7 -0.5t3 7.5q2 12 2 272q0 26 -5 101q-2 43 -63 60q-28 8 -28 22q0 10 27 10q12 0 39 -0.5t43 -0.5q20 0 53 2t45 2q23 0 23 -11q0 -15 -24 -20q-35 -10 -48 -23.5t-15 -50.5
q-11 -128 -11 -398q0 -24 3.5 -78t3.5 -60q0 -8 -4.5 -14.5t-10.5 -6.5q-19 0 -47 34q-42 54 -63 80q-48 57 -179 207.5t-175 202.5q-3 3 -7.5 2t-4.5 -4q0 -7 -2 -47.5t-2 -85.5q0 -34 -1 -102t-1 -111t2 -59q2 -33 14.5 -48t48.5 -25q25 -6 25 -18q0 -14 -32 -14
q-14 0 -49 2.5t-54 2.5q-12 0 -37.5 -1t-33.5 -1q-26 0 -26 11q0 12 20 18q23 7 31 10.5t19.5 13.5t15.5 26t5 44q19 331 19 398q0 42 -8 50q-19 22 -32.5 30t-49.5 16q-22 6 -22 16zM389 687q-12 0 -42 24q-7 6 -39 33.5t-54 47.5q-7 4 -10.5 11t-0.5 12.5t12 5.5
q4 0 9.5 -1.5t12.5 -4t9 -3.5q48 -23 98 -50q10 -4 19 1q14 7 47.5 23.5t47.5 23.5q27 10 31 10q21 0 10 -17q-4 -6 -12 -14q-70 -59 -97 -80q-25 -22 -41 -22z" />
    <glyph glyph-name="ncaron" unicode="&#x148;" horiz-adv-x="523" 
d="M53 355q0 5 5.5 11.5t11.5 8.5q52 17 70 29q19 12 27 12q3 0 6 -6t3 -9q0 -8 -1.5 -26.5t-1.5 -22.5q0 -3 6 -3q79 55 133 55q58 0 91 -38q35 -40 35 -122q0 -140 3 -182q3 -26 37 -35q25 -7 25 -17q0 -12 -29 -12q-12 0 -38 1t-40 1t-40 -1t-31 -1q-25 0 -25 12
q0 10 24 17q17 7 23.5 16.5t7.5 34.5q2 33 2 183q0 22 -9 42.5t-18 28.5q-23 19 -63 19q-51 0 -84 -29q-10 -8 -10 -24q-1 -10 -0.5 -120.5t1.5 -119.5q1 -12 7.5 -18.5t28.5 -12.5q18 -5 18 -16q0 -12 -26 -12q-6 0 -29 0.5t-35 0.5q-21 0 -50 -1.5t-35 -1.5q-26 0 -26 14
q0 9 21 15q24 7 31.5 17.5t9.5 38.5q6 60 6 217q0 18 -25 39q-17 13 -17 17zM263 449q-10 0 -29 38q-60 114 -66 127q-3 4 -5.5 11.5t-1.5 15t9 7.5q5 0 14.5 -6.5t13.5 -12.5q52 -75 61 -88q7 -7 11 -1q12 18 35 50t28 40q11 16 25 16q5 0 7 -7.5t-1 -16.5
q-7 -19 -19.5 -43t-29 -53.5t-23.5 -43.5q-18 -33 -29 -33z" />
    <glyph glyph-name="napostrophe" unicode="&#x149;" horiz-adv-x="523" 
d="M53 355q0 5 5.5 11.5t11.5 8.5q52 17 70 29q19 12 27 12q3 0 6 -6t3 -9q0 -8 -1.5 -26.5t-1.5 -22.5q0 -3 6 -3q79 55 133 55q58 0 91 -38q35 -40 35 -122q0 -140 3 -182q3 -26 37 -35q25 -7 25 -17q0 -12 -29 -12q-12 0 -38 1t-40 1t-40 -1t-31 -1q-25 0 -25 12
q0 10 24 17q17 7 23.5 16.5t7.5 34.5q2 33 2 183q0 22 -9 42.5t-18 28.5q-23 19 -63 19q-51 0 -84 -29q-10 -8 -10 -24q-1 -10 -0.5 -120.5t1.5 -119.5q1 -12 7.5 -18.5t28.5 -12.5q18 -5 18 -16q0 -12 -26 -12q-6 0 -29 0.5t-35 0.5q-21 0 -50 -1.5t-35 -1.5q-26 0 -26 14
q0 9 21 15q24 7 31.5 17.5t9.5 38.5q6 60 6 217q0 18 -25 39q-17 13 -17 17zM115 629q28 0 49 -23t21 -59q0 -45 -35 -69t-59 -24q-16 0 -16 7q0 10 14 16q50 25 50 57q0 23 -30 27q-37 3 -37 31q0 18 14 27.5t29 9.5z" />
    <glyph glyph-name="Eng" unicode="&#x14a;" horiz-adv-x="771" 
d="M179 507q-3 3 -7.5 2t-4.5 -4q-4 -54 -4 -133q0 -34 -1 -102t-1 -111t2 -59q2 -33 14.5 -48t48.5 -25q25 -6 25 -18q0 -14 -32 -14q-14 0 -49 2.5t-54 2.5q-12 0 -37.5 -1t-33.5 -1q-26 0 -26 11q0 12 20 18q23 7 31 10.5t19.5 13.5t15.5 26t5 44q19 331 19 399
q0 38 -8 50q-19 22 -33 29.5t-50 16.5q-21 4 -21 15q0 13 31 13q8 0 54 -1.5t75 -1.5q9 0 22 -13q28 -33 79 -99q32 -39 149 -169.5t176 -194.5q4 -4 7 -0.5t3 7.5q2 12 2 277q0 26 -5 101q-2 43 -63 60q-28 8 -28 22q0 10 27 10q12 0 39 -0.5t43 -0.5q20 0 53 2t45 2
q23 0 23 -11q0 -15 -24 -20q-35 -10 -48 -23.5t-15 -50.5q-3 -34 -8.5 -198.5t-5.5 -266.5q0 -106 -8 -155.5t-26 -84.5q-14 -26 -35 -39.5t-36 -13.5q-18 0 -36 13.5t-24 28.5q-3 4 -2 11.5t7 8.5q60 7 79 25q21 19 30.5 41.5t9.5 67.5q0 13 -14 34q-17 24 -60 77
q-68 81 -354 418z" />
    <glyph glyph-name="eng" unicode="&#x14b;" horiz-adv-x="509" 
d="M308 405q57 0 95 -43q35 -41 35 -123v-157q0 -221 -79 -310q-21 -24 -42.5 -36t-32.5 -12q-19 0 -35.5 8t-16.5 23t8 31q4 7 11 6q4 -1 15 -4t23.5 -5t24.5 -2q14 0 21.5 13t13.5 67t7 158v214q-2 71 -29 94q-26 24 -62 24q-47 0 -85 -32q-7 -8 -7 -20q-1 -10 -0.5 -121
t1.5 -120q1 -12 7.5 -18t29.5 -12q22 -7 22 -17q0 -14 -25 -14q-6 0 -32.5 1.5t-37.5 1.5q-21 0 -52.5 -1.5t-36.5 -1.5q-21 0 -21 14q0 4 6 9t14 7q25 7 32.5 17.5t9.5 37.5q5 50 5 221q0 12 -28 36q-14 10 -14 17q0 11 16 18q57 19 72 31q19 13 28 13q8 0 8 -16
q0 -3 -2.5 -23.5t-2.5 -25.5q0 -2 2 -4.5t3 -1.5q77 58 131 58z" />
    <glyph glyph-name="Omacron" unicode="&#x14c;" horiz-adv-x="782" 
d="M386 658q148 0 247.5 -95t99.5 -234q0 -97 -39 -169.5t-100 -116.5q-42 -31 -98 -46t-103 -15q-76 0 -145 30.5t-115 82.5q-84 90 -84 227q0 160 130 266q37 30 95 50t112 20zM363 625q-33 0 -70.5 -15.5t-61.5 -39.5q-76 -72 -76 -234q0 -76 32 -148.5t93.5 -121.5
t136.5 -49q35 0 64.5 9.5t42 18.5t19.5 18q35 32 59.5 93.5t24.5 142.5q0 78 -31.5 152.5t-86.5 119.5q-29 24 -70 39t-76 15zM271 795l239 6q3 0 6.5 -8t3.5 -17q0 -15 -7 -27.5t-14 -12.5l-235 -1q-10 0 -10 17q0 11 6.5 27t10.5 16z" />
    <glyph glyph-name="omacron" unicode="&#x14d;" horiz-adv-x="487" 
d="M252 405q79 0 141 -57t62 -148q0 -57 -27 -104t-60 -68q-57 -40 -128 -40q-72 0 -134 52q-32 26 -53 70t-21 83q0 97 70 156q62 56 150 56zM233 374q-29 0 -62 -27q-20 -19 -33 -54.5t-13 -75.5q0 -57 12 -90q16 -52 51.5 -80.5t73.5 -28.5q26 0 57 31q18 20 30.5 59
t12.5 74q0 96 -47 153q-36 39 -82 39zM140 571l212 4q3 0 5.5 -9t2.5 -14q0 -15 -6 -26.5t-14 -11.5h-207q-8 0 -8 13q0 15 5 29.5t10 14.5z" />
    <glyph glyph-name="Obreve" unicode="&#x14e;" horiz-adv-x="782" 
d="M386 658q148 0 247.5 -95t99.5 -234q0 -97 -39 -169.5t-100 -116.5q-42 -31 -98 -46t-103 -15q-76 0 -145 30.5t-115 82.5q-84 90 -84 227q0 160 130 266q37 30 95 50t112 20zM363 625q-33 0 -70.5 -15.5t-61.5 -39.5q-76 -72 -76 -234q0 -76 32 -148.5t93.5 -121.5
t136.5 -49q35 0 64.5 9.5t42 18.5t19.5 18q35 32 59.5 93.5t24.5 142.5q0 78 -31.5 152.5t-86.5 119.5q-29 24 -70 39t-76 15zM381 708q-51 0 -87.5 30t-42.5 78q-1 7 2 15t9 8q8 0 19 -16q41 -50 106 -50q70 0 110 47q10 15 21 15q9 0 7 -16q-7 -40 -42 -75.5t-102 -35.5z
" />
    <glyph glyph-name="obreve" unicode="&#x14f;" horiz-adv-x="487" 
d="M252 405q79 0 141 -57t62 -148q0 -57 -27 -104t-60 -68q-57 -40 -128 -40q-72 0 -134 52q-32 26 -53 70t-21 83q0 97 70 156q62 56 150 56zM233 374q-29 0 -62 -27q-20 -19 -33 -54.5t-13 -75.5q0 -57 12 -90q16 -52 51.5 -80.5t73.5 -28.5q26 0 57 31q18 20 30.5 59
t12.5 74q0 96 -47 153q-36 39 -82 39zM231 474q-38 0 -67 25t-34 81q-1 15 5 22.5t12 7.5q9 0 15 -21q17 -60 75 -60q59 0 82 60q6 19 22 19q6 0 6 -23q-4 -41 -33.5 -76t-82.5 -35z" />
    <glyph glyph-name="Ohungarumlaut" unicode="&#x150;" horiz-adv-x="782" 
d="M386 658q148 0 247.5 -95t99.5 -234q0 -97 -39 -169.5t-100 -116.5q-42 -31 -98 -46t-103 -15q-76 0 -145 30.5t-115 82.5q-84 90 -84 227q0 160 130 266q37 30 95 50t112 20zM363 625q-33 0 -70.5 -15.5t-61.5 -39.5q-76 -72 -76 -234q0 -76 32 -148.5t93.5 -121.5
t136.5 -49q35 0 64.5 9.5t42 18.5t19.5 18q35 32 59.5 93.5t24.5 142.5q0 78 -31.5 152.5t-86.5 119.5q-29 24 -70 39t-76 15zM311 710q-13 -19 -28 -19q-13 0 -3 31q16 47 47 112q9 20 24 20t28.5 -6.5t13.5 -14.5q0 -11 -5 -20q-10 -17 -77 -103zM470 714q-12 -18 -29 -18
q-13 0 -3 29q10 39 50 121q11 20 22 20q12 0 27.5 -7t15.5 -15q0 -13 -4 -21q-26 -46 -79 -109z" />
    <glyph glyph-name="ohungarumlaut" unicode="&#x151;" horiz-adv-x="487" 
d="M252 405q79 0 141 -57t62 -148q0 -57 -27 -104t-60 -68q-57 -40 -128 -40q-72 0 -134 52q-32 26 -53 70t-21 83q0 97 70 156q62 56 150 56zM233 374q-29 0 -62 -27q-20 -19 -33 -54.5t-13 -75.5q0 -57 12 -90q16 -52 51.5 -80.5t73.5 -28.5q26 0 57 31q18 20 30.5 59
t12.5 74q0 96 -47 153q-36 39 -82 39zM208 627q11 0 25 -5t17 -12q1 -7 -7 -25q-21 -46 -66 -122q-13 -21 -25 -21t-6 25q26 99 46 144q8 16 16 16zM335 640q11 0 27.5 -5.5t16.5 -12.5q0 -8 -9 -26q-58 -112 -67 -128q-16 -21 -25 -21q-14 0 -4 29q31 114 42 146
q7 18 19 18z" />
    <glyph glyph-name="OE" unicode="&#x152;" horiz-adv-x="1062" 
d="M865 641q39 0 87 3q3 0 8 -4t6 -9q0 -1 0.5 -15t1 -29.5t0.5 -32t-1 -21.5q-2 -27 -17 -27q-9 0 -16 22q-20 68 -45 71q-35 6 -163 6q-10 0 -12 -16q-7 -33 -7 -234q0 -11 11 -11h81q53 0 69 10t30 48q6 17 17 17q12 0 12 -21q0 -6 -2 -29t-2 -36q0 -8 4 -88
q0 -24 -15 -24q-10 0 -17 20q-7 23 -11 31.5t-15.5 17.5t-30.5 10q-35 3 -124 3q-7 0 -7 -10q0 -167 1 -182q3 -48 10 -58q9 -13 28 -17.5t75 -4.5q89 0 116.5 14.5t70.5 84.5q12 21 20 21q12 0 12 -23q0 -6 -21 -62t-26 -62q-9 -10 -25 -10q-3 0 -115.5 3t-131.5 3
q-18 0 -93 -3q-13 0 -12 31l1 65q1 5 -1 6t-5 -3q-87 -114 -241 -114q-135 0 -228 99.5t-93 237.5q0 162 126 266q39 32 94.5 52.5t106.5 20.5q141 0 234 -105q2 -2 5 -1t3 5q-2 48 -2 60q0 24 11 24h238zM376 623q-83 0 -138 -50q-82 -75 -82 -239q0 -120 70.5 -216
t188.5 -96q62 0 112 37q89 71 89 252q0 86 -17.5 141.5t-59.5 98.5q-69 72 -163 72z" />
    <glyph glyph-name="oe" unicode="&#x153;" horiz-adv-x="704" 
d="M252 405q41 0 78 -18.5t57 -38.5q9 -6 14 -1q64 55 139 55q68 0 104 -41t36 -84q0 -9 -13 -19t-31 -10h-195q-7 0 -10 -8q-4 -16 -4 -30q0 -66 34 -110.5t96 -44.5q55 0 103 42q4 5 9.5 4t5.5 -9q0 -14 -12 -29q-57 -72 -150 -72q-39 0 -73 16.5t-53 39.5q-4 4 -9 -2
q-57 -57 -142 -57t-144.5 63t-59.5 142q0 113 83 169q63 43 137 43zM228 373q-28 0 -53 -22q-21 -18 -35.5 -56t-14.5 -86q0 -74 34 -131.5t95 -57.5q38 0 61 27q33 43 33 148q0 44 -8.5 81t-37 67t-74.5 30zM529 372q-33 0 -57.5 -23.5t-34.5 -58.5q-2 -5 0.5 -8.5
t5.5 -3.5q4 0 55 1.5t63 1.5q14 0 23.5 10t9.5 19q0 23 -15 42.5t-50 19.5z" />
    <glyph glyph-name="Racute" unicode="&#x154;" horiz-adv-x="635" 
d="M513 480q0 -40 -21 -77t-57 -60q-3 -2 -16.5 -9t-16.5 -9q-3 -1 -4.5 -7t0.5 -8q12 -26 63.5 -105.5t90.5 -123.5q38 -45 96 -58q6 -1 11.5 -6t5.5 -8q0 -7 -15 -12q-17 -8 -58 -8q-40 0 -77.5 18.5t-58.5 46.5q-52 70 -125 189q-31 45 -38 48q-5 4 -26 8.5t-41 4.5
q-8 0 -12 -11q-1 -15 0.5 -88.5t3.5 -112.5q2 -33 13 -46t47 -22q24 -6 24 -16q0 -14 -26 -14q-17 0 -55.5 3t-73.5 3q-12 0 -46 -2t-38 -2q-27 0 -27 15q0 7 22 15q37 11 49.5 21.5t14.5 36.5q6 80 6 207q0 227 -6 271q-2 24 -12.5 33t-45.5 17q-24 5 -24 17t27 12h60
q16 0 75.5 2.5t88.5 2.5q114 0 166 -43q24 -20 40 -54t16 -69zM417 476q0 21 -11.5 50.5t-32.5 50.5q-40 38 -96 38q-31 0 -46 -7q-3 -1 -7.5 -9.5t-4.5 -11.5q-2 -28 -3.5 -128t0.5 -116q4 -14 15 -14q38 0 73.5 8.5t48.5 16.5q25 17 44.5 48.5t19.5 73.5zM364 836
q13 10 32 6q35 -18 35 -37q0 -16 -23 -29q-71 -46 -149 -80q-25 -12 -37 0q-1 1 -1.5 4.5t3.5 10.5t11 13q58 56 129 112z" />
    <glyph glyph-name="racute" unicode="&#x155;" horiz-adv-x="344" 
d="M49 352q0 12 13 16q55 19 80 34q16 11 21 11q3 0 6.5 -4t3.5 -7q0 -9 -1 -27t-1 -28q2 -3 6 -4q65 62 113 62q27 0 39.5 -12t12.5 -23q0 -5 -6 -15q-31 -44 -43 -49q-6 -3 -15 3q-25 23 -57 23q-28 0 -39 -12q-10 -10 -10 -22q0 -139 5 -214q3 -47 26 -52q16 -3 45 -11
q19 -6 19 -16t-25 -10q-9 0 -49.5 2.5t-73.5 2.5q-15 0 -35 -2t-31 -2q-21 0 -21 13q0 4 20 13q28 10 34.5 23.5t7.5 59.5v186q0 25 -10 32q-35 27 -35 29zM217 628q9 20 25 20q37 0 44 -11q5 -8 -5 -27q-15 -28 -46 -76.5t-49 -71.5q-16 -18 -27 -18q-6 0 -6.5 10t2.5 18
q28 85 62 156z" />
    </font>
</defs>
</svg>
